<svg width="1366" height="768" viewBox="0 0 1366 768" fill="none" xmlns="http://www.w3.org/2000/svg">
<g clip-path="url(#clip0_20_154)">
<path d="M192.82 152.62L133.64 63.85C125.33 49.83 134.16 36.34 149.73 50.87C165.3 65.4 297.68 219.06 297.68 219.06C308.58 231 302.87 249.17 281.59 235.15C260.31 221.13 192.82 152.62 192.82 152.62Z" stroke="black" stroke-width="2.5" stroke-miterlimit="10" stroke-linecap="round" stroke-linejoin="round"/>
<path d="M261.39 177.08C279.11 172.9 297.28 167.29 314.81 159.88" stroke="black" stroke-width="2.5" stroke-miterlimit="10" stroke-linecap="round" stroke-linejoin="round"/>
<path d="M228.59 139.32C252.52 139.12 307.54 146.39 307.54 146.39C318.44 121.47 345.43 96.0401 351.15 106.42C356.86 116.8 349.07 133.41 341.81 146.39C341.81 146.39 337.14 153.14 314.82 153.14C323.64 165.08 346.49 182.21 356.35 177.54C366.21 172.87 350.12 155.74 345.97 151.07" stroke="black" stroke-width="2.5" stroke-miterlimit="10" stroke-linecap="round" stroke-linejoin="round"/>
<path d="M318.18 128.13C305.98 117.32 302.35 114.72 296.64 116.28C290.93 117.84 291.35 131.75 303.08 145.82" stroke="black" stroke-width="2.5" stroke-miterlimit="10" stroke-linecap="round" stroke-linejoin="round"/>
<path d="M174.65 139.32C174.65 139.32 133.9 103.56 124.82 96.8102C115.74 90.0602 103.8 93.1802 110.28 108.49C116.77 123.8 135.1 148.51 135.1 148.51" stroke="black" stroke-width="2.5" stroke-miterlimit="10" stroke-linecap="round" stroke-linejoin="round"/>
<path d="M211.79 185.57C211.79 185.57 247.58 225.55 254.07 234.37C260.56 243.19 261.6 252.54 252.51 255.13C243.43 257.73 232.52 252.57 219.81 240.23C207.09 227.88 166.86 187.91 166.86 187.91" stroke="black" stroke-width="2.5" stroke-miterlimit="10" stroke-linecap="round" stroke-linejoin="round"/>
<path d="M129.23 173.9C132.096 173.9 134.42 171.576 134.42 168.71C134.42 165.844 132.096 163.52 129.23 163.52C126.364 163.52 124.04 165.844 124.04 168.71C124.04 171.576 126.364 173.9 129.23 173.9Z" stroke="black" stroke-width="2" stroke-miterlimit="10" stroke-linecap="round" stroke-linejoin="round"/>
<path d="M126.89 163.63C126.89 163.63 115.47 129.77 105.09 132.89C94.7 136 126.89 163.63 126.89 163.63Z" stroke="black" stroke-width="2" stroke-miterlimit="10" stroke-linecap="round" stroke-linejoin="round"/>
<path d="M132.29 172.89C140.64 179.61 158.81 198.82 149.73 204.27C140.65 209.72 132.29 172.89 132.29 172.89Z" stroke="black" stroke-width="2" stroke-miterlimit="10" stroke-linecap="round" stroke-linejoin="round"/>
<path d="M125.41 159.59C128.78 152.56 139.45 152.33 143.5 163.51C145.29 167.81 146.61 176.04 141.54 181.68" stroke="black" stroke-width="2" stroke-miterlimit="10" stroke-linecap="round" stroke-linejoin="round"/>
<path d="M133.97 182.44C129.56 182.96 122.68 177.35 124.06 168.23" stroke="black" stroke-width="2" stroke-miterlimit="10" stroke-linecap="round" stroke-linejoin="round"/>
<path d="M186.85 145.81C180.36 146.9 176.47 147.68 172.06 150.53C167.65 153.38 167.13 160.65 176.99 161.43C186.85 162.21 190.49 163.51 200.61 161.43" stroke="black" stroke-width="2" stroke-miterlimit="10" stroke-linecap="round" stroke-linejoin="round"/>
<path d="M493.49 124.21L543.21 151.32L549.7 87.21L493.49 124.21ZM493.49 124.21C477.66 122.39 452.89 132.37 437.06 137.31C421.23 142.24 401.76 133.16 387.23 132.12C372.69 131.08 354.79 137.05 341.81 146.4" stroke="black" stroke-width="2" stroke-miterlimit="10" stroke-linecap="round" stroke-linejoin="round"/>
<path d="M549.7 87.2102C562.16 93.1802 602.13 100.71 628.09 92.9202C654.05 85.1302 684.41 74.4502 699.99 91.7302C715.57 109.01 754.5 96.5502 771.89 92.1402C789.28 87.7302 821.46 78.9002 846.9 102.52L824.84 130.03C833.41 146.12 833.15 169.48 833.15 169.48C811.61 150.79 785.39 142.31 757.62 154.51C729.85 166.71 707.53 170.26 685.2 157.02C662.88 143.78 650.25 142.74 631.3 151.31C612.35 159.88 575.41 166.1 543.22 151.31" stroke="black" stroke-width="2" stroke-miterlimit="10" stroke-linecap="round" stroke-linejoin="round"/>
<path d="M147.13 187.79C152.97 187.9 159.24 187.8 166.86 187.91C181.81 188.14 201.95 187.15 224.44 183.99" stroke="black" stroke-width="2.5" stroke-miterlimit="10" stroke-linecap="round" stroke-linejoin="round"/>
<path d="M122.72 160.41C119.52 166.34 119.04 172.15 122.54 179.67C124.91 184.66 128.38 186.95 135.94 187.17" stroke="black" stroke-width="2.5" stroke-miterlimit="10" stroke-linecap="round" stroke-linejoin="round"/>
<path d="M183.95 139.32C183.95 139.32 161.15 141.2 144.02 145.35C135.45 147.42 128.88 150.98 124.91 156.67" stroke="black" stroke-width="2.5" stroke-miterlimit="10" stroke-linecap="round" stroke-linejoin="round"/>
</g>
<defs>
<clipPath id="clip0_20_154">
<rect width="1366" height="768" fill="white"/>
</clipPath>
</defs>
</svg>
