<svg width="1366" height="768" viewBox="0 0 1366 768" fill="none" xmlns="http://www.w3.org/2000/svg">
<path d="M702.06 309.84L708.17 308.31C712.75 301.44 717.32 304.84 723.04 307.13C728.77 309.42 737.17 311.75 737.17 311.75L744.8 308.22C747.47 313.66 744.8 315.57 744.8 315.57L736.91 314.22C730.86 318.21 717.71 320.87 709.29 312.3L702.06 309.84Z" fill="white" stroke="black" stroke-width="2" stroke-miterlimit="10" stroke-linecap="round" stroke-linejoin="round"/>
<path d="M719.94 305.8C724.52 303.14 730.87 290.59 730.87 290.59C730.87 290.59 751.1 282.76 757.9 277C759.82 285.71 751.68 291.03 746 293.32C740.32 295.61 740.17 296.79 739.29 299.74C738.41 302.69 736.62 307.49 730.28 309.67" fill="white"/>
<path d="M719.94 305.8C724.52 303.14 730.87 290.59 730.87 290.59C730.87 290.59 751.1 282.76 757.9 277C759.82 285.71 751.68 291.03 746 293.32C740.32 295.61 740.17 296.79 739.29 299.74C738.41 302.69 736.62 307.49 730.28 309.67" stroke="black" stroke-width="2" stroke-miterlimit="10" stroke-linecap="round" stroke-linejoin="round"/>
<path d="M720.53 304.24C712.85 298.86 710.04 290.44 710.04 290.44C699.7 287.93 691.21 284.08 685.45 279.06C687.05 286.12 690.1 291.33 694.68 293.25C699.26 295.17 701.77 298.71 703.25 300.93C704.73 303.15 706.4 305.3 709.25 306.88" fill="white"/>
<path d="M720.53 304.24C712.85 298.86 710.04 290.44 710.04 290.44C699.7 287.93 691.21 284.08 685.45 279.06C687.05 286.12 690.1 291.33 694.68 293.25C699.26 295.17 701.77 298.71 703.25 300.93C704.73 303.15 706.4 305.3 709.25 306.88" stroke="black" stroke-width="2" stroke-miterlimit="10" stroke-linecap="round" stroke-linejoin="round"/>
<path d="M779.75 304.24L785.21 302.26C786.54 297.39 788.9 296.8 794.51 298.27C800.12 299.75 807.95 301.61 814.15 300.9L819.32 297.56C819.32 297.56 822.13 299.16 821.54 302.85L814.45 302.41C809.72 306.69 799.24 312.9 787.42 305.36L779.75 304.24Z" fill="white" stroke="black" stroke-width="2" stroke-miterlimit="10" stroke-linecap="round" stroke-linejoin="round"/>
<path d="M794.52 298.27C794.08 294.28 790.98 291.03 789.35 289.7C787.73 288.37 788.76 286.01 791.12 283.2C793.48 280.39 801.01 270.5 801.61 267.55C801.61 267.55 804.86 274.17 802.79 279.06L803.48 282.91" fill="white"/>
<path d="M794.52 298.27C794.08 294.28 790.98 291.03 789.35 289.7C787.73 288.37 788.76 286.01 791.12 283.2C793.48 280.39 801.01 270.5 801.61 267.55C801.61 267.55 804.86 274.17 802.79 279.06L803.48 282.91" stroke="black" stroke-width="2" stroke-miterlimit="10" stroke-linecap="round" stroke-linejoin="round"/>
<path d="M798.21 298.27C799.1 292.95 798.36 291.77 798.21 289.7C798.06 287.63 797.9 288.81 800.69 285.86C803.48 282.91 816.97 272.86 820.22 269.47C819.78 276.41 814.46 281.43 814.46 281.43C814.46 281.43 817.56 283.94 814.46 287.19C816.97 287.93 815.2 291.21 811.8 292.96C814.46 294.13 812.98 297.97 807.37 300.03" fill="white"/>
<path d="M798.21 298.27C799.1 292.95 798.36 291.77 798.21 289.7C798.06 287.63 797.9 288.81 800.69 285.86C803.48 282.91 816.97 272.86 820.22 269.47C819.78 276.41 814.46 281.43 814.46 281.43C814.46 281.43 817.56 283.94 814.46 287.19C816.97 287.93 815.2 291.21 811.8 292.96C814.46 294.13 812.98 297.97 807.37 300.03" stroke="black" stroke-width="2" stroke-miterlimit="10" stroke-linecap="round" stroke-linejoin="round"/>
<path d="M840.45 299.3H845.77C847.39 295.16 853.01 294.19 859.8 297.55C866.59 300.92 876.49 302.4 876.49 302.4L882.99 300.04C884.91 303.14 882.99 304.77 882.99 304.77H876.49C870.58 308.76 850.65 309.64 846.81 301.67L840.45 299.3Z" fill="white" stroke="black" stroke-width="2" stroke-miterlimit="10" stroke-linecap="round" stroke-linejoin="round"/>
<path d="M851.97 294.58C853.45 290.74 849.9 289.26 848.28 286.61C846.66 283.95 847.51 282.18 852.32 279.23C857.13 276.28 867.62 266.23 867.62 266.23C867.62 266.23 871.02 270.66 868.65 274.65" fill="white"/>
<path d="M851.97 294.58C853.45 290.74 849.9 289.26 848.28 286.61C846.66 283.95 847.51 282.18 852.32 279.23C857.13 276.28 867.62 266.23 867.62 266.23C867.62 266.23 871.02 270.66 868.65 274.65" stroke="black" stroke-width="2" stroke-miterlimit="10" stroke-linecap="round" stroke-linejoin="round"/>
<path d="M857.85 296.71C860.53 293.4 858.91 290.89 857.14 288.08C855.37 285.27 857.4 283.65 862.14 280.4C866.88 277.15 876.92 269.47 879.29 267.55C879.14 274.2 876.78 280.25 871.61 283.65C873.23 286.6 870.87 291.18 870.87 291.18C872.2 293.84 873.53 296.94 868.8 300.04" fill="white"/>
<path d="M857.85 296.71C860.53 293.4 858.91 290.89 857.14 288.08C855.37 285.27 857.4 283.65 862.14 280.4C866.88 277.15 876.92 269.47 879.29 267.55C879.14 274.2 876.78 280.25 871.61 283.65C873.23 286.6 870.87 291.18 870.87 291.18C872.2 293.84 873.53 296.94 868.8 300.04" stroke="black" stroke-width="2" stroke-miterlimit="10" stroke-linecap="round" stroke-linejoin="round"/>
<path d="M893.47 243.48H899.82C904.69 239.49 909.27 242.74 912.08 246.43C914.89 250.12 924.93 252.93 924.93 252.93H931.58C931.28 256.18 927.3 257.51 927.3 257.51L924.2 255C914.01 255.59 904.71 255.74 899.98 246.43L893.47 243.48Z" fill="white" stroke="black" stroke-width="2" stroke-miterlimit="10" stroke-linecap="round" stroke-linejoin="round"/>
<path d="M909.6 243.81C913.25 241.86 913.25 239.49 913.99 236.39C914.73 233.29 915.17 232.85 920.34 234.03C925.51 235.21 938.06 238.19 942.79 238.62C933.78 243.78 926.2 241.65 926.2 241.65C922.12 246.43 920.64 247.39 914.51 248.53" fill="white"/>
<path d="M909.6 243.81C913.25 241.86 913.25 239.49 913.99 236.39C914.73 233.29 915.17 232.85 920.34 234.03C925.51 235.21 938.06 238.19 942.79 238.62C933.78 243.78 926.2 241.65 926.2 241.65C922.12 246.43 920.64 247.39 914.51 248.53" stroke="black" stroke-width="2" stroke-miterlimit="10" stroke-linecap="round" stroke-linejoin="round"/>
<path d="M901.74 250.57C898.79 252.34 898.64 252.34 896.42 252.19C894.2 252.04 893.91 253.08 894.35 257.51C894.79 261.94 895.83 270.51 900.4 276.27C900.4 268.3 898.78 262.09 901.73 259.43C904.68 256.77 907.54 257.66 911.28 254.7" fill="white"/>
<path d="M901.74 250.57C898.79 252.34 898.64 252.34 896.42 252.19C894.2 252.04 893.91 253.08 894.35 257.51C894.79 261.94 895.83 270.51 900.4 276.27C900.4 268.3 898.78 262.09 901.73 259.43C904.68 256.77 907.54 257.66 911.28 254.7" stroke="black" stroke-width="2" stroke-miterlimit="10" stroke-linecap="round" stroke-linejoin="round"/>
<path d="M918.57 286.75L923.15 285.86C926.55 281.43 933.19 281.43 935.41 286.3C937.63 291.17 948.11 296.34 948.11 296.34L953.87 298.26C953.13 300.92 950.62 301.62 950.62 301.62L946.78 298.26C939.54 299.88 926.84 296.49 924.04 288.81L918.57 286.75Z" fill="white" stroke="black" stroke-width="2" stroke-miterlimit="10" stroke-linecap="round" stroke-linejoin="round"/>
<path d="M935.41 286.31C939.25 283.5 939.25 281.88 939.69 278.63C940.13 275.38 942.05 275.09 946.93 275.23C951.8 275.38 969.23 275.2 969.23 275.2C964.06 279.22 959.78 278.63 959.78 278.63C958.6 282.03 955.5 282.72 952.32 282.6C951.8 284.98 947.96 286.61 944.71 286.31C944.27 289.12 938.85 290.39 938.85 290.39" fill="white"/>
<path d="M935.41 286.31C939.25 283.5 939.25 281.88 939.69 278.63C940.13 275.38 942.05 275.09 946.93 275.23C951.8 275.38 969.23 275.2 969.23 275.2C964.06 279.22 959.78 278.63 959.78 278.63C958.6 282.03 955.5 282.72 952.32 282.6C951.8 284.98 947.96 286.61 944.71 286.31C944.27 289.12 938.85 290.39 938.85 290.39" stroke="black" stroke-width="2" stroke-miterlimit="10" stroke-linecap="round" stroke-linejoin="round"/>
<path d="M924.48 283.8C920.94 282.18 919.31 280.85 918.57 279.81C917.83 278.78 916.35 278.04 912.52 279.81C908.68 281.58 898.29 287.78 894.18 288.97C897.9 291.92 901 290.39 901 290.39C904.84 292.95 907.94 290.39 907.94 290.39C911.93 292.07 914.88 288.82 914.88 288.82C919.31 292.81 921.89 292.62 925.55 291.53" fill="white"/>
<path d="M924.48 283.8C920.94 282.18 919.31 280.85 918.57 279.81C917.83 278.78 916.35 278.04 912.52 279.81C908.68 281.58 898.29 287.78 894.18 288.97C897.9 291.92 901 290.39 901 290.39C904.84 292.95 907.94 290.39 907.94 290.39C911.93 292.07 914.88 288.82 914.88 288.82C919.31 292.81 921.89 292.62 925.55 291.53" stroke="black" stroke-width="2" stroke-miterlimit="10" stroke-linecap="round" stroke-linejoin="round"/>
<path d="M866.73 345.53L871.6 344.64C874.11 340.65 878.1 339.32 882.82 342.57C887.55 345.82 895.96 348.48 895.96 348.48H902.72C902.31 351.14 900.84 353.21 900.84 353.21L895.97 350.55C890.65 353.95 879.87 354.93 873.67 346.98L866.73 345.53Z" fill="white" stroke="black" stroke-width="2" stroke-miterlimit="10" stroke-linecap="round" stroke-linejoin="round"/>
<path d="M877.66 339.62C873.38 336.37 872.79 334.3 872.34 331.65C871.9 328.99 869.98 328.25 866.73 327.51C863.48 326.77 851.08 322.49 845.91 319.68C846.06 325.14 850.78 326.92 850.78 326.92C850.48 330.46 857.13 330.61 857.13 330.61C857.43 334.01 862.13 332.97 862.13 332.97C862.74 338.29 866.58 341.39 872.19 342.13" fill="white"/>
<path d="M877.66 339.62C873.38 336.37 872.79 334.3 872.34 331.65C871.9 328.99 869.98 328.25 866.73 327.51C863.48 326.77 851.08 322.49 845.91 319.68C846.06 325.14 850.78 326.92 850.78 326.92C850.48 330.46 857.13 330.61 857.13 330.61C857.43 334.01 862.13 332.97 862.13 332.97C862.74 338.29 866.58 341.39 872.19 342.13" stroke="black" stroke-width="2" stroke-miterlimit="10" stroke-linecap="round" stroke-linejoin="round"/>
<path d="M881.65 340.75C885.05 339.62 886.82 335.93 887.56 332.98C888.3 330.03 890.07 328.99 893.47 327.66C896.87 326.33 913.26 321.9 916.51 319.09C916.51 324.26 911.29 325.59 911.29 325.59C910.01 330.02 904.69 330.02 900.11 330.91C899.96 334.75 894.94 339.18 894.94 339.18C895.24 342.58 892.84 345.71 889.16 345.92" fill="white"/>
<path d="M881.65 340.75C885.05 339.62 886.82 335.93 887.56 332.98C888.3 330.03 890.07 328.99 893.47 327.66C896.87 326.33 913.26 321.9 916.51 319.09C916.51 324.26 911.29 325.59 911.29 325.59C910.01 330.02 904.69 330.02 900.11 330.91C899.96 334.75 894.94 339.18 894.94 339.18C895.24 342.58 892.84 345.71 889.16 345.92" stroke="black" stroke-width="2" stroke-miterlimit="10" stroke-linecap="round" stroke-linejoin="round"/>
<path d="M804.27 244.66L809.18 243.33C810.62 238.16 815.2 237.3 819.33 240.98C823.47 244.66 831 250.57 831 250.57L836.46 253.08C835.57 256.03 832.92 256.62 832.92 256.62L829.52 252.19C822.58 253.37 811.58 251.16 809.18 245.99L804.27 244.66Z" fill="white" stroke="black" stroke-width="2" stroke-miterlimit="10" stroke-linecap="round" stroke-linejoin="round"/>
<path d="M819.33 240.98C824.5 238.9 829.37 234.32 831.74 232.26C834.1 230.19 835.58 230.02 839.42 233.43C843.26 236.84 859.8 245.26 859.8 245.26C849.31 247.77 845.92 245.26 845.92 245.26C841.34 246.88 839.57 242.75 839.57 242.75C839.57 242.75 836.62 244.99 833.96 240.99C833.96 240.99 831.87 245.28 825.75 246.38" fill="white"/>
<path d="M819.33 240.98C824.5 238.9 829.37 234.32 831.74 232.26C834.1 230.19 835.58 230.02 839.42 233.43C843.26 236.84 859.8 245.26 859.8 245.26C849.31 247.77 845.92 245.26 845.92 245.26C841.34 246.88 839.57 242.75 839.57 242.75C839.57 242.75 836.62 244.99 833.96 240.99C833.96 240.99 831.87 245.28 825.75 246.38" stroke="black" stroke-width="2" stroke-miterlimit="10" stroke-linecap="round" stroke-linejoin="round"/>
<path d="M811.09 239.99C806.34 238.61 802.43 236.25 800.69 234.77C798.95 233.29 798.66 233.74 794.96 236.54C791.27 239.35 783.88 249.39 778.57 250.57C785.22 253.38 791.76 248.8 796.02 244.81C800.28 240.82 802.63 242.45 805.9 244.22" fill="white"/>
<path d="M811.09 239.99C806.34 238.61 802.43 236.25 800.69 234.77C798.95 233.29 798.66 233.74 794.96 236.54C791.27 239.35 783.88 249.39 778.57 250.57C785.22 253.38 791.76 248.8 796.02 244.81C800.28 240.82 802.63 242.45 805.9 244.22" stroke="black" stroke-width="2" stroke-miterlimit="10" stroke-linecap="round" stroke-linejoin="round"/>
<path d="M1031.8 240.09L1037.61 240.04C1040.48 235.89 1042.91 236.12 1047.71 239.37C1052.51 242.63 1059.27 246.99 1065.36 248.38L1071.35 246.95C1071.35 246.95 1073.46 249.39 1071.68 252.68L1065.14 249.9C1059.26 252.37 1047.31 254.73 1038.67 243.69L1031.8 240.09Z" fill="white" stroke="black" stroke-width="2" stroke-miterlimit="10" stroke-linecap="round" stroke-linejoin="round"/>
<path d="M1047.71 239.37C1048.62 235.46 1046.77 231.37 1045.69 229.57C1044.6 227.78 1046.36 225.89 1049.52 224.03C1052.68 222.17 1063.08 215.34 1064.62 212.76C1064.62 212.76 1065.48 220.09 1061.91 224.01L1061.28 227.87" fill="white"/>
<path d="M1047.71 239.37C1048.62 235.46 1046.77 231.37 1045.69 229.57C1044.6 227.78 1046.36 225.89 1049.52 224.03C1052.68 222.17 1063.08 215.34 1064.62 212.76C1064.62 212.76 1065.48 220.09 1061.91 224.01L1061.28 227.87" stroke="black" stroke-width="2" stroke-miterlimit="10" stroke-linecap="round" stroke-linejoin="round"/>
<path d="M1051.19 240.6C1053.79 235.88 1053.49 234.52 1054.04 232.52C1054.59 230.52 1054.04 231.58 1057.65 229.72C1061.26 227.86 1077.32 222.88 1081.52 220.76C1078.79 227.16 1072.11 230.12 1072.11 230.12C1072.11 230.12 1074.2 233.52 1070.19 235.55C1072.31 237.08 1069.55 239.58 1065.76 240.11C1067.88 242.09 1065.21 245.22 1059.23 245.31" fill="white"/>
<path d="M1051.19 240.6C1053.79 235.88 1053.49 234.52 1054.04 232.52C1054.59 230.52 1054.04 231.58 1057.65 229.72C1061.26 227.86 1077.32 222.88 1081.52 220.76C1078.79 227.16 1072.11 230.12 1072.11 230.12C1072.11 230.12 1074.2 233.52 1070.19 235.55C1072.31 237.08 1069.55 239.58 1065.76 240.11C1067.88 242.09 1065.21 245.22 1059.23 245.31" stroke="black" stroke-width="2" stroke-miterlimit="10" stroke-linecap="round" stroke-linejoin="round"/>
<path d="M1117.2 209.22L1123.31 207.69C1127.89 200.82 1132.46 204.22 1138.18 206.51C1143.9 208.8 1152.32 211.13 1152.32 211.13L1159.95 207.6C1162.62 213.04 1159.95 214.95 1159.95 214.95L1152.06 213.6C1146.01 217.59 1132.86 220.25 1124.44 211.68L1117.2 209.22Z" fill="white" stroke="black" stroke-width="2" stroke-miterlimit="10" stroke-linecap="round" stroke-linejoin="round"/>
<path d="M1135.07 205.18C1139.65 202.52 1146 189.97 1146 189.97C1146 189.97 1166.23 182.14 1173.03 176.38C1174.95 185.09 1166.81 190.41 1161.13 192.7C1155.45 194.99 1155.3 196.17 1154.42 199.12C1153.54 202.07 1151.75 206.87 1145.41 209.05" fill="white"/>
<path d="M1135.07 205.18C1139.65 202.52 1146 189.97 1146 189.97C1146 189.97 1166.23 182.14 1173.03 176.38C1174.95 185.09 1166.81 190.41 1161.13 192.7C1155.45 194.99 1155.3 196.17 1154.42 199.12C1153.54 202.07 1151.75 206.87 1145.41 209.05" stroke="black" stroke-width="2" stroke-miterlimit="10" stroke-linecap="round" stroke-linejoin="round"/>
<path d="M1135.67 203.62C1127.99 198.24 1125.18 189.82 1125.18 189.82C1114.84 187.31 1106.35 183.46 1100.59 178.44C1102.19 185.5 1105.24 190.71 1109.82 192.63C1114.4 194.55 1116.91 198.09 1118.39 200.31C1119.87 202.53 1121.54 204.68 1124.39 206.26" fill="white"/>
<path d="M1135.67 203.62C1127.99 198.24 1125.18 189.82 1125.18 189.82C1114.84 187.31 1106.35 183.46 1100.59 178.44C1102.19 185.5 1105.24 190.71 1109.82 192.63C1114.4 194.55 1116.91 198.09 1118.39 200.31C1119.87 202.53 1121.54 204.68 1124.39 206.26" stroke="black" stroke-width="2" stroke-miterlimit="10" stroke-linecap="round" stroke-linejoin="round"/>
</svg>
