<svg width="1366" height="768" viewBox="0 0 1366 768" fill="none" xmlns="http://www.w3.org/2000/svg">
<g clip-path="url(#clip0_20_210)">
<path d="M585.11 356.92H544.94L535.79 340.38H572.05L585.11 356.92Z" stroke="black" stroke-width="2" stroke-miterlimit="10" stroke-linecap="round" stroke-linejoin="round"/>
<path d="M535.79 340.38L523.38 355.74V369.03H583.04V356.92" stroke="black" stroke-width="2" stroke-miterlimit="10" stroke-linecap="round" stroke-linejoin="round"/>
<path d="M544.94 356.92V369.03" stroke="black" stroke-width="2" stroke-miterlimit="10" stroke-linecap="round" stroke-linejoin="round"/>
<path d="M504.48 371.1L489.71 353.08H460.47L470.81 371.1H504.48Z" stroke="black" stroke-width="2" stroke-miterlimit="10" stroke-linecap="round" stroke-linejoin="round"/>
<path d="M460.47 353.08L445.11 371.1V387.93H501.82V371.98" stroke="black" stroke-width="2" stroke-miterlimit="10" stroke-linecap="round" stroke-linejoin="round"/>
<path d="M473.46 371.1V387.93" stroke="black" stroke-width="2" stroke-miterlimit="10" stroke-linecap="round" stroke-linejoin="round"/>
<path d="M474.65 353.08C469.04 348.35 466.38 335.65 478.49 336.24C476.72 326.79 479.67 322.06 487.65 323.24C480.86 308.77 500.65 299.02 501.83 317.92C510.1 309.35 521.32 317.5 515.42 330.26C524.87 322.35 536.23 329.92 527.83 348.64C526.21 352.25 520.74 351.3 520.74 351.3C520.15 360.16 511.29 364.3 503.02 353.07C500.95 358.68 494.35 358.71 494.35 358.71" stroke="black" stroke-width="2" stroke-miterlimit="10" stroke-linecap="round" stroke-linejoin="round"/>
<path d="M475.53 333.68L460.47 317.34H415.57L427.68 335.06L475.53 333.68Z" stroke="black" stroke-width="2" stroke-miterlimit="10" stroke-linecap="round" stroke-linejoin="round"/>
<path d="M427.68 335.06V350.42" stroke="black" stroke-width="2" stroke-miterlimit="10" stroke-linecap="round" stroke-linejoin="round"/>
<path d="M472.32 350.42H400.22V333.67L415.58 317.34L400.22 300.21H435.07L451.02 317.34C460.47 317.34 479.37 296.07 460.47 295.78C464.01 280.13 449.54 268.9 442.75 281.6C438.91 267.72 420.6 265.65 422.07 286.33C410.26 279.54 405.83 292.24 412.91 299.03" stroke="black" stroke-width="2" stroke-miterlimit="10" stroke-linecap="round" stroke-linejoin="round"/>
<path d="M400.21 300.21L386.92 317.34V333.68H400.21" stroke="black" stroke-width="2" stroke-miterlimit="10" stroke-linecap="round" stroke-linejoin="round"/>
<path d="M415.57 284.4C418.82 270.67 406.12 261.85 398.14 270.99C390.17 258.86 375.99 257.42 376.87 270.99C368.9 266.84 355.6 278.06 365.06 289.88C353.25 288.11 355.02 303.51 368.31 307.48" stroke="black" stroke-width="2" stroke-miterlimit="10" stroke-linecap="round" stroke-linejoin="round"/>
<path d="M362 279.52C355.03 270.97 348.53 276.58 348.53 284.41C340.56 276.59 331.69 283.38 332.58 291.65C322.54 286.92 320.17 302.92 328.15 307.47C321.65 311.73 330.51 327.09 345.28 317.34V326.2" stroke="black" stroke-width="2" stroke-miterlimit="10" stroke-linecap="round" stroke-linejoin="round"/>
<path d="M350.89 317.34V326.2" stroke="black" stroke-width="2" stroke-miterlimit="10" stroke-linecap="round" stroke-linejoin="round"/>
<path d="M506.5 356.92V367.55" stroke="black" stroke-width="2" stroke-miterlimit="10" stroke-linecap="round" stroke-linejoin="round"/>
<path d="M523.38 367.55H501.82" stroke="black" stroke-width="2" stroke-miterlimit="10" stroke-linecap="round" stroke-linejoin="round"/>
<path d="M502.16 354.7V366.8" stroke="black" stroke-width="2" stroke-miterlimit="10" stroke-linecap="round" stroke-linejoin="round"/>
<path d="M583.04 369.03C631.77 369.03 786.54 388.23 860.97 423.67" stroke="black" stroke-width="2" stroke-miterlimit="10" stroke-linecap="round" stroke-linejoin="round"/>
<path d="M321.35 187.75L311.82 244.02L302.96 250.44C302.96 250.44 323.34 254.43 337.07 250.44L329.98 244.02L321.35 187.75Z" stroke="black" stroke-width="2" stroke-miterlimit="10" stroke-linecap="round" stroke-linejoin="round"/>
<path d="M332.21 252.21V290.94" stroke="black" stroke-width="2" stroke-miterlimit="10" stroke-linecap="round" stroke-linejoin="round"/>
<path d="M309.87 251.46V319.11" stroke="black" stroke-width="2" stroke-miterlimit="10" stroke-linecap="round" stroke-linejoin="round"/>
<path d="M332.21 319.84H292.33V327.2H372.3" stroke="black" stroke-width="2" stroke-miterlimit="10" stroke-linecap="round" stroke-linejoin="round"/>
<path d="M309.87 276.8H290.78L285.69 253.99L280.37 276.8H222.33L210.59 291.87H309.87" stroke="black" stroke-width="2" stroke-miterlimit="10" stroke-linecap="round" stroke-linejoin="round"/>
<path d="M289.23 310.7L277.05 298.29H250.91L263.54 310.7H289.23Z" stroke="black" stroke-width="2" stroke-miterlimit="10" stroke-linecap="round" stroke-linejoin="round"/>
<path d="M250.91 298.29L240.05 310.7V327.2H286.13V310.7" stroke="black" stroke-width="2" stroke-miterlimit="10" stroke-linecap="round" stroke-linejoin="round"/>
<path d="M242.89 307.47C244.71 298.51 232.97 290.3 228.1 300.72C227.21 293.64 205.95 289.01 212.15 310.71C202.4 304.72 198.86 319.29 207.5 323.52C199.97 323.32 202.6 329.53 202.6 329.53" stroke="black" stroke-width="2" stroke-miterlimit="10" stroke-linecap="round" stroke-linejoin="round"/>
<path d="M206.68 309.41C205.27 301.84 193.53 302.72 194.2 315.57C186 309.15 178.92 316.18 184.23 323.52C175.15 321.11 172.71 328.64 178.03 330.86C178.03 330.86 63.21 327.39 0 333.3" stroke="black" stroke-width="2" stroke-miterlimit="10" stroke-linecap="round" stroke-linejoin="round"/>
</g>
<defs>
<clipPath id="clip0_20_210">
<rect width="1366" height="768" fill="white"/>
</clipPath>
</defs>
</svg>
