<svg width="1366" height="768" viewBox="0 0 1366 768" fill="none" xmlns="http://www.w3.org/2000/svg">
<path d="M390.46 628.49L387.74 423.15C387.35 412.28 397.45 414.22 397.45 423.15L399.78 630.05" stroke="black" stroke-width="2" stroke-miterlimit="10"/>
<path d="M131.81 630.04V419.93C131.81 410.61 141.91 412.16 141.91 419.93C141.91 427.7 141.91 630.04 141.91 630.04" stroke="black" stroke-width="2" stroke-miterlimit="10"/>
<path d="M141.9 419.93C167.14 425.37 328.32 435.62 387.74 421.14" stroke="black" stroke-width="2" stroke-miterlimit="10"/>
<path d="M141.9 485.1C167.14 490.54 328.32 500.79 387.74 486.31" stroke="black" stroke-width="2" stroke-miterlimit="10"/>
<path d="M146.9 468.2L147.45 460.94L166.15 439.44L173.24 439.98L171.46 463.49L176.65 463.88L176.16 470.41L170.97 470.02L170.29 479.07L162.75 478.5L163.43 469.45L146.9 468.2ZM164.78 449.33L153.65 462.14L163.92 462.92L164.95 449.35L164.78 449.33Z" fill="black"/>
<path d="M191.67 447.54L189.61 456.34L189.71 456.46C190.85 455.44 192.05 454.73 193.3 454.33C194.56 453.93 195.97 453.78 197.53 453.86C199.47 453.97 201.16 454.42 202.62 455.21C204.07 456 205.28 457.02 206.24 458.27C207.2 459.52 207.9 460.97 208.36 462.62C208.81 464.27 208.99 466.01 208.89 467.84C208.78 469.85 208.28 471.71 207.41 473.39C206.53 475.08 205.4 476.52 204 477.72C202.61 478.91 201.01 479.81 199.23 480.4C197.44 480.99 195.56 481.22 193.58 481.07C191.68 480.97 189.88 480.61 188.17 480.01C186.46 479.41 184.97 478.55 183.68 477.44C182.4 476.32 181.4 474.97 180.68 473.38C179.96 471.79 179.64 469.97 179.72 467.91L187.66 468.35C187.75 470.15 188.34 471.61 189.44 472.74C190.54 473.87 191.98 474.48 193.77 474.58C194.81 474.64 195.77 474.47 196.63 474.09C197.49 473.71 198.23 473.19 198.85 472.53C199.47 471.87 199.96 471.1 200.33 470.2C200.7 469.31 200.91 468.37 200.96 467.4C201.02 466.39 200.92 465.44 200.67 464.52C200.42 463.61 200.02 462.8 199.46 462.1C198.9 461.4 198.22 460.84 197.42 460.42C196.62 460 195.68 459.76 194.6 459.7C193.18 459.62 192.01 459.81 191.09 460.26C190.17 460.71 189.29 461.46 188.44 462.5L181.28 462.11L186.33 440.68L208.19 441.89L207.83 448.43L191.67 447.54Z" fill="black"/>
<path d="M237.73 447.92C239.75 447.99 241.63 448.38 243.35 449.08C245.07 449.79 246.55 450.81 247.78 452.14C249.01 453.47 249.95 455.12 250.6 457.08C251.25 459.04 251.53 461.33 251.44 463.93C251.36 466.22 250.99 468.32 250.34 470.23C249.69 472.14 248.74 473.78 247.51 475.15C246.27 476.52 244.76 477.57 242.95 478.32C241.15 479.07 239.05 479.4 236.64 479.31L223.1 478.84L224.18 447.44L237.73 447.92ZM236.37 473.5C237.37 473.53 238.34 473.41 239.29 473.12C240.24 472.83 241.09 472.32 241.85 471.6C242.61 470.88 243.23 469.92 243.71 468.74C244.19 467.55 244.46 466.1 244.52 464.37C244.57 462.79 244.47 461.35 244.21 460.07C243.95 458.78 243.48 457.67 242.81 456.74C242.14 455.81 241.23 455.08 240.09 454.56C238.95 454.04 237.53 453.74 235.83 453.69L230.9 453.52L230.22 473.31L236.37 473.5Z" fill="black"/>
<path d="M271.93 448.8L283.1 480.43L275.93 480.3L273.68 473.26L261.93 473.05L259.34 480L252.39 479.87L264.84 448.68L271.93 448.8ZM271.97 468.08L268.22 456.48H268.13L263.83 467.93L271.97 468.08Z" fill="black"/>
<path d="M304.44 480.16C302.95 480.79 301.44 481.11 299.91 481.12C297.5 481.13 295.34 480.71 293.42 479.88C291.5 479.05 289.87 477.9 288.55 476.44C287.23 474.98 286.21 473.26 285.5 471.28C284.79 469.3 284.43 467.17 284.43 464.88C284.42 462.53 284.77 460.35 285.47 458.34C286.17 456.33 287.18 454.57 288.49 453.07C289.81 451.57 291.42 450.39 293.34 449.54C295.26 448.68 297.42 448.25 299.83 448.25C301.44 448.25 303.01 448.48 304.52 448.96C306.03 449.44 307.4 450.15 308.62 451.08C309.84 452.02 310.85 453.17 311.64 454.55C312.44 455.93 312.92 457.51 313.1 459.3L306.5 459.32C306.08 457.56 305.29 456.24 304.11 455.37C302.93 454.49 301.51 454.06 299.84 454.06C298.28 454.06 296.96 454.37 295.88 454.97C294.8 455.57 293.92 456.38 293.25 457.4C292.58 458.41 292.09 459.57 291.78 460.86C291.47 462.15 291.32 463.49 291.33 464.86C291.33 466.18 291.49 467.46 291.8 468.71C292.11 469.96 292.6 471.08 293.28 472.07C293.96 473.07 294.84 473.86 295.93 474.46C297.02 475.06 298.34 475.36 299.89 475.35C302.18 475.35 303.94 474.76 305.19 473.6C306.43 472.44 307.16 470.76 307.36 468.56L300.41 468.58L300.4 463.43L313.6 463.4L313.64 480.38L309.24 480.39L308.53 476.83C307.3 478.42 305.94 479.53 304.44 480.16Z" fill="black"/>
<path d="M341.72 448.14L341.9 453.94L325.32 454.46L325.53 461.19L340.75 460.71L340.92 466.08L325.7 466.56L325.94 474.26L342.87 473.73L343.05 479.53L319.21 480.28L318.22 448.88L341.72 448.14Z" fill="black"/>
<path d="M352.01 447.49L366.8 467.43L366.89 467.42L365.17 446.41L371.62 445.88L374.18 477.19L367.3 477.75L352.56 457.85L352.47 457.86L354.19 478.82L347.74 479.35L345.18 448.04L352.01 447.49Z" fill="black"/>
<path d="M87.1198 459.83C88.2298 456.06 88.2298 452.74 83.7998 449.64C79.3698 446.54 73.8298 444.77 73.8298 444.77C73.8298 444.77 67.1798 445.88 63.6398 446.99C60.0998 448.1 58.7698 455.19 60.5398 458.73C62.3098 462.27 65.1898 464.71 65.1898 464.71" stroke="black" stroke-width="2" stroke-miterlimit="10" stroke-linecap="round" stroke-linejoin="round"/>
<path d="M86.4598 465.59C87.1198 459.83 84.9098 453.63 76.0498 453.85C67.1898 454.07 66.0798 457.62 65.6398 461.16C65.1998 464.7 65.9198 473.34 73.7498 476.44C81.5898 479.54 81.1398 477.77 83.3598 474.89C85.5798 472.01 86.4598 465.59 86.4598 465.59Z" stroke="black" stroke-width="2" stroke-miterlimit="10" stroke-linecap="round" stroke-linejoin="round"/>
<path d="M38.1599 537.58L49.0099 508.34L55.8799 491.5C58.3199 484.63 59.7299 479.7 66.7299 478.07H70.7199C71.8299 485.08 75.3699 485.08 78.0299 485.08C80.6899 485.08 83.3499 481.25 83.3499 478.07C83.3499 478.07 98.7999 484.23 108.16 490.84C111.93 493.5 115.69 495.27 115.91 501.92C116.13 508.57 114.58 524.96 114.58 524.96C114.58 524.96 124.33 534.26 120.56 537.59C116.79 540.91 109.48 528.29 109.48 528.29L105.05 531.61L107.49 523.86L109.26 508.12L94.8599 493.96L94.1999 527.85C94.1999 527.85 105.28 565.73 106.61 569.94C107.94 574.15 109.49 576.59 106.39 579.47C103.29 582.35 79.7999 597.17 79.7999 597.17C79.7999 597.17 81.7999 607.36 77.8199 608.69C75.0999 605.43 73.7499 592.3 73.7499 592.3L94.2099 573.69L81.3599 543.42C81.3599 543.42 77.1599 569.93 76.0499 577.02C74.9399 584.11 72.9399 594.74 70.5099 601.83C68.0699 608.92 65.5399 618.22 65.5399 618.22C65.5399 618.22 78.9299 622.21 77.5999 626.64C72.9499 630.05 56.5599 621.1 56.5599 621.1C56.5599 621.1 62.3199 590.31 63.6499 585.44C64.9799 580.57 63.8699 569.49 63.2099 561.52C62.5499 553.55 63.2099 536.71 64.5399 525.41L65.5499 493.51L45.2699 537.15C45.2699 537.15 47.0399 543.35 45.4899 546.45L43.0499 543.35C43.0499 543.35 34.1899 548.22 31.0899 546.23C27.9699 544.23 38.1599 537.58 38.1599 537.58Z" stroke="black" stroke-width="2" stroke-miterlimit="10" stroke-linecap="round" stroke-linejoin="round"/>
<path d="M94.21 527.83C87.34 531.37 76.73 532.26 65.53 527.83" stroke="black" stroke-width="2" stroke-miterlimit="10" stroke-linecap="round" stroke-linejoin="round"/>
<path d="M551.57 455.85C550.24 463.82 553.62 473.56 559.71 473.56C566.58 473.56 569.46 468.02 569.68 461.82" stroke="black" stroke-width="2" stroke-miterlimit="10" stroke-linecap="round" stroke-linejoin="round"/>
<path d="M569.68 454.73C566.36 458.27 559.71 458.5 557.5 454.73C553.29 458.5 549.64 455.51 551.29 452.29C544.87 452.29 550.19 440.77 556.61 444.76C558.16 438.11 567.91 438.87 568.79 443.92C574.55 439.95 582.52 447.64 576.1 454.73C580.75 458.27 579.64 466.69 569.68 464.7" stroke="black" stroke-width="2" stroke-miterlimit="10" stroke-linecap="round" stroke-linejoin="round"/>
<path d="M565.8 471.5C567.46 475.11 571.23 477.66 576.32 474.11C581.41 470.57 584.41 468.02 585.96 466.14C587.51 464.26 589.62 462.6 588.29 457.06C586.96 451.52 585.41 441.33 585.41 441.33C583.31 438.01 579.65 429.59 580.43 426.27L583.97 428.37C583.97 428.37 585.3 418.51 589.84 419.4C594.38 420.29 591.17 438.01 591.17 438.01C591.17 438.01 596.04 452.63 597.26 457.28C598.48 461.93 599.7 466.81 594.38 472.23C589.06 477.66 576.44 488.51 576.44 488.51L575.44 519.63C565.58 523.06 554.73 524.17 546.2 519.63C546.2 519.63 544.65 499.47 546.2 490.17C546.2 490.17 538.45 483.52 532.24 474.89C526.03 466.26 528.25 462.26 530.25 455.84C532.24 449.42 537.19 438.78 537.19 438.78C534.46 432.58 539.34 420.84 541.55 420.84C545.54 420.84 544.21 430.37 544.21 430.37C544.21 430.37 546.52 427.05 547.8 427.27C549.08 427.49 547.08 433.75 545.1 435.69C542.95 437.8 542.22 440.56 542.22 440.56C542.22 440.56 540.07 447.61 538.34 452.49C536.61 457.37 535.57 463.01 539.78 467.04C544.92 471.96 548.42 478.01 555.29 473.35" stroke="black" stroke-width="2" stroke-miterlimit="10" stroke-linecap="round" stroke-linejoin="round"/>
<path d="M559.82 522.64C558.93 513.22 559.6 478.22 561.04 473.57" stroke="black" stroke-width="2" stroke-miterlimit="10" stroke-linecap="round" stroke-linejoin="round"/>
<path d="M552.14 474.82C555.28 478.55 562.15 480.43 568.91 476" stroke="black" stroke-width="2" stroke-miterlimit="10" stroke-linecap="round" stroke-linejoin="round"/>
<path d="M546.2 519.64C546.2 519.64 538 540.68 536.23 546.89C534.46 553.09 529.36 565.39 537.56 569.82C545.76 574.25 546.53 570.6 548.86 566.05C551.19 561.51 557.06 543.23 558.83 543.12C560.6 543.01 564.81 559.18 566.47 563.94C568.13 568.7 571.34 572.25 576.55 570.59C581.76 568.93 582.31 566.93 581.42 560.29C580.53 553.64 577.32 527.06 575.44 519.64" stroke="black" stroke-width="2" stroke-miterlimit="10" stroke-linecap="round" stroke-linejoin="round"/>
<path d="M588.28 553.83C588.28 553.83 586.29 571.82 575.47 570.86" stroke="black" stroke-width="2" stroke-miterlimit="10" stroke-linecap="round" stroke-linejoin="round"/>
<path d="M579.98 549.1C583.19 544.34 585.08 542.79 587.84 543.23C590.14 544.38 592.24 547.71 594.37 554.75C596.24 560.91 596.62 563.62 593.82 564.5C592.05 565.05 587.91 557.08 587.91 557.08" stroke="black" stroke-width="2" stroke-miterlimit="10" stroke-linecap="round" stroke-linejoin="round"/>
<path d="M538.22 570.9C532.35 567.93 529.41 560.73 528.17 556.41C528.17 556.41 525.71 560.73 522.6 560.95C519.5 561.17 527.62 542.79 530.08 542.79C532.54 542.79 535.34 547.88 535.34 547.88" stroke="black" stroke-width="2" stroke-miterlimit="10" stroke-linecap="round" stroke-linejoin="round"/>
<path d="M453.34 489.4C452.01 495.49 452.79 504.24 460.21 504.8C467.63 505.36 469.18 501.03 470.4 496.27" stroke="black" stroke-width="2" stroke-miterlimit="10" stroke-linecap="round" stroke-linejoin="round"/>
<path d="M469.29 489.4C463.64 490.51 455.78 489.95 450.9 488.07C452.89 483.31 457.99 478.88 465.3 479.32" stroke="black" stroke-width="2" stroke-miterlimit="10" stroke-linecap="round" stroke-linejoin="round"/>
<path d="M467.4 480.43C469.39 475.34 481.69 473.01 483.35 482.2C485.01 491.39 484.35 497.93 488.78 500.59C482.8 502.92 471.72 501.81 470.39 491.95C469.06 482.09 470.61 483.42 467.4 483.31" stroke="black" stroke-width="2" stroke-miterlimit="10" stroke-linecap="round" stroke-linejoin="round"/>
<path d="M466.63 504.84C470.17 504.46 474.27 505.01 475.49 508.11C476.71 511.21 495.09 531.37 504.73 532.7C504.73 532.7 510.93 531.7 513.59 528.82C515.69 528.93 515.36 532.48 511.37 536.02C507.38 539.56 504.72 538.46 504.72 538.46C504.72 538.46 484.89 534.14 476.37 522.29C476.37 522.29 477.03 535.8 477.59 540.34C469.95 542.78 464.3 545.32 453.44 540.34C454.22 529.37 451.67 517.97 451.67 517.97C442.59 512.32 435.17 501.96 434.83 497.12C434.49 492.28 435.94 482.42 440.26 472.56C438.38 468.13 440.59 461.37 443.47 460.93C446.35 460.49 445.91 461.71 445.91 461.71C447.57 460.71 448.46 461.16 448.35 462.49C450.68 461.16 450.9 464.15 449.57 466.03C448.24 467.91 446.36 472.56 446.36 472.56C444.14 480.98 442.93 491.06 443.37 495.6C443.81 500.14 449.46 508.89 453.45 508.01L457.55 504.85" stroke="black" stroke-width="2" stroke-miterlimit="10" stroke-linecap="round" stroke-linejoin="round"/>
<path d="M477.59 540.35C477.59 540.35 482.57 563.39 483.35 572.36C484.13 581.33 483.9 586.09 480.47 592.08C477.04 598.07 472.05 607.25 463.08 613.01C463.08 613.01 459.05 615.08 458.32 611.9C459.65 599.27 468.84 585.54 468.84 585.54C466.85 579.12 464.74 562.83 465.07 556.41C464.07 566.6 458.77 581.92 454.55 587.31C453.1 589.16 452.64 590.86 448.13 591.41C437.28 592.74 434.03 589.41 431.07 587.64C432.18 585.76 430.52 578.89 430.52 578.89C441.82 580.66 448.68 577.67 448.68 577.67C447.24 569.7 448.57 546.32 453.44 540.34" stroke="black" stroke-width="2" stroke-miterlimit="10" stroke-linecap="round" stroke-linejoin="round"/>
<path d="M429.52 578.9C425.09 578.68 422.32 578.01 419.55 580.67C416.78 583.33 410.25 587.87 414.46 591.64C418.67 595.41 422.43 588.1 422.43 588.1L430.52 586.55" stroke="black" stroke-width="2" stroke-miterlimit="10" stroke-linecap="round" stroke-linejoin="round"/>
<path d="M457.12 612.68C455.33 617.22 455.22 621.76 456.66 625.2C458.1 628.63 459.32 630.74 461.98 629.74C464.64 628.74 462.87 625.64 461.98 621.77C461.09 617.89 462.72 615.46 464.97 612.69" stroke="black" stroke-width="2" stroke-miterlimit="10" stroke-linecap="round" stroke-linejoin="round"/>
</svg>
