<svg width="1366" height="768" viewBox="0 0 1366 768" fill="none" xmlns="http://www.w3.org/2000/svg">
<path d="M390.46 628.49L387.74 423.15C387.35 412.28 397.45 414.22 397.45 423.15L399.78 630.05" stroke="black" stroke-width="2" stroke-miterlimit="10"/>
<path d="M131.81 630.04V419.93C131.81 410.61 141.91 412.16 141.91 419.93C141.91 427.7 141.91 630.04 141.91 630.04" stroke="black" stroke-width="2" stroke-miterlimit="10"/>
<path d="M141.9 419.93C167.14 425.37 328.32 435.62 387.74 421.14" stroke="black" stroke-width="2" stroke-miterlimit="10"/>
<path d="M141.9 485.1C167.14 490.54 328.32 500.79 387.74 486.31" stroke="black" stroke-width="2" stroke-miterlimit="10"/>
<path d="M87.1198 459.83C88.2298 456.06 88.2298 452.74 83.7998 449.64C79.3698 446.54 73.8298 444.77 73.8298 444.77C73.8298 444.77 67.1798 445.88 63.6398 446.99C60.0998 448.1 58.7698 455.19 60.5398 458.73C62.3098 462.27 65.1898 464.71 65.1898 464.71" stroke="black" stroke-width="2" stroke-miterlimit="10" stroke-linecap="round" stroke-linejoin="round"/>
<path d="M86.4598 465.59C87.1198 459.83 84.9098 453.63 76.0498 453.85C67.1898 454.07 66.0798 457.62 65.6398 461.16C65.1998 464.7 65.9198 473.34 73.7498 476.44C81.5898 479.54 81.1398 477.77 83.3598 474.89C85.5798 472.01 86.4598 465.59 86.4598 465.59Z" stroke="black" stroke-width="2" stroke-miterlimit="10" stroke-linecap="round" stroke-linejoin="round"/>
<path d="M38.1599 537.58L49.0099 508.34L55.8799 491.5C58.3199 484.63 59.7299 479.7 66.7299 478.07H70.7199C71.8299 485.08 75.3699 485.08 78.0299 485.08C80.6899 485.08 83.3499 481.25 83.3499 478.07C83.3499 478.07 98.7999 484.23 108.16 490.84C111.93 493.5 115.69 495.27 115.91 501.92C116.13 508.57 114.58 524.96 114.58 524.96C114.58 524.96 124.33 534.26 120.56 537.59C116.79 540.91 109.48 528.29 109.48 528.29L105.05 531.61L107.49 523.86L109.26 508.12L94.8599 493.96L94.1999 527.85C94.1999 527.85 105.28 565.73 106.61 569.94C107.94 574.15 109.49 576.59 106.39 579.47C103.29 582.35 79.7999 597.17 79.7999 597.17C79.7999 597.17 81.7999 607.36 77.8199 608.69C75.0999 605.43 73.7499 592.3 73.7499 592.3L94.2099 573.69L81.3599 543.42C81.3599 543.42 77.1599 569.93 76.0499 577.02C74.9399 584.11 72.9399 594.74 70.5099 601.83C68.0699 608.92 65.5399 618.22 65.5399 618.22C65.5399 618.22 78.9299 622.21 77.5999 626.64C72.9499 630.05 56.5599 621.1 56.5599 621.1C56.5599 621.1 62.3199 590.31 63.6499 585.44C64.9799 580.57 63.8699 569.49 63.2099 561.52C62.5499 553.55 63.2099 536.71 64.5399 525.41L65.5499 493.51L45.2699 537.15C45.2699 537.15 47.0399 543.35 45.4899 546.45L43.0499 543.35C43.0499 543.35 34.1899 548.22 31.0899 546.23C27.9699 544.23 38.1599 537.58 38.1599 537.58Z" stroke="black" stroke-width="2" stroke-miterlimit="10" stroke-linecap="round" stroke-linejoin="round"/>
<path d="M94.2098 527.83C87.3398 531.37 76.7298 532.26 65.5298 527.83" stroke="black" stroke-width="2" stroke-miterlimit="10" stroke-linecap="round" stroke-linejoin="round"/>
<path d="M551.57 455.85C550.24 463.82 553.62 473.56 559.71 473.56C566.58 473.56 569.46 468.02 569.68 461.82" stroke="black" stroke-width="2" stroke-miterlimit="10" stroke-linecap="round" stroke-linejoin="round"/>
<path d="M569.68 454.73C566.36 458.27 559.71 458.5 557.5 454.73C553.29 458.5 549.64 455.51 551.29 452.29C544.87 452.29 550.19 440.77 556.61 444.76C558.16 438.11 567.91 438.87 568.79 443.92C574.55 439.95 582.52 447.64 576.1 454.73C580.75 458.27 579.64 466.69 569.68 464.7" stroke="black" stroke-width="2" stroke-miterlimit="10" stroke-linecap="round" stroke-linejoin="round"/>
<path d="M565.8 471.5C567.46 475.11 571.23 477.66 576.32 474.11C581.41 470.57 584.41 468.02 585.96 466.14C587.51 464.26 589.62 462.6 588.29 457.06C586.96 451.52 585.41 441.33 585.41 441.33C583.31 438.01 579.65 429.59 580.43 426.27L583.97 428.37C583.97 428.37 585.3 418.51 589.84 419.4C594.38 420.29 591.17 438.01 591.17 438.01C591.17 438.01 596.04 452.63 597.26 457.28C598.48 461.93 599.7 466.81 594.38 472.23C589.06 477.66 576.44 488.51 576.44 488.51L575.44 519.63C565.58 523.06 554.73 524.17 546.2 519.63C546.2 519.63 544.65 499.47 546.2 490.17C546.2 490.17 538.45 483.52 532.24 474.89C526.03 466.26 528.25 462.26 530.25 455.84C532.24 449.42 537.19 438.78 537.19 438.78C534.46 432.58 539.34 420.84 541.55 420.84C545.54 420.84 544.21 430.37 544.21 430.37C544.21 430.37 546.52 427.05 547.8 427.27C549.08 427.49 547.08 433.75 545.1 435.69C542.95 437.8 542.22 440.56 542.22 440.56C542.22 440.56 540.07 447.61 538.34 452.49C536.61 457.37 535.57 463.01 539.78 467.04C544.92 471.96 548.42 478.01 555.29 473.35" stroke="black" stroke-width="2" stroke-miterlimit="10" stroke-linecap="round" stroke-linejoin="round"/>
<path d="M559.82 522.64C558.93 513.22 559.6 478.22 561.04 473.57" stroke="black" stroke-width="2" stroke-miterlimit="10" stroke-linecap="round" stroke-linejoin="round"/>
<path d="M552.14 474.82C555.28 478.55 562.15 480.43 568.91 476" stroke="black" stroke-width="2" stroke-miterlimit="10" stroke-linecap="round" stroke-linejoin="round"/>
<path d="M546.2 519.64C546.2 519.64 538 540.68 536.23 546.89C534.46 553.09 529.36 565.39 537.56 569.82C545.76 574.25 546.53 570.6 548.86 566.05C551.19 561.51 557.06 543.23 558.83 543.12C560.6 543.01 564.81 559.18 566.47 563.94C568.13 568.7 571.34 572.25 576.55 570.59C581.76 568.93 582.31 566.93 581.42 560.29C580.53 553.64 577.32 527.06 575.44 519.64" stroke="black" stroke-width="2" stroke-miterlimit="10" stroke-linecap="round" stroke-linejoin="round"/>
<path d="M588.28 553.83C588.28 553.83 586.29 571.82 575.47 570.86" stroke="black" stroke-width="2" stroke-miterlimit="10" stroke-linecap="round" stroke-linejoin="round"/>
<path d="M579.98 549.1C583.19 544.34 585.08 542.79 587.84 543.23C590.14 544.38 592.24 547.71 594.37 554.75C596.24 560.91 596.62 563.62 593.82 564.5C592.05 565.05 587.91 557.08 587.91 557.08" stroke="black" stroke-width="2" stroke-miterlimit="10" stroke-linecap="round" stroke-linejoin="round"/>
<path d="M538.22 570.9C532.35 567.93 529.41 560.73 528.17 556.41C528.17 556.41 525.71 560.73 522.6 560.95C519.5 561.17 527.62 542.79 530.08 542.79C532.54 542.79 535.34 547.88 535.34 547.88" stroke="black" stroke-width="2" stroke-miterlimit="10" stroke-linecap="round" stroke-linejoin="round"/>
<path d="M453.34 489.4C452.01 495.49 452.79 504.24 460.21 504.8C467.63 505.36 469.18 501.03 470.4 496.27" stroke="black" stroke-width="2" stroke-miterlimit="10" stroke-linecap="round" stroke-linejoin="round"/>
<path d="M469.29 489.4C463.64 490.51 455.78 489.95 450.9 488.07C452.89 483.31 457.99 478.88 465.3 479.32" stroke="black" stroke-width="2" stroke-miterlimit="10" stroke-linecap="round" stroke-linejoin="round"/>
<path d="M467.4 480.43C469.39 475.34 481.69 473.01 483.35 482.2C485.01 491.39 484.35 497.93 488.78 500.59C482.8 502.92 471.72 501.81 470.39 491.95C469.06 482.09 470.61 483.42 467.4 483.31" stroke="black" stroke-width="2" stroke-miterlimit="10" stroke-linecap="round" stroke-linejoin="round"/>
<path d="M466.63 504.84C470.17 504.46 474.27 505.01 475.49 508.11C476.71 511.21 495.09 531.37 504.73 532.7C504.73 532.7 510.93 531.7 513.59 528.82C515.69 528.93 515.36 532.48 511.37 536.02C507.38 539.56 504.72 538.46 504.72 538.46C504.72 538.46 484.89 534.14 476.37 522.29C476.37 522.29 477.03 535.8 477.59 540.34C469.95 542.78 464.3 545.32 453.44 540.34C454.22 529.37 451.67 517.97 451.67 517.97C442.59 512.32 435.17 501.96 434.83 497.12C434.49 492.28 435.94 482.42 440.26 472.56C438.38 468.13 440.59 461.37 443.47 460.93C446.35 460.49 445.91 461.71 445.91 461.71C447.57 460.71 448.46 461.16 448.35 462.49C450.68 461.16 450.9 464.15 449.57 466.03C448.24 467.91 446.36 472.56 446.36 472.56C444.14 480.98 442.93 491.06 443.37 495.6C443.81 500.14 449.46 508.89 453.45 508.01L457.55 504.85" stroke="black" stroke-width="2" stroke-miterlimit="10" stroke-linecap="round" stroke-linejoin="round"/>
<path d="M477.59 540.35C477.59 540.35 482.57 563.39 483.35 572.36C484.13 581.33 483.9 586.09 480.47 592.08C477.04 598.07 472.05 607.25 463.08 613.01C463.08 613.01 459.05 615.08 458.32 611.9C459.65 599.27 468.84 585.54 468.84 585.54C466.85 579.12 464.74 562.83 465.07 556.41C464.07 566.6 458.77 581.92 454.55 587.31C453.1 589.16 452.64 590.86 448.13 591.41C437.28 592.74 434.03 589.41 431.07 587.64C432.18 585.76 430.52 578.89 430.52 578.89C441.82 580.66 448.68 577.67 448.68 577.67C447.24 569.7 448.57 546.32 453.44 540.34" stroke="black" stroke-width="2" stroke-miterlimit="10" stroke-linecap="round" stroke-linejoin="round"/>
<path d="M429.52 578.9C425.09 578.68 422.32 578.01 419.55 580.67C416.78 583.33 410.25 587.87 414.46 591.64C418.67 595.41 422.43 588.1 422.43 588.1L430.52 586.55" stroke="black" stroke-width="2" stroke-miterlimit="10" stroke-linecap="round" stroke-linejoin="round"/>
<path d="M457.12 612.68C455.33 617.22 455.22 621.76 456.66 625.2C458.1 628.63 459.32 630.74 461.98 629.74C464.64 628.74 462.87 625.64 461.98 621.77C461.09 617.89 462.72 615.46 464.97 612.69" stroke="black" stroke-width="2" stroke-miterlimit="10" stroke-linecap="round" stroke-linejoin="round"/>
<path d="M168.476 443.899L174.895 444.523L181.453 466.339L181.792 466.372L192.426 446.226L198.844 446.849L196.032 475.804L190.999 475.315L192.931 455.423L192.662 455.397L182.736 474.427L178.976 474.061L172.902 453.434L172.633 453.408L170.697 473.343L165.663 472.854L168.476 443.899Z" fill="black"/>
<path d="M202.712 476.257L204.623 447.229L223.503 448.472L223.213 452.88L209.592 451.983L209.073 459.864L221.716 460.696L221.426 465.104L208.783 464.272L208.261 472.195L221.996 473.099L221.705 477.507L202.712 476.257Z" fill="black"/>
<path d="M228.491 477.889L229.67 448.822L240.57 449.264C242.803 449.355 244.661 449.818 246.144 450.656C247.635 451.493 248.741 452.628 249.46 454.06C250.189 455.483 250.516 457.121 250.441 458.976C250.365 460.84 249.902 462.442 249.052 463.781C248.211 465.112 247.009 466.12 245.446 466.805C243.883 467.481 241.985 467.774 239.752 467.683L231.989 467.369L232.166 462.997L239.22 463.283C240.526 463.336 241.602 463.2 242.449 462.874C243.297 462.539 243.934 462.029 244.36 461.345C244.795 460.652 245.034 459.79 245.076 458.758C245.118 457.727 244.95 456.839 244.573 456.094C244.196 455.339 243.598 454.756 242.781 454.344C241.964 453.922 240.898 453.684 239.583 453.631L234.757 453.435L233.757 478.102L228.491 477.889ZM244.042 465.327L250.703 478.79L244.827 478.551L238.294 465.094L244.042 465.327Z" fill="black"/>
<path d="M280.662 459.92L275.349 459.865C275.207 458.992 274.936 458.217 274.535 457.541C274.135 456.855 273.635 456.272 273.034 455.792C272.433 455.312 271.745 454.95 270.971 454.705C270.207 454.451 269.379 454.319 268.489 454.31C266.908 454.294 265.502 454.677 264.272 455.459C263.043 456.233 262.074 457.378 261.367 458.895C260.66 460.403 260.295 462.251 260.273 464.438C260.249 466.663 260.575 468.542 261.251 470.074C261.936 471.596 262.88 472.752 264.084 473.541C265.298 474.321 266.691 474.719 268.262 474.735C269.134 474.744 269.949 474.639 270.709 474.42C271.478 474.191 272.169 473.852 272.779 473.404C273.4 472.956 273.921 472.403 274.345 471.744C274.778 471.086 275.079 470.331 275.249 469.481L280.561 469.564C280.348 470.945 279.904 472.238 279.228 473.443C278.562 474.648 277.694 475.709 276.624 476.626C275.554 477.534 274.306 478.24 272.88 478.746C271.454 479.243 269.875 479.482 268.142 479.464C265.585 479.438 263.31 478.822 261.314 477.617C259.319 476.413 257.756 474.687 256.624 472.44C255.492 470.194 254.942 467.508 254.975 464.383C255.007 461.249 255.617 458.575 256.805 456.362C257.993 454.139 259.597 452.447 261.617 451.284C263.637 450.121 265.915 449.553 268.453 449.579C270.072 449.596 271.576 449.839 272.963 450.308C274.35 450.777 275.584 451.458 276.663 452.35C277.743 453.232 278.627 454.311 279.315 455.588C280.012 456.854 280.461 458.299 280.662 459.92Z" fill="black"/>
<path d="M290.96 449.892L291.408 478.979L286.139 479.06L285.691 449.973L290.96 449.892Z" fill="black"/>
<path d="M306.888 478.619L305.127 449.581L316.016 448.921C318.246 448.785 320.141 449.059 321.701 449.743C323.27 450.425 324.484 451.443 325.344 452.795C326.213 454.137 326.704 455.734 326.816 457.586C326.929 459.449 326.63 461.089 325.919 462.508C325.217 463.917 324.123 465.041 322.637 465.88C321.151 466.711 319.292 467.193 317.061 467.329L309.306 467.799L309.041 463.432L316.087 463.005C317.392 462.926 318.449 462.681 319.259 462.271C320.069 461.852 320.651 461.281 321.005 460.557C321.369 459.824 321.519 458.942 321.456 457.912C321.394 456.881 321.137 456.015 320.687 455.311C320.236 454.599 319.583 454.079 318.728 453.751C317.873 453.414 316.788 453.285 315.474 453.365L310.653 453.658L312.149 478.3L306.888 478.619ZM321.091 464.551L329.078 477.273L323.208 477.629L315.349 464.9L321.091 464.551Z" fill="black"/>
<path d="M336.968 447.201L339.904 476.144L334.661 476.675L331.725 447.733L336.968 447.201Z" fill="black"/>
<path d="M346.934 475.522L342.358 446.793L347.563 445.965L349.665 459.165L350.016 459.109L359.121 444.124L365.476 443.112L356.419 457.773L370.15 471.825L363.893 472.821L353.361 461.87L350.775 466.136L352.138 474.693L346.934 475.522Z" fill="black"/>
</svg>
