<svg width="1366" height="768" viewBox="0 0 1366 768" fill="none" xmlns="http://www.w3.org/2000/svg">
<path d="M131.81 630.04V419.93C131.81 410.61 141.91 412.16 141.91 419.93C141.91 427.7 141.91 630.04 141.91 630.04" fill="white"/>
<path d="M131.81 630.04V419.93C131.81 410.61 141.91 412.16 141.91 419.93C141.91 427.7 141.91 630.04 141.91 630.04" stroke="black" stroke-width="2" stroke-miterlimit="10"/>
<path d="M87.1198 459.83C88.2298 456.06 88.2298 452.74 83.7998 449.64C79.3698 446.54 73.8298 444.77 73.8298 444.77C73.8298 444.77 67.1798 445.88 63.6398 446.99C60.0998 448.1 58.7698 455.19 60.5398 458.73C62.3098 462.27 65.1898 464.71 65.1898 464.71" fill="white"/>
<path d="M87.1198 459.83C88.2298 456.06 88.2298 452.74 83.7998 449.64C79.3698 446.54 73.8298 444.77 73.8298 444.77C73.8298 444.77 67.1798 445.88 63.6398 446.99C60.0998 448.1 58.7698 455.19 60.5398 458.73C62.3098 462.27 65.1898 464.71 65.1898 464.71" stroke="black" stroke-width="2" stroke-miterlimit="10" stroke-linecap="round" stroke-linejoin="round"/>
<path d="M86.4598 465.59C87.1198 459.83 84.9098 453.63 76.0498 453.85C67.1898 454.07 66.0798 457.62 65.6398 461.16C65.1998 464.7 65.9198 473.34 73.7498 476.44C81.5898 479.54 81.1398 477.77 83.3598 474.89C85.5798 472.01 86.4598 465.59 86.4598 465.59Z" fill="white" stroke="black" stroke-width="2" stroke-miterlimit="10" stroke-linecap="round" stroke-linejoin="round"/>
<path d="M38.1599 537.58L49.0099 508.34L55.8799 491.5C58.3199 484.63 59.7299 479.7 66.7299 478.07H70.7199C71.8299 485.08 75.3699 485.08 78.0299 485.08C80.6899 485.08 83.3499 481.25 83.3499 478.07C83.3499 478.07 98.7999 484.23 108.16 490.84C111.93 493.5 115.69 495.27 115.91 501.92C116.13 508.57 114.58 524.96 114.58 524.96C114.58 524.96 124.33 534.26 120.56 537.59C116.79 540.91 109.48 528.29 109.48 528.29L105.05 531.61L107.49 523.86L109.26 508.12L94.8599 493.96L94.1999 527.85C94.1999 527.85 105.28 565.73 106.61 569.94C107.94 574.15 109.49 576.59 106.39 579.47C103.29 582.35 79.7999 597.17 79.7999 597.17C79.7999 597.17 81.7999 607.36 77.8199 608.69C75.0999 605.43 73.7499 592.3 73.7499 592.3L94.2099 573.69L81.3599 543.42C81.3599 543.42 77.1599 569.93 76.0499 577.02C74.9399 584.11 72.9399 594.74 70.5099 601.83C68.0699 608.92 65.5399 618.22 65.5399 618.22C65.5399 618.22 78.9299 622.21 77.5999 626.64C72.9499 630.05 56.5599 621.1 56.5599 621.1C56.5599 621.1 62.3199 590.31 63.6499 585.44C64.9799 580.57 63.8699 569.49 63.2099 561.52C62.5499 553.55 63.2099 536.71 64.5399 525.41L65.5499 493.51L45.2699 537.15C45.2699 537.15 47.0399 543.35 45.4899 546.45L43.0499 543.35C43.0499 543.35 34.1899 548.22 31.0899 546.23C27.9699 544.23 38.1599 537.58 38.1599 537.58Z" fill="white" stroke="black" stroke-width="2" stroke-miterlimit="10" stroke-linecap="round" stroke-linejoin="round"/>
<path d="M94.21 527.83C87.34 531.37 76.73 532.26 65.53 527.83Z" fill="white"/>
<path d="M94.21 527.83C87.34 531.37 76.73 532.26 65.53 527.83" stroke="black" stroke-width="2" stroke-miterlimit="10" stroke-linecap="round" stroke-linejoin="round"/>
</svg>
