<svg width="1366" height="768" viewBox="0 0 1366 768" fill="none" xmlns="http://www.w3.org/2000/svg">
<g>
  <path d="M1369.32 630.12C1365.57 630.09 1361.82 630.02 1358.07 630.02C1343.29 630.01 1328.51 630.02 1313.72 630.04C1307.11 630.05 1300.49 630.11 1293.88 630.1C1289.36 630.09 1284.84 629.94 1280.33 629.95C1272.06 629.96 1263.79 630.07 1255.52 630.07C1246.26 630.07 1236.99 630 1227.73 629.98C1222.88 629.97 1218.04 630 1213.19 629.99C1206.14 629.98 1199.1 629.94 1192.05 629.95C1184.11 629.96 1176.17 630.04 1168.23 630.03C1159.3 630.02 1150.37 629.91 1141.44 629.9C1135.38 629.89 1129.32 630.1 1123.26 629.98C1116.32 629.85 1109.39 629.99 1102.46 629.88C1096.4 629.78 1090.33 629.96 1084.26 629.97C1080.18 629.97 1076.09 629.87 1072.01 629.86C1068.16 629.85 1064.31 629.88 1060.46 629.9C1056.17 629.92 1051.88 629.97 1047.59 629.95C1043.75 629.94 1039.91 629.83 1036.07 629.81C1031.89 629.8 1027.71 629.87 1023.54 629.86C1017.37 629.84 1011.2 629.74 1005.03 629.76C999.64 629.78 994.26 629.99 988.87 629.98C986.13 629.97 983.39 629.71 980.63 629.88C979.11 629.97 977.58 629.98 976.05 629.97C971.44 629.93 966.83 629.82 962.22 629.82C955.5 629.82 948.79 629.93 942.07 629.95C937.01 629.96 931.94 629.89 926.88 629.89C920.82 629.89 914.75 629.96 908.69 629.94C903.19 629.92 897.69 629.77 892.19 629.74C889.55 629.73 886.91 629.91 884.27 629.92C879.76 629.93 875.24 629.84 870.73 629.83C866.55 629.82 862.36 629.88 858.18 629.86C852.79 629.83 847.41 629.76 842.02 629.7C841.36 629.69 840.69 629.67 840.03 629.68C833.87 629.74 827.7 630 821.55 629.79C817.83 629.66 814.12 629.91 810.38 629.71C804.78 629.41 799.15 629.72 793.53 629.74C789.9 629.75 786.28 629.69 782.65 629.69C775.39 629.7 768.14 629.72 760.88 629.75C752.96 629.78 745.04 629.86 737.12 629.87C729.63 629.88 722.15 629.83 714.66 629.79C711.58 629.77 708.51 629.7 705.43 629.68C702.46 629.66 699.49 629.63 696.52 629.67C692.13 629.73 687.74 629.92 683.36 629.9C677.96 629.88 672.57 629.66 667.17 629.61C663.53 629.58 659.9 629.7 656.26 629.72C652.95 629.74 649.65 629.68 646.34 629.7C638.64 629.74 630.93 629.85 623.23 629.85C618.38 629.85 613.54 629.66 608.69 629.64C600.2 629.61 591.72 629.63 583.23 629.65C575.64 629.67 568.04 629.76 560.45 629.75C554.5 629.75 548.55 629.62 542.6 629.6C536.42 629.57 530.24 629.61 524.06 629.61C518.99 629.61 513.92 629.59 508.85 629.6C499.59 629.62 490.32 629.68 481.06 629.68C472.24 629.68 463.42 629.61 454.6 629.6C446.76 629.59 438.93 629.65 431.09 629.65C420.94 629.65 410.78 629.63 400.63 629.63C390.7 629.63 380.76 629.63 370.83 629.62C361.78 629.61 352.73 629.59 343.67 629.58C329.32 629.57 314.96 629.58 300.61 629.57C289.35 629.56 278.09 629.51 266.83 629.51C254.69 629.52 242.55 629.59 230.4 629.59C215.17 629.6 199.93 629.57 184.7 629.56C173.33 629.55 161.96 629.54 150.58 629.55C138.11 629.56 125.63 629.63 113.16 629.63C100.24 629.64 87.32 629.6 74.4 629.59C58.06 629.58 41.72 629.59 25.38 629.59C18.1 629.59 10.81 629.59 3.53005 629.58C2.67005 629.58 1.80005 629.47 0.800049 629.41C0.800049 628.76 0.800049 628.27 0.800049 627.61C1.70005 627.54 2.56005 627.41 3.42005 627.4C11.57 627.33 19.73 627.26 27.88 627.25C31.29 627.25 34.71 627.45 38.12 627.47C41.87 627.49 45.6101 627.38 49.3601 627.37C58.0701 627.33 66.78 627.28 75.48 627.3C87.49 627.32 99.5 627.45 111.51 627.45C123.09 627.46 134.66 627.35 146.24 627.32C150.98 627.31 155.72 627.41 160.47 627.41C169.4 627.4 178.33 627.33 187.26 627.34C193.1 627.35 198.94 627.48 204.78 627.5C210.18 627.52 215.58 627.43 220.98 627.42C228.04 627.41 235.1 627.42 242.16 627.43C249.44 627.44 256.71 627.46 263.99 627.47C272.15 627.48 280.31 627.49 288.47 627.49C296.19 627.49 303.91 627.47 311.63 627.46C319.9 627.46 328.17 627.47 336.44 627.47C345.48 627.47 354.52 627.44 363.56 627.45C371.61 627.46 379.66 627.53 387.71 627.54C397.42 627.55 407.12 627.51 416.83 627.51C420.8 627.51 424.77 627.6 428.73 627.63C430.93 627.64 433.14 627.62 435.34 627.6C441.63 627.56 447.92 627.48 454.21 627.48C461.05 627.48 467.9 627.54 474.74 627.57C478.27 627.59 481.8 627.6 485.32 627.6C494.8 627.6 504.29 627.6 513.77 627.59C522.6 627.58 531.43 627.55 540.25 627.56C551.49 627.57 562.73 627.62 573.97 627.64C583.02 627.65 592.07 627.64 601.12 627.64C608.95 627.64 616.77 627.65 624.6 627.65C634.96 627.65 645.33 627.63 655.69 627.63C662.96 627.63 670.23 627.63 677.49 627.62C686.3 627.61 695.12 627.55 703.93 627.56C712.2 627.57 720.46 627.68 728.73 627.68C734.67 627.68 740.61 627.53 746.56 627.52C750.63 627.51 754.7 627.66 758.78 627.69C763.63 627.73 768.48 627.64 773.33 627.77C777.18 627.87 781.04 627.83 784.86 627.73C793.11 627.52 801.36 627.82 809.61 627.63C815.55 627.49 821.5 627.57 827.45 627.59C835.04 627.61 842.63 627.67 850.23 627.68C856.18 627.69 862.13 627.62 868.07 627.64C871.48 627.65 874.89 627.86 878.3 627.85C881.7 627.84 885.1 627.63 888.51 627.59C891.15 627.56 893.8 627.71 896.44 627.72C901.39 627.74 906.33 627.74 911.28 627.72C918.87 627.7 926.46 627.65 934.04 627.63C936.57 627.62 939.11 627.72 941.64 627.72C945.05 627.72 948.47 627.66 951.88 627.64C952.65 627.63 953.42 627.64 954.19 627.66C959.02 627.73 963.84 627.86 968.67 627.87C974.83 627.88 980.99 627.77 987.15 627.74C993.42 627.7 999.69 627.56 1005.95 627.7C1010.12 627.79 1014.3 627.5 1018.45 627.7C1022.73 627.91 1027 627.66 1031.27 627.73C1034.46 627.78 1037.65 627.93 1040.84 627.94C1045.22 627.95 1049.61 627.84 1053.99 627.84C1057.18 627.84 1060.38 628.08 1063.57 627.93C1065.99 627.82 1068.39 627.9 1070.81 627.92C1075.76 627.95 1080.72 627.93 1085.67 627.89C1090.51 627.86 1095.36 627.75 1100.2 627.73C1105.69 627.72 1111.19 627.85 1116.68 627.77C1121.95 627.7 1127.22 628.14 1132.5 627.79C1134.47 627.66 1136.46 627.94 1138.44 627.93C1143.59 627.89 1148.74 627.73 1153.89 627.75C1159.71 627.77 1165.53 627.98 1171.35 628.01C1172.88 628.02 1174.4 627.86 1175.94 627.88C1182.2 627.95 1188.46 627.8 1194.72 627.78C1199.01 627.77 1203.3 627.86 1207.59 627.87C1211.54 627.88 1215.49 627.83 1219.45 627.85C1224.4 627.88 1229.35 627.95 1234.3 628C1236.39 628.02 1238.48 628.06 1240.58 628.03C1245.64 627.96 1250.71 627.64 1255.77 627.8C1262.37 628.01 1268.97 627.92 1275.57 627.97C1283.05 628.02 1290.53 628 1298 627.98C1303.82 627.97 1309.65 627.88 1315.47 627.9C1328.26 627.94 1341.04 628.03 1353.83 628.07C1358.45 628.08 1363.07 627.99 1367.7 627.96C1368.24 627.96 1368.79 628.09 1369.33 628.15C1369.32 628.8 1369.32 629.46 1369.32 630.12Z" fill="black"/>
</g>
</svg>
