<svg width="1366" height="768" viewBox="0 0 1366 768" fill="none" xmlns="http://www.w3.org/2000/svg">
<path d="M514.236 459.12C516.856 466.64 521.756 470.5 526.986 469.2C532.216 467.9 532.576 458.8 528.876 452.01" stroke="black" stroke-width="2" stroke-miterlimit="10" stroke-linecap="round" stroke-linejoin="round"/>
<path d="M518.206 466.13V473.44C521.796 476.68 528.576 473.44 528.576 473.44V468.47" stroke="black" stroke-width="2" stroke-miterlimit="10" stroke-linecap="round" stroke-linejoin="round"/>
<path d="M528.576 472.05C528.576 472.05 531.816 472.51 535.206 473.13C538.596 473.75 541.066 475.13 543.066 479.45C545.066 483.77 549.696 493.33 549.696 493.33C546.616 494.1 541.066 499.5 541.066 499.5L537.516 495.61" stroke="black" stroke-width="2" stroke-miterlimit="10" stroke-linecap="round" stroke-linejoin="round"/>
<path d="M517.166 472.05C511.466 472.2 508.686 474.21 504.986 478.68C501.286 483.15 495.116 492.86 492.496 499.49L501.746 505.81" stroke="black" stroke-width="2" stroke-miterlimit="10" stroke-linecap="round" stroke-linejoin="round"/>
<path d="M516.557 452C517.637 454.93 516.307 463.56 516.307 463.56C505.457 460.72 508.547 447.53 514.247 449.23C512.397 442.14 519.647 440.9 524.887 442.6C530.127 444.3 531.207 452.93 533.517 453.85L530.317 455.33" stroke="black" stroke-width="2" stroke-miterlimit="10" stroke-linecap="round" stroke-linejoin="round"/>
<path d="M517.166 449.38C521.176 452.16 527.036 451.69 533.506 450" stroke="black" stroke-width="2" stroke-miterlimit="10" stroke-linecap="round" stroke-linejoin="round"/>
<path d="M612.296 468C613.066 464.96 620.926 464.19 620.926 464.19L627.406 478.68L618.776 482.38L612.296 468Z" stroke="black" stroke-width="2" stroke-miterlimit="10" stroke-linecap="round" stroke-linejoin="round"/>
<path d="M612.296 455.24L625.706 485.77" stroke="black" stroke-width="2" stroke-miterlimit="10" stroke-linecap="round" stroke-linejoin="round"/>
<path d="M634.956 507.2C640.406 505.19 636.186 497.02 634.956 493.02C633.726 489.01 630.946 483.46 625.706 485.77C621.406 487.67 622.656 493.35 624.666 498.26C626.666 503.15 629.096 509.36 634.956 507.2Z" stroke="black" stroke-width="2" stroke-miterlimit="10" stroke-linecap="round" stroke-linejoin="round"/>
<path d="M549.696 493.32C551.086 497.33 554.556 501.84 554.556 501.84" stroke="black" stroke-width="2" stroke-miterlimit="10" stroke-linecap="round" stroke-linejoin="round"/>
<path d="M530.206 513.15L570.736 494.33" stroke="black" stroke-width="2" stroke-miterlimit="10" stroke-linecap="round" stroke-linejoin="round"/>
<path d="M522.206 521.39C509.016 527.54 500.046 531.71 500.046 531.71C494.806 533.87 494.956 529.53 497.886 528.16L513.366 520.97" stroke="black" stroke-width="2" stroke-miterlimit="10" stroke-linecap="round" stroke-linejoin="round"/>
<path d="M571.086 498.62C558.606 504.43 545.776 510.41 534.506 515.66" stroke="black" stroke-width="2" stroke-miterlimit="10" stroke-linecap="round" stroke-linejoin="round"/>
<path d="M577.536 491.16L626.316 468.5C629.556 466.65 631.866 470.35 628.166 472.05C626.626 472.75 604.286 483.16 578.676 495.09" stroke="black" stroke-width="2" stroke-miterlimit="10" stroke-linecap="round" stroke-linejoin="round"/>
<path d="M535.916 515.22C536.116 521.65 536.756 527.79 538.136 533.57C529.036 535.57 521.946 537.89 506.996 535.42C506.226 527.71 507.456 503.2 508.846 496.57C503.916 500.42 498.826 510.45 498.366 513.84C505.616 515.07 512.706 516.46 521.956 516C523.806 513.07 527.796 511.37 531.356 512.3C529.056 514.15 527.666 514.61 528.586 516C529.506 517.39 535.086 513.67 535.916 515.22ZM535.916 515.22C536.746 516.76 531.876 524.62 518.206 520.46C510.846 521.39 503.146 521.69 496.666 521.39C490.186 521.08 487.566 518.46 488.186 513.68C488.806 508.9 491.046 502 493.486 497.21" stroke="black" stroke-width="2" stroke-miterlimit="10" stroke-linecap="round" stroke-linejoin="round"/>
<path d="M537.207 490.55C536.477 494.52 535.797 502.1 535.817 510.55" stroke="black" stroke-width="2" stroke-miterlimit="10" stroke-linecap="round" stroke-linejoin="round"/>
<path d="M548.336 509.54C549.516 511.11 550.596 512.52 551.396 513.51C554.016 516.75 556.636 518.28 561.416 513.51C566.196 508.74 572.826 501.84 572.826 501.84C576.986 500.72 578.686 496.43 578.686 496.43L576.836 490.55C576.836 490.55 571.136 489.16 570.206 493.33C570.206 493.33 572.206 496.41 571.126 498.73" stroke="black" stroke-width="2" stroke-miterlimit="10" stroke-linecap="round" stroke-linejoin="round"/>
<path d="M541.066 499.49C541.996 500.85 543.726 503.28 545.576 505.81" stroke="black" stroke-width="2" stroke-miterlimit="10" stroke-linecap="round" stroke-linejoin="round"/>
<path d="M613.417 457.8C606.127 455.4 599.187 461.26 595.487 472.05C591.787 482.84 587.167 486.7 582.347 488.93" stroke="black" stroke-width="2" stroke-miterlimit="10" stroke-linecap="round" stroke-linejoin="round"/>
<path d="M538.136 533.56L547.386 577.35L552.796 617.13C549.546 618.52 543.326 618.36 543.326 618.36C543.326 618.36 536.136 595.89 535.826 582.23C530.276 572.11 524.416 562.4 522.796 554.69C522.566 564.71 516.466 581.98 513.116 586.76L509.766 619.29C506.836 620.06 498.816 619.29 498.816 619.29C498.816 619.29 500.666 587.68 502.206 578.43C503.746 569.18 503.136 552.22 504.826 545.75C506.526 539.27 506.986 535.42 506.986 535.42" stroke="black" stroke-width="2" stroke-miterlimit="10" stroke-linecap="round" stroke-linejoin="round"/>
<path d="M509.767 619.28C509.767 619.28 511.157 624.68 509.767 626.68C508.377 628.68 490 628.5 487.501 628.5C484.971 626.65 490 621.5 498.827 619.28" stroke="black" stroke-width="2" stroke-miterlimit="10" stroke-linecap="round" stroke-linejoin="round"/>
<path d="M543.327 618.36C543.077 623.76 555.38 629.35 561.5 630.5C566.13 628.96 563.517 620.36 552.797 617.12" stroke="black" stroke-width="2" stroke-miterlimit="10" stroke-linecap="round" stroke-linejoin="round"/>
<path d="M682.457 452.17C678.747 458.93 677.217 469.75 683.997 473.29C690.777 476.84 694.637 471.13 698.647 465.89C702.657 460.65 703.887 456.36 703.887 453.26C703.887 450.16 701.727 444.92 695.257 444.46C688.777 444 685.077 447.39 682.457 452.17Z" stroke="black" stroke-width="2" stroke-miterlimit="10" stroke-linecap="round" stroke-linejoin="round"/>
<path d="M681.536 454.04H687.846C687.846 454.04 690.776 449.39 699.096 450.47C707.426 451.55 707.576 456.17 707.726 460.18" stroke="black" stroke-width="2" stroke-miterlimit="10" stroke-linecap="round" stroke-linejoin="round"/>
<path d="M687.847 454.04C687.847 454.04 691.247 458.95 694.637 457.1C698.027 455.25 701.737 451.59 706.587 454.42" stroke="black" stroke-width="2" stroke-miterlimit="10" stroke-linecap="round" stroke-linejoin="round"/>
<path d="M679.287 466.51L675.057 472.98" stroke="black" stroke-width="2" stroke-miterlimit="10" stroke-linecap="round" stroke-linejoin="round"/>
<path d="M687.846 474.38V477.54C683.686 481.77 677.666 478.07 673.356 471.9C667.036 473.9 659.636 474.85 659.946 486.32C660.256 497.8 665.186 523.7 665.186 538.5C674.896 541.28 694.946 539.89 694.946 539.89C694.946 539.89 695.666 521.24 695.046 513.22" stroke="black" stroke-width="2" stroke-miterlimit="10" stroke-linecap="round" stroke-linejoin="round"/>
<path d="M675.057 484.93L684.157 498.57C684.157 498.57 677.837 505.35 673.367 507.05L664.267 494.1" stroke="black" stroke-width="2" stroke-miterlimit="10" stroke-linecap="round" stroke-linejoin="round"/>
<path d="M684.146 498.57C684.146 498.57 697.407 504.62 701.257 506.07C705.107 507.52 706.657 509.37 710.047 507.05C713.437 504.74 718.676 502.46 722.076 506.07" stroke="black" stroke-width="2" stroke-miterlimit="10" stroke-linecap="round" stroke-linejoin="round"/>
<path d="M673.356 507.05L677.576 509.52L705.276 513.84C710.976 516.77 717.606 514.46 720.846 509.21" stroke="black" stroke-width="2" stroke-miterlimit="10" stroke-linecap="round" stroke-linejoin="round"/>
<path d="M713.137 508.15L746.127 502.43" stroke="black" stroke-width="2" stroke-miterlimit="10" stroke-linecap="round" stroke-linejoin="round"/>
<path d="M687.847 477.54L705.977 487.5L705.577 501.35L695.367 498.57" stroke="black" stroke-width="2" stroke-miterlimit="10" stroke-linecap="round" stroke-linejoin="round"/>
<path d="M691.736 480.18C691.736 480.18 695.186 496.57 695.296 502.43" stroke="black" stroke-width="2" stroke-miterlimit="10" stroke-linecap="round" stroke-linejoin="round"/>
<path d="M752.916 511.09H735.336V515.12H752.916V511.09Z" stroke="black" stroke-width="2" stroke-miterlimit="10" stroke-linecap="round" stroke-linejoin="round"/>
<path d="M735.336 515.12L699.416 629.77L739.956 515.12" stroke="black" stroke-width="2" stroke-miterlimit="10" stroke-linecap="round" stroke-linejoin="round"/>
<path d="M751.526 515.12L792.376 629.77L747.666 515.12" stroke="black" stroke-width="2" stroke-miterlimit="10" stroke-linecap="round" stroke-linejoin="round"/>
<path d="M746.126 515.12L737.036 632.24L741.576 515.12" stroke="black" stroke-width="2" stroke-miterlimit="10" stroke-linecap="round" stroke-linejoin="round"/>
<path d="M665.187 538.5C665.187 538.5 661.797 565.79 662.257 577.81C662.717 589.83 662.217 612.19 662.217 612.19C662.217 612.19 669.657 614.66 673.357 612.81L675.057 578.89L682.607 543.89" stroke="black" stroke-width="2" stroke-miterlimit="10" stroke-linecap="round" stroke-linejoin="round"/>
<path d="M694.946 539.89C694.946 539.89 695.406 571.19 694.946 577.2C694.486 583.21 688.626 611.58 688.626 611.58C688.626 611.58 683.076 614.96 679.836 613.5V578.43L677.616 569.49" stroke="black" stroke-width="2" stroke-miterlimit="10" stroke-linecap="round" stroke-linejoin="round"/>
<path d="M662.216 612.2V621.45C662.216 621.45 646.029 625 646.499 628.55C646.959 632.1 669.816 628.55 669.816 628.55L667.816 613.88" stroke="black" stroke-width="2" stroke-miterlimit="10" stroke-linecap="round" stroke-linejoin="round"/>
<path d="M679.837 613.5L676.597 627.92C676.597 627.92 699.727 629.62 702.657 629C705.587 628.38 698.017 623.65 688.777 622.68C685.847 622.37 685.837 619.6 686.387 617.44C686.927 615.28 688.627 611.58 688.627 611.58" stroke="black" stroke-width="2" stroke-miterlimit="10" stroke-linecap="round" stroke-linejoin="round"/>
<path d="M708.966 468.2H706.586V475.75H708.966V468.2Z" stroke="black" stroke-width="2" stroke-miterlimit="10" stroke-linecap="round" stroke-linejoin="round"/>
<path d="M708.977 468.2C712.827 468.82 717.307 469.01 719.687 474.39" stroke="black" stroke-width="2" stroke-miterlimit="10" stroke-linecap="round" stroke-linejoin="round"/>
<path d="M719.687 471.98H732.097V468.2H741.577V471.3" stroke="black" stroke-width="2" stroke-miterlimit="10" stroke-linecap="round" stroke-linejoin="round"/>
<path d="M755.687 474.39H738.577V470.09H754.917C757.697 479.3 759.387 481.77 764.317 481.77L774.187 479.15L777.737 474.39H783.437V495.99H777.737L774.037 491.3L764.477 491.08C760.157 491.32 759.237 495.99 759.237 495.99H732.567C721.317 495.99 715.297 494.87 715.297 487.01C715.297 479.15 714.677 476.68 708.977 475.76" stroke="black" stroke-width="2" stroke-miterlimit="10" stroke-linecap="round" stroke-linejoin="round"/>
<path d="M738.576 474.39V495.99" stroke="black" stroke-width="2" stroke-miterlimit="10" stroke-linecap="round" stroke-linejoin="round"/>
<path d="M746.206 474.39V495.34" stroke="black" stroke-width="2" stroke-miterlimit="10" stroke-linecap="round" stroke-linejoin="round"/>
<path d="M744.126 509.06C747.274 509.06 749.826 506.508 749.826 503.36C749.826 500.212 747.274 497.66 744.126 497.66C740.978 497.66 738.426 500.212 738.426 503.36C738.426 506.508 740.978 509.06 744.126 509.06Z" stroke="black" stroke-width="2" stroke-miterlimit="10" stroke-linecap="round" stroke-linejoin="round"/>
<path d="M753.526 495.99L749.826 501.35" stroke="black" stroke-width="2" stroke-miterlimit="10" stroke-linecap="round" stroke-linejoin="round"/>
<path d="M764.316 481.77V491.08" stroke="black" stroke-width="2" stroke-miterlimit="10" stroke-linecap="round" stroke-linejoin="round"/>
<path d="M774.187 479.15V491.3" stroke="black" stroke-width="2" stroke-miterlimit="10" stroke-linecap="round" stroke-linejoin="round"/>
<path d="M722.846 485.28C723.658 485.28 724.316 484.622 724.316 483.81C724.316 482.998 723.658 482.34 722.846 482.34C722.034 482.34 721.376 482.998 721.376 483.81C721.376 484.622 722.034 485.28 722.846 485.28Z" stroke="black" stroke-width="2" stroke-miterlimit="10" stroke-linecap="round" stroke-linejoin="round"/>
<path d="M705.977 491.08L714.327 488.71" stroke="black" stroke-width="2" stroke-miterlimit="10" stroke-linecap="round" stroke-linejoin="round"/>
<path d="M705.656 498.67L717.386 492.94" stroke="black" stroke-width="2" stroke-miterlimit="10" stroke-linecap="round" stroke-linejoin="round"/>
<path d="M725.006 464H747.666" stroke="black" stroke-width="2" stroke-miterlimit="10" stroke-linecap="round" stroke-linejoin="round"/>
<path d="M771.687 461.11C775.387 461.11 775.697 466.51 771.687 466.51C767.677 466.51 750.817 466.51 750.817 466.51C746.807 466.51 746.347 461.11 751.087 461.11C754.327 461.11 771.687 461.11 771.687 461.11Z" stroke="black" stroke-width="2" stroke-miterlimit="10" stroke-linecap="round" stroke-linejoin="round"/>
<path d="M738.416 501.35L733.636 495.99V484.86C733.636 480.4 730.246 477.54 724.076 477.54H714.326" stroke="black" stroke-width="2" stroke-miterlimit="10" stroke-linecap="round" stroke-linejoin="round"/>
<path d="M733.946 467.43V464" stroke="black" stroke-width="2" stroke-miterlimit="10" stroke-linecap="round" stroke-linejoin="round"/>
<path d="M738.576 467.43V464" stroke="black" stroke-width="2" stroke-miterlimit="10" stroke-linecap="round" stroke-linejoin="round"/>
<path d="M167.046 530.9C176.876 536.86 192.676 537.3 201.156 534.29" stroke="black" stroke-width="2" stroke-miterlimit="10" stroke-linecap="round" stroke-linejoin="round"/>
<path d="M203.136 540.34C203.136 540.34 202.306 532.77 201.766 529.63C201.226 526.49 203.286 524.37 209.556 523.45C215.826 522.53 235.936 520.57 240.396 520.27C244.856 519.97 245.556 520.6 246.376 523.91C247.196 527.22 247.346 529.45 247.346 529.45L210.936 544.27L203.136 540.34Z" stroke="black" stroke-width="2" stroke-miterlimit="10" stroke-linecap="round" stroke-linejoin="round"/>
<path d="M204.027 524.89C209.277 523.85 210.337 527.43 210.347 531.82C210.357 536.21 210.947 544.25 210.947 544.25C202.677 551.99 187.077 566.67 167.177 551.77L172.117 541.74C189.977 553.86 199.197 544.08 203.137 540.34" stroke="black" stroke-width="2" stroke-miterlimit="10" stroke-linecap="round" stroke-linejoin="round"/>
<path d="M234.696 534.59C242.606 534.31 247.336 538.87 249.196 544.47L215.876 549.45L215.926 571.5C216.396 580.26 217.656 585.97 228.106 584.57C238.556 583.17 258.446 580.02 258.446 580.02L258.936 556.52C258.806 549.41 256.406 545.37 249.206 544.46" stroke="black" stroke-width="2" stroke-miterlimit="10" stroke-linecap="round" stroke-linejoin="round"/>
<path d="M258.727 553.67L232.717 556.76C227.207 557.29 226.127 557.96 226.297 562.26C226.467 566.56 226.547 584.73 226.547 584.73" stroke="black" stroke-width="2" stroke-miterlimit="10" stroke-linecap="round" stroke-linejoin="round"/>
<path d="M120.027 516.61L123.307 511.64L113.017 506.09L109.637 510.16L120.027 516.61Z" stroke="black" stroke-width="2" stroke-miterlimit="10" stroke-linecap="round" stroke-linejoin="round"/>
<path d="M123.306 511.64C128.106 512.99 131.796 513.02 131.796 513.02C131.796 513.02 136.756 509.55 143.426 511.76C147.966 513.26 154.106 516 158.256 515.83C162.416 515.66 163.706 516.23 163.706 516.23L164.076 522C164.076 522 160.226 524.29 153.616 521.32C146.996 518.35 141.686 515.93 141.686 515.93C137.176 519.34 129.116 520.3 120.036 516.6" stroke="black" stroke-width="2" stroke-miterlimit="10" stroke-linecap="round" stroke-linejoin="round"/>
<path d="M133.796 518.83C135.736 523.1 143.326 529.36 157.626 523.33C164.156 525.38 169.876 533.02 172.116 541.74" stroke="black" stroke-width="2" stroke-miterlimit="10" stroke-linecap="round" stroke-linejoin="round"/>
<path d="M111.716 507.65C111.716 507.65 110.526 505.63 110.356 499.11C110.186 492.59 117.676 486.56 122.146 483.89C126.606 481.22 131.676 478.44 133.096 472.46C123.446 472.87 116.336 468.41 116.166 461.89C116.166 461.89 99.1464 477.95 93.8464 484.27C88.5464 490.59 82.8464 496.43 83.0864 504.14C90.7064 507.59 104.686 503.76 110.226 501.01" stroke="black" stroke-width="2" stroke-miterlimit="10" stroke-linecap="round" stroke-linejoin="round"/>
<path d="M113.786 490.89C116.126 490.01 119.206 490.36 117.586 493.66C115.966 496.96 113.056 502.99 113.006 506.09" stroke="black" stroke-width="2" stroke-miterlimit="10" stroke-linecap="round" stroke-linejoin="round"/>
<path d="M75.8166 506.91C82.0066 507.31 82.6666 526.77 75.5966 526.31C68.5266 525.85 69.9166 506.52 75.8166 506.91Z" stroke="black" stroke-width="2" stroke-miterlimit="10" stroke-linecap="round" stroke-linejoin="round"/>
<path d="M75.8167 506.91C75.8167 506.91 87.0667 506.93 88.2267 513.81C89.6467 522.21 86.4467 525.68 75.5967 526.31" stroke="black" stroke-width="2" stroke-miterlimit="10" stroke-linecap="round" stroke-linejoin="round"/>
<path d="M105.877 502.78C104.277 508.48 106.747 516.04 110.657 521.92" stroke="black" stroke-width="2" stroke-miterlimit="10" stroke-linecap="round" stroke-linejoin="round"/>
<path d="M82.8866 501.29C80.2766 502.04 77.7266 507 77.7266 507" stroke="black" stroke-width="2" stroke-miterlimit="10" stroke-linecap="round" stroke-linejoin="round"/>
<path d="M70.5361 520.94C62.0461 525.28 55.6061 531.08 55.6061 531.08C55.6061 531.08 50.4161 535.78 49.0461 538.65C47.6761 541.52 48.2161 542.3 50.6761 543.2C53.1361 544.1 57.6461 545.28 57.6461 545.28C57.6461 545.28 79.9461 539.92 87.2161 538.17C94.4861 536.42 101.116 534.48 105.986 532.43C110.856 530.38 113.786 530.86 118.106 530.4C122.426 529.94 128.326 528.77 131.776 524.91C126.876 525.19 105.526 523.52 96.2161 516.4" stroke="black" stroke-width="2" stroke-miterlimit="10" stroke-linecap="round" stroke-linejoin="round"/>
<path d="M87.2964 510.14C90.7964 513.23 97.8765 513.59 97.8765 513.59C95.3465 518.41 90.0164 523.84 84.6064 524.78" stroke="black" stroke-width="2" stroke-miterlimit="10" stroke-linecap="round" stroke-linejoin="round"/>
<path d="M115.017 523.31C119.837 521.92 119.947 517.94 119.947 517.94" stroke="black" stroke-width="2" stroke-miterlimit="10" stroke-linecap="round" stroke-linejoin="round"/>
<path d="M124.606 550.04C126.644 550.04 128.296 548.388 128.296 546.35C128.296 544.312 126.644 542.66 124.606 542.66C122.568 542.66 120.916 544.312 120.916 546.35C120.916 548.388 122.568 550.04 124.606 550.04Z" stroke="black" stroke-width="2" stroke-miterlimit="10" stroke-linecap="round" stroke-linejoin="round"/>
<path d="M166.056 590.77C167.934 590.77 169.456 589.248 169.456 587.37C169.456 585.492 167.934 583.97 166.056 583.97C164.178 583.97 162.656 585.492 162.656 587.37C162.656 589.248 164.178 590.77 166.056 590.77Z" stroke="black" stroke-width="2" stroke-miterlimit="10" stroke-linecap="round" stroke-linejoin="round"/>
<path d="M174.647 562.32C176.033 562.32 177.157 561.196 177.157 559.81C177.157 558.424 176.033 557.3 174.647 557.3C173.26 557.3 172.137 558.424 172.137 559.81C172.137 561.196 173.26 562.32 174.647 562.32Z" stroke="black" stroke-width="2" stroke-miterlimit="10" stroke-linecap="round" stroke-linejoin="round"/>
<path d="M218.327 605.99C220.039 605.99 221.427 604.602 221.427 602.89C221.427 601.178 220.039 599.79 218.327 599.79C216.615 599.79 215.227 601.178 215.227 602.89C215.227 604.602 216.615 605.99 218.327 605.99Z" stroke="black" stroke-width="2" stroke-miterlimit="10" stroke-linecap="round" stroke-linejoin="round"/>
<path d="M203.246 607.6C204.671 607.6 205.826 606.445 205.826 605.02C205.826 603.596 204.671 602.44 203.246 602.44C201.821 602.44 200.666 603.596 200.666 605.02C200.666 606.445 201.821 607.6 203.246 607.6Z" stroke="black" stroke-width="2" stroke-miterlimit="10" stroke-linecap="round" stroke-linejoin="round"/>
<path d="M105.977 532.42C108.187 539.37 115.967 540.47 123.127 539.6C130.287 538.73 136.657 538.55 141.297 542.4C145.927 546.25 154.717 552.3 167.177 551.77" stroke="black" stroke-width="2" stroke-miterlimit="10" stroke-linecap="round" stroke-linejoin="round"/>
<path d="M172.146 559.64L147.746 566.2L163.536 585.09" stroke="black" stroke-width="2" stroke-miterlimit="10" stroke-linecap="round" stroke-linejoin="round"/>
<path d="M173.116 561.79C175.576 568.45 170.906 578.8 170.906 578.8L147.746 566.2" stroke="black" stroke-width="2" stroke-miterlimit="10" stroke-linecap="round" stroke-linejoin="round"/>
<path d="M170.906 581.31C172.293 581.31 173.416 580.186 173.416 578.8C173.416 577.414 172.293 576.29 170.906 576.29C169.52 576.29 168.396 577.414 168.396 578.8C168.396 580.186 169.52 581.31 170.906 581.31Z" stroke="black" stroke-width="2" stroke-miterlimit="10" stroke-linecap="round" stroke-linejoin="round"/>
<path d="M97.2861 564.27L102.416 575.41L109.606 572.32C111.616 564.16 123.946 556.53 123.946 556.53L144.216 544.67" stroke="black" stroke-width="2" stroke-miterlimit="10" stroke-linecap="round" stroke-linejoin="round"/>
<path d="M102.417 575.4C99.9368 582.2 98.5068 595.13 105.507 601.28C112.507 607.43 130.847 608.91 140.257 605.82C149.667 602.73 153.587 599.28 155.917 592.92" stroke="black" stroke-width="2" stroke-miterlimit="10" stroke-linecap="round" stroke-linejoin="round"/>
<path d="M111.387 594.93C114.427 598.53 120.867 599.1 127.647 597.54C134.427 595.98 163.187 590.59 163.187 590.59" stroke="black" stroke-width="2" stroke-miterlimit="10" stroke-linecap="round" stroke-linejoin="round"/>
<path d="M109.606 572.32C109.956 578.41 113.476 585.74 125.886 583.73C138.296 581.72 151.106 580.5 151.106 580.5L154.846 591.23" stroke="black" stroke-width="2" stroke-miterlimit="10" stroke-linecap="round" stroke-linejoin="round"/>
<path d="M123.907 584.64C122.227 587.79 123.947 595.08 127.637 597.53" stroke="black" stroke-width="2" stroke-miterlimit="10" stroke-linecap="round" stroke-linejoin="round"/>
<path d="M151.106 580.5L148.466 573.35C146.806 569.25 142.786 569.68 136.676 570.34C130.566 571 127.146 571.22 124.976 575.08C122.806 578.93 120.396 583.99 120.396 583.99" stroke="black" stroke-width="2" stroke-miterlimit="10" stroke-linecap="round" stroke-linejoin="round"/>
<path d="M101.166 594.71L106.106 592.16C110.006 600.46 122.506 607.63 140.266 605.82" stroke="black" stroke-width="2" stroke-miterlimit="10" stroke-linecap="round" stroke-linejoin="round"/>
<path d="M140.316 594.95L144.376 628.21" stroke="black" stroke-width="2" stroke-miterlimit="10" stroke-linecap="round" stroke-linejoin="round"/>
<path d="M147.616 628.42L141.086 627.99" stroke="black" stroke-width="2" stroke-miterlimit="10" stroke-linecap="round" stroke-linejoin="round"/>
<path d="M87.2061 538.16C87.2061 538.16 99.9261 550.08 102.146 556L99.536 565.61" stroke="black" stroke-width="2" stroke-miterlimit="10" stroke-linecap="round" stroke-linejoin="round"/>
<path d="M89.5166 560.36L86.9766 564.79L94.3066 568.66L97.2866 564.27L89.5166 560.36Z" stroke="black" stroke-width="2" stroke-miterlimit="10" stroke-linecap="round" stroke-linejoin="round"/>
<path d="M82.9662 549.859C83.0736 548.2 82.1554 546.791 80.9154 546.71C79.6754 546.63 78.5831 547.91 78.4757 549.569C78.3683 551.227 79.2865 552.637 80.5265 552.718C81.7666 552.798 82.8589 551.518 82.9662 549.859Z" stroke="black" stroke-width="2" stroke-miterlimit="10" stroke-linecap="round" stroke-linejoin="round"/>
<path d="M80.9268 546.72L90.4368 546.06C92.6068 549.16 91.6667 552.23 91.6667 552.23" stroke="black" stroke-width="2" stroke-miterlimit="10" stroke-linecap="round" stroke-linejoin="round"/>
<path d="M91.626 542.53C100.746 544.66 112.016 541.99 117.166 540.1" stroke="black" stroke-width="2" stroke-miterlimit="10" stroke-linecap="round" stroke-linejoin="round"/>
<path d="M110.816 541.92L115.806 546.37C112.326 550.88 112.196 555.77 119.596 555.26" stroke="black" stroke-width="2" stroke-miterlimit="10" stroke-linecap="round" stroke-linejoin="round"/>
<path d="M72.6268 597.3C75.4468 599.41 70.4567 605.6 67.3367 603.55C64.2167 601.5 69.7968 595.19 72.6268 597.3Z" stroke="black" stroke-width="2" stroke-miterlimit="10" stroke-linecap="round" stroke-linejoin="round"/>
<path d="M68.1568 598.43L86.9768 564.79L76.0368 570.14C76.0368 570.14 57.3168 566.26 52.2168 560.46L75.8368 554.44C75.8368 554.44 87.0568 552.65 94.2368 553.71" stroke="black" stroke-width="2" stroke-miterlimit="10" stroke-linecap="round" stroke-linejoin="round"/>
<path d="M73.6162 597.36L92.5362 568.55" stroke="black" stroke-width="2" stroke-miterlimit="10" stroke-linecap="round" stroke-linejoin="round"/>
<path d="M95.6865 563.46L101.277 554.21" stroke="black" stroke-width="2" stroke-miterlimit="10" stroke-linecap="round" stroke-linejoin="round"/>
<path d="M96.6762 548.24L89.5162 560.36L84.3262 556.04L62.4062 557.87" stroke="black" stroke-width="2" stroke-miterlimit="10" stroke-linecap="round" stroke-linejoin="round"/>
<path d="M97.0264 602.16C100.966 592.97 101.066 576.35 94.3164 568.66" stroke="black" stroke-width="2" stroke-miterlimit="10" stroke-linecap="round" stroke-linejoin="round"/>
<path d="M56.5464 563.64C46.6364 566.69 33.3064 578.3 30.6864 593.61C27.8364 610.23 33.4764 628.22 54.8764 629.16C76.2764 630.1 89.1064 614.95 93.0564 604.11C97.0064 593.27 95.0264 582.31 89.5764 574.25" stroke="black" stroke-width="2" stroke-miterlimit="10" stroke-linecap="round" stroke-linejoin="round"/>
<path d="M84.366 582.08C88.986 589.19 88.116 603.63 78.926 612.51C69.736 621.39 56.186 624.95 47.436 618.31C39.636 612.39 37.656 600.25 43.136 589.15C43.796 587.81 44.566 586.48 45.446 585.18C53.616 573.13 61.646 570.39 73.656 569.99" stroke="black" stroke-width="2" stroke-miterlimit="10" stroke-linecap="round" stroke-linejoin="round"/>
<path d="M78.836 568.77L63.876 592.59L70.186 593.81" stroke="black" stroke-width="2" stroke-miterlimit="10" stroke-linecap="round" stroke-linejoin="round"/>
<path d="M71.0864 579.88C62.0864 579.45 53.9564 580.03 49.2564 592.45C46.2264 600.47 49.5464 608.56 60.0864 612.17" stroke="black" stroke-width="2" stroke-miterlimit="10" stroke-linecap="round" stroke-linejoin="round"/>
<path d="M68.966 584.48C60.486 583.63 55.616 590.22 54.036 596.29C52.456 602.36 52.736 608.74 60.086 612.17C67.436 615.61 73.436 612 77.106 605.72C80.766 599.45 80.936 593.76 79.046 589.09" stroke="black" stroke-width="2" stroke-miterlimit="10" stroke-linecap="round" stroke-linejoin="round"/>
<path d="M67.3368 603.54L60.6768 621.6" stroke="black" stroke-width="2" stroke-miterlimit="10" stroke-linecap="round" stroke-linejoin="round"/>
<path d="M70.1865 604.06L75.4965 615.42" stroke="black" stroke-width="2" stroke-miterlimit="10" stroke-linecap="round" stroke-linejoin="round"/>
<path d="M73.3066 601.49L86.1466 597.83" stroke="black" stroke-width="2" stroke-miterlimit="10" stroke-linecap="round" stroke-linejoin="round"/>
<path d="M66.7266 570.6L67.5866 583.59" stroke="black" stroke-width="2" stroke-miterlimit="10" stroke-linecap="round" stroke-linejoin="round"/>
<path d="M54.876 576.3L60.546 586.5" stroke="black" stroke-width="2" stroke-miterlimit="10" stroke-linecap="round" stroke-linejoin="round"/>
<path d="M55.296 592.85L43.126 589.15" stroke="black" stroke-width="2" stroke-miterlimit="10" stroke-linecap="round" stroke-linejoin="round"/>
<path d="M53.0863 604.02L40.6963 607.659" stroke="black" stroke-width="2" stroke-miterlimit="10" stroke-linecap="round" stroke-linejoin="round"/>
<path d="M54.856 608.91L46.2061 616.45" stroke="black" stroke-width="2" stroke-miterlimit="10" stroke-linecap="round" stroke-linejoin="round"/>
<path d="M168.356 584.87L215.066 605.31" stroke="black" stroke-width="2" stroke-miterlimit="10" stroke-linecap="round" stroke-linejoin="round"/>
<path d="M212.866 604.35L210.786 593.67C217.356 592.76 222.846 594.89 222.996 601.71C223.146 608.53 217.396 610.93 212.476 611.5C207.556 612.07 205.456 610.78 203.076 607.6" stroke="black" stroke-width="2" stroke-miterlimit="10" stroke-linecap="round" stroke-linejoin="round"/>
<path d="M225.256 584.71C227.426 588.26 228.696 593.01 228.506 598.77C228.056 612.54 217.476 618.29 209.886 618.95C202.296 619.61 192.446 611.72 192.886 600.35C193.326 588.98 201.586 577.97 212.576 577.43C213.956 577.36 215.326 577.52 216.646 577.88" stroke="black" stroke-width="2" stroke-miterlimit="10" stroke-linecap="round" stroke-linejoin="round"/>
<path d="M167.476 590.45C166.476 594.5 169.416 599.42 174.236 595.81C179.056 592.2 178.916 589.49 178.916 589.49" stroke="black" stroke-width="2" stroke-miterlimit="10" stroke-linecap="round" stroke-linejoin="round"/>
<path d="M167.316 595.36L155.086 605.92L179.296 606.87" stroke="black" stroke-width="2" stroke-miterlimit="10" stroke-linecap="round" stroke-linejoin="round"/>
<path d="M157.366 602.79L151.036 600.35" stroke="black" stroke-width="2" stroke-miterlimit="10" stroke-linecap="round" stroke-linejoin="round"/>
<path d="M179.746 586.14C179.746 586.14 201.106 571.45 209.806 561.86C212.276 559.13 212.736 558.89 212.126 556.99C211.506 555.09 209.096 554.69 209.096 554.69L183.066 562.43C179.756 563.24 178.116 564.75 177.596 571.47C176.996 579.2 179.746 586.14 179.746 586.14Z" stroke="black" stroke-width="2" stroke-miterlimit="10" stroke-linecap="round" stroke-linejoin="round"/>
<path d="M179.746 586.14C177.246 593.02 177.586 605.73 182.216 614.31C186.836 622.9 199.366 630.52 212.426 627.66C225.486 624.81 237.116 611.64 239.726 600.05C242.346 588.46 238.086 583.15 238.086 583.15" stroke="black" stroke-width="2" stroke-miterlimit="10" stroke-linecap="round" stroke-linejoin="round"/>
<path d="M214.987 563.01C212.057 563.07 208.477 564.08 208.477 564.08" stroke="black" stroke-width="2" stroke-miterlimit="10" stroke-linecap="round" stroke-linejoin="round"/>
<path d="M197.907 623.35L192.307 624.29" stroke="black" stroke-width="2" stroke-miterlimit="10" stroke-linecap="round" stroke-linejoin="round"/>
<path d="M194.026 619.37L186.956 620.33" stroke="black" stroke-width="2" stroke-miterlimit="10" stroke-linecap="round" stroke-linejoin="round"/>
<path d="M189.466 614.34L183.146 615.37" stroke="black" stroke-width="2" stroke-miterlimit="10" stroke-linecap="round" stroke-linejoin="round"/>
<path d="M187.757 608.04L180.517 608.57" stroke="black" stroke-width="2" stroke-miterlimit="10" stroke-linecap="round" stroke-linejoin="round"/>
<path d="M185.557 602.22L179.097 602.27" stroke="black" stroke-width="2" stroke-miterlimit="10" stroke-linecap="round" stroke-linejoin="round"/>
<path d="M184.936 595.95L178.616 594.24" stroke="black" stroke-width="2" stroke-miterlimit="10" stroke-linecap="round" stroke-linejoin="round"/>
<path d="M186.526 587.21L182.076 584.51" stroke="black" stroke-width="2" stroke-miterlimit="10" stroke-linecap="round" stroke-linejoin="round"/>
<path d="M190.747 583.12L186.927 581.01" stroke="black" stroke-width="2" stroke-miterlimit="10" stroke-linecap="round" stroke-linejoin="round"/>
<path d="M195.957 580.42L191.847 577.64" stroke="black" stroke-width="2" stroke-miterlimit="10" stroke-linecap="round" stroke-linejoin="round"/>
<path d="M35.3559 596.93L30.3359 595.98" stroke="black" stroke-width="2" stroke-miterlimit="10" stroke-linecap="round" stroke-linejoin="round"/>
<path d="M36.4467 589.17L32.1367 588.08" stroke="black" stroke-width="2" stroke-miterlimit="10" stroke-linecap="round" stroke-linejoin="round"/>
<path d="M40.1161 582.8L35.7061 580.72" stroke="black" stroke-width="2" stroke-miterlimit="10" stroke-linecap="round" stroke-linejoin="round"/>
<path d="M43.8468 578.04L39.7168 575.32" stroke="black" stroke-width="2" stroke-miterlimit="10" stroke-linecap="round" stroke-linejoin="round"/>
<path d="M48.7764 572.92L45.5264 569.75" stroke="black" stroke-width="2" stroke-miterlimit="10" stroke-linecap="round" stroke-linejoin="round"/>
<path d="M54.3559 568.79L51.3359 565.88" stroke="black" stroke-width="2" stroke-miterlimit="10" stroke-linecap="round" stroke-linejoin="round"/>
<path d="M35.4166 605.1L30.7666 604.78" stroke="black" stroke-width="2" stroke-miterlimit="10" stroke-linecap="round" stroke-linejoin="round"/>
<path d="M37.2563 613.24L31.7764 612.94" stroke="black" stroke-width="2" stroke-miterlimit="10" stroke-linecap="round" stroke-linejoin="round"/>
<path d="M41.2059 619.68L35.7959 620.44" stroke="black" stroke-width="2" stroke-miterlimit="10" stroke-linecap="round" stroke-linejoin="round"/>
<path d="M47.5162 624.83L42.8262 625.56" stroke="black" stroke-width="2" stroke-miterlimit="10" stroke-linecap="round" stroke-linejoin="round"/>
<path d="M53.6759 627L50.7959 628.15" stroke="black" stroke-width="2" stroke-miterlimit="10" stroke-linecap="round" stroke-linejoin="round"/>
</svg>
