<svg width="1366" height="768" viewBox="0 0 1366 768" fill="none" xmlns="http://www.w3.org/2000/svg">
<path d="M376.441 568.99C376.851 571.09 377.401 572.92 377.541 574.78C377.731 577.46 377.851 580.14 377.621 582.87C377.251 587.35 375.441 591.32 373.821 595.36C372.941 597.55 371.831 599.67 369.981 601.32C369.241 601.98 368.861 603.06 368.121 603.72C365.871 605.71 363.531 607.61 361.201 609.51C359.811 610.64 358.451 611.82 356.961 612.8C353.821 614.86 350.151 615.44 346.561 615.56C342.611 615.7 338.631 615.17 334.671 614.83C332.541 614.65 330.721 613.51 328.881 612.53C326.321 611.17 324.241 609.16 322.061 607.31C320.291 605.81 319.261 603.69 318.271 601.6C317.781 600.57 317.201 599.59 316.701 598.57C316.331 597.82 316.031 597.03 315.651 596.12C311.731 596.32 307.861 596.58 303.991 596.67C301.981 596.72 299.931 596.65 297.951 596.3C296.991 596.13 296.141 596.03 295.211 596.25C294.651 596.38 294.051 596.41 293.471 596.39C291.041 596.27 290.541 595.51 291.351 593.18C289.831 592.61 288.321 592 286.781 591.48C286.091 591.25 285.471 591.31 284.761 591.82C283.201 592.94 281.501 593.86 279.641 595C280.631 604.2 282.421 613.4 283.871 622.82C284.571 622.71 285.121 622.54 285.651 622.58C286.091 622.61 286.521 622.9 286.951 623.07C286.731 623.62 286.661 624.43 286.251 624.68C285.401 625.19 284.381 625.48 283.401 625.72C282.151 626.03 280.861 626.2 279.591 626.42C278.751 626.56 277.901 625.99 277.781 625.23C277.651 624.36 278.131 623.74 279.071 623.59C279.431 623.54 279.801 623.57 280.151 623.51C280.431 623.47 280.711 623.35 281.111 623.23C279.711 614.67 278.321 606.13 276.951 597.72C274.261 597.94 271.501 598.16 268.751 598.41C267.471 598.53 266.191 598.71 264.911 598.89C261.411 599.39 257.871 599.38 254.371 599.2C249.501 598.96 244.721 597.95 240.861 594.63C239.241 593.23 237.851 591.56 236.291 589.94C236.231 590.15 236.021 590.51 236.061 590.85C236.241 592.64 235.431 594.08 234.541 595.51C234.091 596.24 233.501 596.55 232.711 596.21C231.921 595.86 232.101 595.21 232.251 594.53C232.941 591.28 233.771 588.04 234.171 584.74C234.401 582.87 233.961 580.91 233.701 579.01C233.041 574.18 230.601 570.04 228.381 565.83C228.291 565.66 228.051 565.57 227.771 565.36C226.661 566.2 226.001 567.37 225.521 568.61C225.361 569.03 225.631 569.75 225.921 570.17C228.411 573.7 229.761 577.69 230.881 581.82C231.651 584.65 231.981 587.52 231.901 590.38C231.811 593.59 231.331 596.73 229.921 599.82C228.791 602.3 227.221 604.49 226.071 606.94C225.471 608.21 224.341 609.25 223.421 610.37C220.811 613.53 217.821 616.33 214.891 619.18C213.991 620.06 212.721 620.59 211.551 621.14C208.591 622.52 205.681 624.07 202.591 625.08C199.871 625.97 196.941 626.17 194.041 626.14C191.521 626.11 188.981 626.29 186.501 625.96C184.471 625.69 182.481 624.9 180.531 624.2C177.231 623.02 175.101 620.31 172.511 618.15C170.581 616.55 169.811 614.48 168.901 612.45C167.601 609.56 166.881 606.49 166.441 603.3C166.051 600.48 166.251 597.7 166.041 594.91C165.881 592.79 166.231 590.77 166.441 588.69C166.831 584.95 168.201 581.57 169.911 578.31C170.881 576.46 171.951 574.61 173.301 573.04C176.471 569.33 179.781 565.74 183.161 562.22C184.081 561.27 185.451 560.74 186.541 560.07C186.041 559.07 185.461 558.18 185.141 557.21C184.831 556.27 185.271 555.48 186.231 555.13C188.471 554.3 190.711 553.51 192.951 552.69C193.901 552.34 194.831 551.92 195.781 551.6C197.351 551.06 198.931 550.56 200.521 550.07C202.111 549.58 203.701 549.12 205.291 548.66C205.841 548.51 206.401 548.43 206.961 548.31C209.561 547.74 210.531 546.63 210.741 543.97C210.931 541.59 212.281 540.29 214.651 539.85C217.151 539.39 219.611 538.97 222.181 539.08C223.501 539.14 224.281 539.62 224.621 540.78C224.981 542.02 225.191 543.3 225.461 544.57C225.561 545.03 225.661 545.49 225.781 546.02C227.691 544.64 228.291 542.7 227.071 541.25C225.351 539.21 223.411 537.37 221.541 535.46C220.801 534.7 220.011 533.99 219.061 533.08C216.751 533.68 214.191 534.34 211.631 535C209.471 535.55 207.291 536.05 205.141 536.65C204.091 536.94 203.101 537.41 202.081 537.8C201.671 537.96 201.271 538.29 200.881 538.27C199.311 538.18 198.101 539.02 196.841 539.71C194.331 541.1 191.531 541.71 188.791 541.56C186.181 541.42 183.561 540.55 181.051 539.71C178.931 538.99 178.331 537.29 179.231 535.16C179.821 533.78 180.571 532.44 181.461 531.23C182.901 529.26 184.511 527.41 186.061 525.52C186.291 525.24 186.581 525.01 186.881 524.81C191.451 521.6 196.031 518.41 200.591 515.22C200.541 514.6 200.411 513.95 200.451 513.31C200.641 510.73 200.921 508.15 201.111 505.57C201.281 503.24 202.811 501.66 204.111 499.94C204.191 499.84 204.361 499.75 204.491 499.75C208.131 499.88 208.621 495.99 211.081 494.6C211.251 494.5 211.461 494.24 211.431 494.08C211.151 492.15 212.631 490.77 212.981 489C213.241 487.66 214.301 486.48 215.031 485.24C215.211 484.94 215.621 484.75 215.721 484.44C216.581 481.75 218.591 479.82 220.251 477.68C222.851 474.34 225.481 471.02 228.151 467.73C229.421 466.17 230.861 464.74 232.151 463.2C233.441 461.67 234.551 459.97 235.911 458.51C237.821 456.47 239.861 454.54 241.931 452.65C242.411 452.21 243.221 452.14 244.091 451.83C244.431 452.66 244.911 453.3 244.931 453.95C244.981 455.75 246.051 456.65 247.501 457.29C250.671 458.69 253.871 459.92 257.411 460.1C258.661 460.16 259.891 460.68 261.101 461.1C262.501 461.58 262.711 462.37 262.461 463.8C262.011 466.38 260.161 467.99 258.481 469.63C255.341 472.7 251.961 475.52 248.741 478.51C247.641 479.53 246.721 480.76 245.711 481.9C245.901 482.16 246.001 482.36 246.161 482.48C248.591 484.33 247.941 487.25 246.661 489.35C245.371 491.46 245.201 493.71 244.831 495.97C244.671 496.94 245.871 498.25 247.011 498.57C249.311 499.22 251.621 499.8 253.521 501.41C253.971 501.79 254.731 501.87 255.361 501.95C257.071 502.15 258.791 502.3 260.511 502.41C260.911 502.44 261.361 502.32 261.741 502.18C265.741 500.67 269.951 500.3 274.151 500.3C275.831 500.3 277.491 501.1 279.181 501.45C283.271 502.3 287.371 503.12 291.481 503.89C292.391 504.06 293.371 503.86 294.281 504.02C295.361 504.22 296.131 504.83 296.081 506.11C296.071 506.46 296.161 506.83 296.241 507.17C296.801 509.59 296.961 510.72 294.101 512.37C295.941 514.42 297.731 516.55 299.681 518.52C300.231 519.08 301.211 519.32 302.041 519.48C305.721 520.2 309.411 520.98 313.131 521.45C315.111 521.7 317.161 521.38 319.171 521.28C319.861 521.25 320.541 521.07 321.231 520.99C324.681 520.59 328.131 520.22 331.571 519.8C332.121 519.73 332.651 519.47 333.181 519.3C332.831 517.43 332.461 515.68 332.211 513.91C332.141 513.39 332.271 512.69 332.581 512.3C334.241 510.22 336.391 508.86 339.011 508.3C339.781 508.13 340.591 508.06 341.331 507.82C344.841 506.68 348.401 505.86 352.081 505.43C355.161 505.07 358.201 504.36 361.271 503.85C363.051 503.55 364.851 503.31 366.641 503.06C368.861 502.76 371.081 502.51 373.291 502.17C375.541 501.82 377.721 502.85 378.991 504.76C379.871 506.09 380.731 507.38 381.021 508.99C381.331 510.7 380.941 512.16 379.541 513.22C378.451 514.05 377.271 514.77 376.111 515.49C374.831 516.29 373.521 517.05 371.791 518.08C373.211 518.49 374.181 518.88 375.181 519.03C378.321 519.49 380.411 521.72 382.821 523.42C383.191 524.91 385.421 525.59 384.521 527.47C386.041 528.29 387.441 529.02 388.831 529.78C391.541 531.27 393.001 533.88 394.551 536.38C394.991 537.08 395.161 538.01 395.231 538.86C395.411 541.16 396.141 543.39 395.871 545.76C395.731 546.97 395.881 548.24 396.101 549.45C396.871 553.64 396.351 557.77 395.721 561.91C395.561 562.98 395.091 563.52 393.991 563.81C391.051 564.56 388.151 565.49 385.231 566.31C383.021 566.93 380.791 567.48 378.581 568.11C377.881 568.35 377.231 568.68 376.441 568.99ZM232.731 554.25C231.741 554.55 231.401 555.23 231.681 556.19C231.721 556.32 232.131 556.34 232.481 556.44C232.561 555.59 232.631 554.9 232.691 554.18C232.921 553.57 233.161 552.95 233.391 552.34C233.211 552.3 233.031 552.26 232.851 552.22C232.811 552.9 232.771 553.57 232.731 554.25ZM290.591 513.79C289.251 514.23 287.971 514.65 286.691 515.07C285.741 515.39 284.811 515.85 283.831 516.03C281.071 516.55 278.301 517.01 275.471 516.57C273.981 516.34 272.271 516.59 271.021 515.94C268.641 514.7 265.851 513.85 264.591 511.03C264.401 510.61 263.551 510.3 262.991 510.26C260.701 510.12 258.401 510.13 256.111 510.04C254.601 509.98 253.101 509.85 251.661 509.76C251.091 510.96 250.551 512.09 249.931 513.41C250.841 513.59 251.661 513.9 252.481 513.88C255.091 513.83 257.691 513.58 260.301 513.59C261.331 513.6 262.391 514.01 263.371 514.39C264.081 514.67 264.311 515.4 263.811 516.02C262.831 517.23 262.171 518.81 260.351 519.16C259.811 519.26 259.331 519.7 258.811 519.95C257.441 520.6 256.091 521.33 254.671 521.83C253.331 522.31 251.901 522.56 250.501 522.87C248.901 523.23 247.291 523.59 245.671 523.89C243.691 524.26 241.701 524.56 239.731 524.95C239.441 525.01 239.211 525.4 238.921 525.68C239.111 525.99 239.201 526.33 239.421 526.46C240.781 527.3 241.671 528.8 243.681 528.72C245.371 528.65 247.081 529.46 248.781 529.51C253.431 529.64 258.061 529.02 262.711 528.85C265.131 528.76 267.531 528.87 269.841 529.22C271.741 529.51 273.801 529.83 275.481 531.19C276.701 532.18 278.091 533.07 279.551 533.64C282.101 534.63 284.751 535.36 287.371 536.17C288.541 536.53 289.721 536.87 290.911 537.14C292.441 537.48 293.981 537.85 295.531 538.01C296.941 538.16 298.381 538.04 300.011 538.04C300.891 536.01 301.751 533.87 302.751 531.8C303.211 530.85 303.161 530.08 302.781 529.13C301.581 526.08 300.151 523.12 297.991 520.68C295.781 518.21 293.981 515.2 290.591 513.79ZM248.221 560.22C249.401 562.59 250.581 564.36 250.771 566.68C250.921 568.56 252.321 570.06 253.991 571.09C255.061 571.74 255.621 571.54 256.251 570.38C256.841 569.3 257.341 568.16 258.011 567.13C259.361 565.07 260.841 563.23 263.291 562.21C265.671 561.22 268.151 560.8 270.611 560.2C271.661 559.94 272.671 559.26 273.701 559.26C275.991 559.26 278.281 559.5 280.551 559.79C281.201 559.87 281.951 560.32 282.371 560.83C284.561 563.55 286.421 566.53 287.181 569.95C287.521 571.48 288.211 572.74 288.951 573.98C289.901 575.57 291.221 576.91 290.911 579.01C290.841 579.49 291.301 580.04 291.541 580.61C293.501 580.09 295.361 579.59 297.321 579.06C297.171 578.39 296.881 577.86 296.991 577.44C297.601 575.03 295.811 573.6 294.571 572.2C291.771 569.02 288.591 566.18 285.651 563.12C283.601 560.99 281.691 558.74 279.521 556.33C280.481 555.42 281.251 554.71 282.011 553.98C283.841 552.22 286.371 552.21 288.571 551.37C291.661 550.18 294.871 549.29 298.021 548.26C300.081 547.59 302.151 546.92 304.181 546.18C304.801 545.95 305.351 545.5 305.901 545.16C304.031 544.19 302.051 543.59 300.671 542.33C299.101 540.9 297.371 540.8 295.541 540.58C295.111 540.53 294.661 540.56 294.241 540.47C290.991 539.78 287.701 539.23 284.511 538.32C282.181 537.66 280.001 536.51 277.741 535.6C277.631 535.56 277.471 535.65 277.271 535.69C276.681 537.47 275.341 538.53 273.741 539.51C268.841 542.51 264.011 545.62 259.181 548.73C258.471 549.19 257.871 549.84 257.291 550.46C255.761 552.1 254.291 553.8 252.771 555.44C251.271 557.06 249.741 558.63 248.221 560.22ZM242.441 456.26C241.341 457.19 240.251 457.91 239.431 458.86C237.351 461.27 235.431 463.81 233.381 466.24C230.731 469.38 227.991 472.45 225.341 475.59C223.911 477.29 222.491 479.01 221.221 480.83C220.101 482.42 219.311 484.26 218.151 485.81C216.381 488.17 215.221 490.75 214.421 493.57C214.101 494.69 214.141 495.63 214.461 496.43C215.951 496.57 217.211 496.68 218.471 496.8C219.401 496.89 220.321 496.96 221.251 497.08C223.201 497.33 224.901 496.32 226.751 496.04C227.601 495.91 228.491 495.84 229.291 495.55C231.421 494.76 233.501 493.86 235.611 493.02C237.821 492.14 239.391 490.86 239.511 488.2C239.571 486.79 239.821 485.17 240.571 484.04C242.231 481.56 244.071 479.13 246.191 477.03C249.201 474.05 252.571 471.43 255.701 468.56C257.241 467.15 258.611 465.55 259.421 463.65C257.521 463.19 255.781 462.79 254.041 462.34C251.881 461.78 249.681 461.31 247.591 460.55C245.521 459.8 243.811 458.42 242.441 456.26ZM200.981 518.13C199.171 519.45 197.301 520.79 195.451 522.16C193.011 523.97 190.531 525.74 188.181 527.65C185.731 529.64 184.251 532.44 182.421 534.95C181.301 536.49 181.741 537.46 183.641 537.82C184.281 537.94 185.001 537.87 185.541 538.15C188.981 539.96 192.131 538.52 195.291 537.36C196.701 536.84 198.001 536.02 199.421 535.54C201.041 535 202.741 534.73 204.381 534.25C207.211 533.42 210.001 532.43 212.851 531.67C215.071 531.08 217.501 531.06 219.551 530.15C221.251 529.39 223.041 528.98 224.761 528.4C227.501 527.47 230.171 526.52 232.661 525.01C234.071 524.15 235.581 523.38 237.151 522.89C239.131 522.26 241.161 521.78 243.261 521.52C246.041 521.17 248.771 520.39 251.511 519.78C252.351 519.59 253.211 519.43 254.011 519.12C255.701 518.47 257.551 518.11 259.191 516.68C258.621 516.56 258.351 516.45 258.091 516.46C256.791 516.54 255.491 516.79 254.201 516.72C251.691 516.58 249.211 516.35 246.711 516.93C245.601 517.19 244.411 517.14 243.491 516.11C243.221 515.8 242.571 515.79 242.081 515.72C237.901 515.06 233.931 513.81 230.231 511.71C228.981 511 227.621 510.49 226.231 509.85C224.501 511.68 222.921 513.55 221.121 515.19C219.651 516.53 218.461 518.25 216.401 518.92C213.791 519.77 211.251 520.86 208.611 521.62C206.691 522.17 204.741 522.15 203.301 520.26C202.731 519.52 201.921 518.97 200.981 518.13ZM172.521 580.39C171.741 581.32 171.351 581.6 171.211 581.97C170.831 582.94 170.561 583.95 170.251 584.91C170.961 585.4 171.671 585.78 172.211 586.32C172.551 586.67 172.901 587.35 172.781 587.74C172.551 588.49 171.811 588.47 171.121 588.24C170.601 588.07 170.071 587.94 169.551 587.79C169.401 588.47 169.311 588.97 169.171 589.45C168.531 591.79 168.581 591.73 170.471 593.29C171.071 593.79 171.821 594.88 171.641 595.37C171.221 596.5 170.121 596.05 169.231 595.69C169.121 595.65 168.981 595.7 168.691 595.72C168.871 597.8 169.041 599.87 169.201 601.67C170.441 602.31 171.481 602.78 172.431 603.39C172.661 603.54 172.761 604.24 172.611 604.53C172.461 604.83 171.931 605.12 171.571 605.11C170.961 605.09 170.361 604.84 169.311 604.58C169.941 606.89 170.821 608.74 171.511 610.69C172.691 610.69 173.781 610.64 174.861 610.72C175.231 610.75 175.881 611.11 175.881 611.31C175.871 611.74 175.631 612.34 175.291 612.54C174.421 613.05 173.441 613.37 172.451 613.79C173.631 615.16 174.771 616.53 175.971 617.85C176.641 618.58 177.481 618.71 178.321 618.07C178.881 617.65 179.461 617.32 180.101 617.8C180.781 618.32 180.741 619.04 180.441 619.77C180.341 620.02 180.251 620.28 180.101 620.69C181.071 621.17 181.971 621.61 182.781 622.01C183.501 621.69 184.131 621.16 184.661 621.24C185.131 621.31 185.471 622.1 185.941 622.48C186.251 622.73 186.691 622.87 187.091 622.98C189.471 623.69 191.931 623.22 194.351 623.43C195.491 623.53 196.701 623.44 197.811 623.16C200.511 622.48 203.241 621.97 205.841 620.78C208.751 619.44 211.701 618.11 214.041 616C217.341 613.03 220.751 610.07 222.981 606.1C223.571 605.04 224.061 603.75 224.971 603.08C226.191 602.19 226.331 600.92 226.881 599.79C227.191 599.14 227.471 598.46 227.631 597.76C228.251 595.09 229.451 592.35 229.251 589.73C229.021 586.78 228.971 583.66 227.771 580.79C227.051 579.07 226.611 577.22 225.941 575.47C225.471 574.22 224.821 573.04 224.161 571.62C222.231 574.01 220.531 576.14 222.361 579.12C222.621 579.55 222.721 580.07 222.951 580.51C224.221 582.88 224.431 585.57 224.281 588.05C224.121 590.72 223.891 593.46 223.141 596.14C222.341 599.03 221.201 601.73 219.711 604.24C218.471 606.33 216.871 608.24 214.861 609.74C213.721 610.59 212.331 611.4 211.721 612.57C210.931 614.1 209.361 614.42 208.351 615.55C207.721 616.25 206.711 616.78 205.781 617.02C201.941 618.02 198.051 618.67 194.041 618.28C191.231 618 188.471 617.65 185.711 616.89C182.961 616.13 180.791 614.52 178.501 613.04C178.261 612.89 178.071 612.65 177.911 612.41C176.251 609.99 175.241 607.28 174.481 604.47C174.261 603.64 174.011 602.7 174.181 601.9C174.791 598.93 174.431 595.83 175.481 592.91C175.991 591.49 176.231 589.98 176.551 588.5C177.251 585.22 178.611 582.21 180.331 579.36C181.081 578.12 181.831 576.84 182.821 575.81C184.741 573.78 186.551 571.66 188.811 569.93C191.511 567.86 194.451 566.46 197.651 565.48C199.111 565.04 200.591 564.68 202.071 564.28C202.051 564.1 202.031 563.92 202.001 563.74C201.041 563.67 200.061 563.72 199.131 563.52C196.881 563.02 194.611 562.53 192.441 561.8C190.771 561.24 189.511 561.56 188.301 562.65C188.211 564.23 188.981 565.9 187.641 567.11C185.591 567.13 186.551 564.77 185.151 564.36C184.861 564.59 184.581 564.82 184.291 565.04C183.101 565.91 182.601 566.95 183.271 568.4C183.511 568.92 183.591 569.52 183.641 570.09C183.701 570.73 183.761 571.58 182.941 571.68C182.551 571.73 182.001 571.17 181.661 570.77C181.261 570.29 181.021 569.69 180.671 569.06C178.981 569.91 178.371 571.51 177.351 572.7C178.021 573.84 178.621 574.88 179.301 576.03C177.411 577.96 176.591 575.36 175.011 575.15C174.451 576.25 173.851 577.41 173.251 578.58C174.241 579.51 175.031 580.26 175.881 581.05C175.761 581.84 175.951 582.79 174.391 583.47C173.821 582.56 173.261 581.61 172.521 580.39ZM364.931 571.3C365.591 573.72 366.341 575.84 366.721 578.02C367.151 580.48 367.471 582.95 367.011 585.53C366.561 588.07 365.661 590.41 364.641 592.7C362.881 596.69 360.891 600.55 356.521 602.39C356.261 602.5 356.021 602.68 355.801 602.87C353.071 605.25 349.731 606.07 346.271 606.53C344.691 606.74 343.091 606.68 341.611 605.97C340.961 605.66 340.401 605.14 339.731 604.92C336.531 603.87 334.341 601.59 332.601 598.9C331.511 597.21 330.861 595.25 329.981 593.43C328.781 590.95 328.771 588.22 328.591 585.59C328.501 584.34 328.231 583.82 327.241 583.28C324.251 581.64 320.781 581.16 317.881 579.29C317.091 578.78 316.841 579.11 316.851 580.54C318.131 581.04 319.421 581.52 320.701 582.05C321.541 582.4 321.991 583.1 321.731 583.97C321.441 584.92 320.561 584.62 319.861 584.55C319.511 584.52 319.181 584.33 318.831 584.23C318.121 584 317.401 583.78 316.611 583.53C316.611 583.98 316.601 584.19 316.611 584.41C316.721 586.77 316.811 586.86 319.231 587.24C319.521 587.28 319.811 587.32 320.081 587.42C320.771 587.68 321.171 588.14 321.011 588.93C320.871 589.64 320.371 589.85 319.721 589.81C318.941 589.76 318.171 589.69 317.131 589.61C317.461 591.07 317.761 592.37 318.051 593.66C319.591 594.08 321.031 594.47 322.471 594.89C322.751 594.97 323.091 595.06 323.251 595.26C323.571 595.68 324.101 596.3 323.971 596.61C323.761 597.1 323.151 597.59 322.621 597.72C322.141 597.83 321.541 597.47 320.991 597.29C320.481 597.12 319.981 596.93 319.391 596.71C319.621 599.57 321.651 601.17 323.911 600.9C324.731 600.8 325.631 600.86 326.411 601.1C326.821 601.23 327.321 601.9 327.331 602.34C327.351 603.12 326.711 603.32 325.941 603.32C324.891 603.33 323.851 603.49 322.801 603.59C322.751 603.74 322.701 603.88 322.661 604.03C323.751 605 324.831 605.98 325.761 606.81C328.191 607.07 330.301 604.91 332.571 606.48C332.481 608.74 330.211 608.2 329.281 609.27C329.791 610.29 330.571 610.47 331.511 610.23C332.421 610 333.311 609.69 334.221 609.49C335.401 609.24 335.951 609.84 335.741 611.05C335.701 611.3 335.601 611.54 335.481 611.92C339.641 613 343.751 612.81 347.821 612.68C353.231 612.51 357.401 609.53 361.301 606.22C363.431 604.41 365.231 602.22 367.251 600.26C369.981 597.61 371.541 594.19 372.701 590.76C373.631 588.03 374.801 585.23 374.821 582.22C374.831 580.78 375.151 579.32 374.941 577.92C374.681 576.17 374.951 574.4 374.491 572.62C374.211 571.53 374.091 570.42 373.561 569.49C370.691 570.09 367.901 570.68 364.931 571.3ZM393.111 546.4C393.181 546.39 393.261 546.37 393.331 546.36C392.951 544.24 392.551 542.12 392.211 539.99C391.861 537.79 391.731 537.5 389.631 537.91C386.101 538.59 382.551 539.32 379.121 540.39C374.701 541.76 370.171 542.46 365.611 542.94C363.521 543.16 362.871 543.53 363.021 545.55C363.301 549.36 363.691 553.17 364.241 556.94C364.611 559.42 365.371 561.84 365.911 564.3C366.361 566.37 366.611 566.52 368.711 566.13C373.611 565.22 378.541 564.44 383.421 563.42C386.171 562.85 388.851 561.93 391.551 561.14C392.771 560.78 393.341 560.1 393.401 558.63C393.541 555.12 393.871 551.63 393.121 548.15C393.001 547.58 393.111 546.98 393.111 546.4ZM350.241 564.24C348.301 563.8 346.891 564.88 345.331 565.67C341.041 567.83 339.191 569.54 336.261 573.33C335.491 574.32 335.251 575.58 334.401 576.37C333.301 577.39 332.911 578.66 332.451 579.95C331.871 581.56 332.311 582.4 333.871 582.99C337.721 584.45 341.551 585.93 345.401 587.39C346.371 587.76 347.351 588.1 348.331 588.45C347.511 585.84 346.231 583.56 346.471 580.93C348.581 579.84 350.531 578.87 352.901 578.84C355.001 578.81 356.951 579.23 358.081 580.91C359.351 582.79 360.141 584.99 361.091 587.07C361.221 587.36 361.171 587.83 361.031 588.12C359.321 591.59 357.851 595.04 353.721 596.74C350.671 598 347.781 598.47 344.781 597.57C342.601 596.92 340.511 595.8 338.571 594.59C337.771 594.09 337.301 592.87 336.961 591.88C336.671 591.02 336.781 590.1 337.691 589.38C338.131 589.04 338.241 588.27 338.571 587.52C336.161 586.67 333.901 585.88 331.521 585.05C331.491 588.43 332.091 591.4 333.301 594.32C335.121 598.71 338.241 601.67 342.641 603.25C345.001 604.09 347.371 604.19 349.771 602.93C351.421 602.07 353.071 601.1 354.751 600.41C356.781 599.58 358.151 598.22 359.391 596.64C360.281 595.52 361.011 594.22 361.551 592.89C362.531 590.49 363.741 588.08 364.101 585.56C364.791 580.77 364.001 576.06 361.981 571.71C360.341 571.51 358.781 571.16 357.221 571.17C355.941 571.18 354.931 570.78 354.041 570.03C352.241 568.53 351.231 566.49 350.241 564.24ZM363.351 566.68C362.881 563.93 362.401 561.13 361.921 558.34C361.471 555.7 360.911 553.08 360.621 550.42C360.361 548.07 360.311 545.69 360.341 543.33C360.361 541.51 360.811 541.01 362.561 540.65C364.741 540.2 366.951 539.63 369.161 539.58C372.911 539.5 376.371 538.16 379.991 537.51C383.441 536.89 386.821 535.85 390.221 534.99C389.541 533.95 388.761 532.86 387.461 531.99C384.321 529.9 381.191 529.29 377.651 530.8C375.791 531.6 373.871 532.26 371.931 532.84C370.441 533.29 368.901 533.56 367.371 533.84C365.311 534.22 363.241 534.59 361.161 534.84C359.311 535.06 357.441 535.04 355.581 535.24C353.801 535.43 352.041 535.76 350.241 536.04C350.781 542.08 351.211 547.97 351.871 553.84C352.241 557.21 352.411 560.63 353.551 563.89C354.411 566.37 356.881 567.91 359.471 567.39C360.701 567.13 361.961 566.93 363.351 566.68ZM344.311 527.68C345.071 527.41 345.551 527.28 345.991 527.07C347.771 526.16 349.531 525.2 351.321 524.31C352.531 523.71 353.871 523.32 355.001 522.59C357.731 520.82 361.071 520.19 363.541 517.95C363.691 517.82 363.941 517.8 364.151 517.74C366.801 517.04 369.381 516.13 371.751 514.71C372.921 514.01 374.031 513.16 375.271 512.62C378.671 511.14 378.761 509.74 377.111 506.91C377.041 506.78 376.941 506.67 376.861 506.55C375.841 504.89 375.071 504.55 373.091 504.97C372.031 505.2 370.991 505.55 369.921 505.7C365.301 506.32 360.661 506.85 356.051 507.5C353.211 507.9 350.461 508.88 347.541 508.87C347.191 508.87 346.841 509.05 346.491 509.14C345.441 509.4 344.361 509.57 343.361 509.95C342.411 510.31 341.091 510.01 340.621 511.32C341.911 513.69 343.191 516.05 343.241 518.84C343.251 519.2 343.291 519.6 343.471 519.89C344.371 521.36 344.131 522.96 344.091 524.55C344.071 525.52 344.221 526.5 344.311 527.68ZM255.201 548.46C252.811 547.85 250.941 547.31 249.041 546.93C247.461 546.61 246.571 545.76 245.981 544.28C245.251 542.44 245.181 540.79 246.681 539.24C245.021 537.82 243.501 536.52 241.971 535.21C237.281 536.88 232.401 537.08 227.301 537.63C229.781 540.53 232.601 542.73 234.421 545.78C235.191 547.07 236.411 548.29 236.611 549.67C236.851 551.32 236.371 553.13 235.901 554.79C235.441 556.43 234.551 557.94 233.981 559.56C233.791 560.11 233.851 560.86 234.061 561.42C234.541 562.7 235.181 563.93 235.771 565.17C236.071 565.8 236.481 566.32 237.291 566.07C238.521 565.68 239.781 565.34 240.941 564.78C241.751 564.39 242.591 563.81 243.081 563.08C245.811 559 248.501 554.93 252.431 551.83C253.461 551.03 254.141 549.79 255.201 548.46ZM246.781 589.03C247.161 586.68 247.301 586.48 249.241 587.22C251.851 588.23 254.601 588.3 257.301 588.56C258.891 588.71 260.741 588.93 262.331 587.65C260.151 584.29 257.931 581.03 258.491 577.04C256.671 576.38 254.981 575.97 253.491 575.17C251.631 574.16 250.261 572.45 249.241 570.64C248.051 568.53 247.181 566.25 246.051 563.78C245.261 564.73 244.711 565.69 243.891 566.29C242.981 566.96 241.831 567.31 240.781 567.8C240.261 568.04 239.741 568.29 239.221 568.54C238.151 569.06 237.471 569.76 237.181 571.07C236.671 573.39 236.881 575.71 237.001 578C237.111 580.21 237.691 582.41 238.121 584.6C238.211 585.06 238.521 585.47 238.791 586.04C239.441 585.79 240.031 585.68 240.481 585.37C241.291 584.83 241.881 584.86 242.561 585.6C243.291 586.4 244.141 587.09 244.971 587.78C245.511 588.22 246.131 588.58 246.781 589.03ZM330.691 543.06C330.751 543.22 330.821 543.38 330.881 543.54C332.241 543.12 333.591 542.67 334.961 542.29C337.091 541.71 339.231 541.14 341.381 540.65C343.101 540.26 344.821 540.05 346.281 541.51C346.741 541.97 347.421 542.2 348.231 542.68C348.201 542.04 348.191 541.77 348.181 541.5C348.051 539.56 347.931 537.61 347.781 535.67C347.701 534.62 348.141 534.05 349.211 533.88C352.711 533.32 356.221 532.81 359.701 532.13C362.381 531.61 365.121 531.46 367.761 530.77C370.061 530.17 372.391 529.68 374.661 528.97C376.841 528.29 378.951 527.38 381.171 526.55C380.121 524.86 378.871 523.69 377.261 522.94C375.381 522.07 373.611 520.97 371.341 521.13C369.941 521.23 368.511 520.59 367.081 520.53C366.191 520.49 365.281 520.89 364.401 521.16C364.001 521.28 363.651 521.57 363.261 521.75C361.011 522.73 358.721 523.63 356.531 524.71C354.461 525.73 352.511 527 350.451 528.05C347.881 529.36 345.291 530.67 342.611 531.74C341.201 532.3 340.401 533.44 339.631 534.45C338.031 536.52 336.431 538.48 334.241 539.98C332.961 540.84 331.871 542.01 330.691 543.06ZM334.011 545.38C332.961 545.77 332.031 546.14 331.101 546.47C328.741 547.3 326.361 548.08 324.031 548.96C323.661 549.1 323.371 549.68 323.221 550.11C323.081 550.5 323.221 550.98 323.181 551.41C323.001 553.42 321.621 554.2 319.831 553.27C319.211 552.95 318.711 552.4 317.901 551.75C316.821 552.57 315.671 553.44 314.451 554.37C314.401 560.16 313.391 566.09 316.121 571.83C317.201 571.13 317.921 570.02 319.291 570.41C319.481 570.46 319.801 570.17 320.021 570C322.961 567.71 325.761 565.26 328.221 562.47C330.361 560.04 332.351 557.47 334.481 555.03C337.601 551.45 340.791 547.93 343.931 544.36C344.121 544.14 344.091 543.73 344.251 543.07C342.431 543.47 340.881 543.81 339.391 544.14C339.191 547.03 338.611 548.14 337.291 548.35C335.981 548.54 334.901 547.63 334.011 545.38ZM302.281 540.21C303.621 541.77 305.381 542.09 307.141 542.51C311.641 543.58 316.081 544.53 320.811 544C324.841 543.55 327.991 541.62 331.021 539.27C332.431 538.17 333.721 536.91 335.041 535.69C336.751 534.12 338.061 532.28 339.061 530.22C338.001 529.29 337.101 528.51 336.191 527.71C334.421 529.04 332.721 530.27 331.081 531.59C329.511 532.85 327.981 534.11 326.131 535C323.701 536.17 321.101 536.68 318.581 536.32C315.981 535.96 313.501 534.74 310.961 533.91C309.241 533.34 307.511 532.78 305.681 532.19C304.481 535.02 303.371 537.64 302.281 540.21ZM287.341 580.8C286.651 579.14 286.101 577.58 285.351 576.11C284.451 574.34 284.091 573.44 281.261 573.87C278.481 574.3 275.691 574.71 272.901 575.09C269.411 575.56 265.901 575.96 262.421 576.48C262.001 576.54 261.361 577.18 261.351 577.57C261.331 578.71 261.381 579.92 261.751 580.98C262.221 582.33 263.021 583.57 263.691 584.85C264.771 586.9 265.671 587.45 267.911 586.99C270.171 586.53 272.381 585.82 274.611 585.24C277.621 584.45 280.631 583.66 283.641 582.88C285.051 582.52 286.461 582.18 287.341 580.8ZM201.421 581.15C201.281 580.97 201.141 580.79 201.001 580.61C199.631 581.15 198.021 581.4 196.941 582.29C195.381 583.59 193.691 584.88 193.021 587.04C192.341 589.22 191.121 591.25 190.621 593.46C190.131 595.6 190.251 597.89 190.131 600.11C190.061 601.4 190.571 602.47 191.381 603.46C192.851 605.27 194.791 606.45 196.931 607.06C198.911 607.64 199.941 607.61 200.811 605.22C201.451 603.47 202.281 601.8 203.151 599.81C202.791 599.52 202.261 599.14 201.781 598.7C200.541 597.57 200.451 597.18 201.101 595.74C201.601 594.63 202.171 593.54 202.661 592.42C202.931 591.81 203.101 591.15 203.351 590.4C202.711 590.26 202.361 590.17 202.011 590.12C198.941 589.62 197.881 587.51 199.381 584.9C200.091 583.68 200.741 582.41 201.421 581.15ZM302.921 522.43C303.861 524.6 304.541 526.42 305.441 528.13C305.811 528.84 306.561 529.55 307.301 529.83C310.261 530.92 313.271 531.87 316.281 532.83C322.161 534.7 325.551 532.7 329.741 529.19C330.841 528.27 331.961 527.38 333.111 526.52C333.671 526.1 334.321 525.79 334.841 525.48C334.901 522.45 334.241 521.87 331.451 522.28C331.311 522.3 331.171 522.38 331.031 522.4C328.611 522.75 326.191 523.13 323.771 523.43C321.401 523.73 319.031 524.09 316.651 524.17C314.281 524.25 311.891 524.17 309.541 523.88C307.401 523.63 305.331 522.98 302.921 522.43ZM188.801 556.97C190.691 559.03 193.131 558.98 195.181 559.57C199.671 560.86 204.301 561.73 209.031 561.87C210.261 561.91 211.271 561.73 212.321 561.09C214.541 559.73 216.851 558.52 219.071 557.16C219.591 556.85 220.021 556.24 220.251 555.68C220.391 555.33 220.211 554.61 219.921 554.38C218.961 553.63 217.931 552.95 216.841 552.4C216.021 551.98 215.061 551.51 214.191 551.57C212.331 551.69 210.471 552.09 208.631 552.47C206.371 552.93 204.141 553.83 201.881 553.92C198.711 554.05 195.861 555.38 192.791 555.8C191.551 555.97 190.341 556.5 188.801 556.97ZM246.021 534.57C246.951 535.51 247.741 536.32 248.551 537.12C249.681 538.23 249.741 538.55 249.181 539.95C248.911 540.62 248.661 541.31 248.551 542.01C248.301 543.55 248.591 543.96 250.091 544.28C252.131 544.72 254.251 544.92 256.211 545.6C257.761 546.14 258.811 545.62 259.981 544.89C262.661 543.21 265.271 541.41 268.061 539.94C270.181 538.81 271.711 537.02 274.221 535.69C272.731 534.95 271.721 534.44 270.711 533.94C267.301 532.27 263.801 531.05 259.891 531.72C258.041 532.04 256.161 532.19 254.291 532.39C251.511 532.68 248.811 533.23 246.021 534.57ZM227.811 506.04C227.671 507.89 229.261 508.03 230.331 508.63C233.201 510.25 236.111 511.81 239.441 512.33C239.461 512.15 239.521 511.99 239.471 511.89C238.191 508.95 236.871 506.02 235.631 503.07C235.271 502.22 235.061 501.29 234.901 500.37C234.701 499.19 234.621 498 234.471 496.63C233.611 496.84 232.951 496.89 232.391 497.16C230.911 497.88 229.391 498.39 227.751 498.69C224.941 499.2 222.221 500.29 219.251 499.56C217.931 499.23 216.481 499.02 215.161 499.21C213.741 499.42 212.601 499.13 211.381 498.22C210.941 498.69 210.561 499.11 210.031 499.68C211.681 500.1 213.061 500.3 214.321 500.8C216.031 501.48 217.891 502.01 218.741 503.99C218.951 504.47 219.661 504.93 220.201 505.02C222.611 505.43 225.051 505.69 227.811 506.04ZM313.381 572.62C312.991 571.69 312.401 570.85 312.311 569.96C311.961 566.44 311.711 562.91 311.531 559.37C311.461 558 311.811 556.61 311.721 555.25C311.571 553.11 312.811 551.77 314.341 550.79C316.071 549.68 317.641 548.25 319.701 547.68C320.391 547.49 321.021 547.1 321.711 546.79C318.771 546.79 315.931 546.79 313.101 546.79C312.471 550.84 312.191 551.2 309.001 551.85C309.061 552.71 308.991 553.6 309.211 554.42C310.191 558.05 308.931 561.55 308.641 565.1C308.551 566.17 308.061 567.45 307.311 568.19C305.671 569.8 303.491 569.61 301.921 567.9C301.101 567.01 300.161 566.52 299.061 566.06C295.611 564.61 291.931 563.67 288.791 561.52C288.481 561.31 288.111 561.18 287.771 561.01C287.731 561.08 287.681 561.16 287.641 561.23C291.501 565.15 295.371 569.08 299.341 573.11C299.471 573.03 299.951 572.92 300.041 572.66C300.701 570.87 302.161 571.08 303.511 571.35C304.341 571.51 305.061 572.15 305.891 572.38C306.641 572.59 307.501 572.39 308.241 572.62C309.331 572.96 310.361 573.52 311.311 573.94C311.981 573.51 312.571 573.13 313.381 572.62ZM305.811 563.4C305.991 562.5 306.281 561.52 306.361 560.52C306.571 558.08 306.901 555.63 306.281 553.18C306.021 552.15 305.571 551.74 304.451 551.85C302.861 552 301.321 552.15 299.791 552.77C298.611 553.25 297.271 553.31 296.001 553.57C294.731 553.84 293.461 554.11 292.201 554.41C291.641 554.54 291.091 554.76 290.541 554.93C288.921 555.41 287.301 555.88 285.581 556.37C285.831 556.83 285.881 557.1 286.031 557.19C287.611 558.04 289.171 558.96 290.811 559.67C293.591 560.87 296.421 561.94 299.231 563.07C301.341 563.92 303.461 564.53 305.811 563.4ZM283.371 569.02C283.441 566.67 282.061 565.24 281.001 563.77C280.061 562.46 278.441 561.75 276.801 561.91C272.931 562.31 269.191 563.23 265.441 564.34C261.431 565.52 260.261 568.65 258.581 571.74C261.761 572.27 264.571 571.6 267.411 571.07C270.671 570.47 273.971 570.03 277.261 569.59C279.301 569.33 281.371 569.21 283.371 569.02ZM248.151 589.88C248.091 590.07 248.031 590.26 247.971 590.45C249.441 591.32 250.881 592.25 252.391 593.05C255.791 594.83 259.451 595.56 263.271 595.53C264.071 595.52 264.881 595.54 265.661 595.7C269.451 596.5 273.071 595.49 276.791 594.88C276.611 592.58 276.451 590.44 276.261 588.03C275.361 588.21 274.621 588.35 273.891 588.52C273.271 588.66 272.671 588.88 272.051 588.99C269.591 589.43 267.081 589.7 264.661 590.31C261.131 591.21 257.611 591.72 253.991 591.07C253.011 590.9 252.011 590.83 251.041 590.63C250.071 590.43 249.111 590.14 248.151 589.88ZM314.761 593.41C314.531 591.4 314.301 589.62 314.141 587.84C313.981 586.04 313.911 584.24 313.801 582.44C313.671 582.36 313.551 582.28 313.421 582.2C311.431 585.33 308.831 586.68 305.281 585.15C302.421 587.82 299.651 590.41 296.881 593.01C296.921 593.16 296.961 593.31 297.001 593.46C302.811 593.6 308.621 594.27 314.761 593.41ZM209.501 591.29C214.981 581.56 220.381 571.95 225.911 562.12C224.701 561.55 223.421 560.95 222.011 560.28C220.841 562.53 219.711 564.62 218.671 566.76C217.981 568.17 217.411 569.64 216.831 571.1C216.541 571.83 216.531 572.76 216.071 573.33C214.091 575.77 213.321 578.82 211.731 581.46C210.191 584.01 208.931 586.73 207.551 589.37C207.331 589.79 207.101 590.2 206.771 590.81C207.741 590.98 208.501 591.11 209.501 591.29ZM293.241 506.5C292.481 506.57 291.901 506.75 291.351 506.67C288.871 506.29 286.411 505.83 283.941 505.4C283.031 505.24 282.111 505.17 281.221 504.95C279.421 504.5 277.631 503.97 275.831 503.49C275.061 503.28 274.271 502.93 273.511 502.99C270.941 503.18 268.381 503.51 265.821 503.82C265.321 503.88 264.741 503.93 264.371 504.22C263.211 505.09 261.911 504.97 260.621 504.91C258.741 504.83 256.871 504.68 254.941 504.56C254.371 505.46 253.871 506.27 253.261 507.23C256.071 507.32 258.541 507.65 261.041 507.8C264.741 508.03 267.851 507.06 270.741 504.98C271.951 504.11 273.051 503.93 274.271 504.83C276.191 506.24 278.451 506.68 280.651 507.33C282.511 507.89 284.531 508.16 286.191 509.09C288.861 510.59 291.241 509.81 293.821 509.18C293.581 508.13 293.421 507.37 293.241 506.5ZM321.761 572.54C322.311 572.78 323.021 572.87 323.281 573.25C323.641 573.78 323.651 574.53 323.821 575.19C323.301 575.25 322.721 575.48 322.261 575.34C321.191 575.02 320.161 574.53 318.951 574.04C318.421 574.64 317.871 575.25 317.071 576.14C318.381 576.69 319.351 577.11 320.341 577.51C322.821 578.51 325.321 579.44 327.771 580.5C328.661 580.88 329.081 580.72 329.441 579.86C330.471 577.39 331.651 575.01 333.181 572.79C333.911 571.74 333.291 570.32 332.201 569.46C331.601 568.99 331.131 568.36 330.611 567.79C330.041 567.17 329.491 566.54 328.851 565.84C327.761 567.01 326.851 567.99 325.841 569.08C326.411 569.46 326.911 569.66 327.201 570.03C327.461 570.37 327.681 570.94 327.591 571.32C327.321 572.4 326.661 572.57 325.641 571.97C323.531 570.74 323.341 570.76 321.761 572.54ZM218.811 560.89C214.541 563.08 212.221 566.51 210.171 570.05C208.261 573.34 206.731 576.86 205.001 580.26C204.131 581.97 203.181 583.64 202.271 585.34C201.951 585.93 201.671 586.54 201.331 587.23C202.871 587.38 204.071 587.49 205.411 587.62C210.291 579.06 213.971 569.91 218.811 560.89ZM243.101 531.8C239.951 530.63 237.301 529.44 236.281 526.17C231.811 528.73 227.251 531.05 221.941 532.22C224.001 534.26 225.831 535.84 228.651 534.6C228.961 534.46 229.371 534.59 229.731 534.55C234.131 533.99 238.571 533.64 243.101 531.8ZM210.231 512.2C209.901 510.34 209.671 508.24 209.101 506.24C208.761 505.03 207.921 503.94 207.211 502.87C206.751 502.18 206.111 502.25 205.591 502.89C204.581 504.12 203.491 505.29 203.741 507.1C203.841 507.88 203.601 508.69 203.641 509.48C203.741 511.69 203.751 513.93 204.091 516.11C204.611 519.43 205.951 519.21 208.341 518.3C209.611 517.82 209.601 516.6 209.891 515.64C210.201 514.64 210.121 513.51 210.231 512.2ZM348.221 550.58C343.741 549.4 340.691 551.02 337.811 556.03C339.711 556.86 341.591 557.71 343.511 558.49C344.251 558.79 345.141 558.84 345.411 559.74C345.611 560.43 345.681 561.16 345.831 562.04C347.001 561.79 348.181 561.54 349.581 561.24C349.111 557.59 348.661 554.04 348.221 550.58ZM288.901 589.78C290.261 590.14 291.471 590.31 292.551 590.78C294.271 591.54 295.331 590.7 296.461 589.62C298.381 587.79 300.311 585.95 302.391 584.3C303.181 583.68 303.701 583.28 303.341 582.24C302.981 581.19 302.351 580.69 301.211 580.95C299.811 581.26 298.391 581.54 296.981 581.83C294.741 582.29 292.431 582.6 291.931 585.49C291.851 585.95 291.431 586.36 291.141 586.77C290.471 587.7 289.781 588.6 288.901 589.78ZM184.931 613.39C187.681 615.03 194.451 616.02 197.571 615.38C198.311 614.48 197.601 613.62 197.561 612.74C197.521 611.9 198.051 611.04 198.311 610.24C195.551 609.22 192.931 608.25 190.111 607.21C188.421 609.23 186.731 611.24 184.931 613.39ZM267.991 510.33C269.261 511.92 270.761 513 272.711 513.29C274.991 513.63 277.291 514.17 279.581 514.14C281.351 514.12 283.111 513.36 284.881 512.94C284.901 512.75 284.921 512.56 284.941 512.36C282.871 511.63 280.951 510.62 279.031 509.62C277.041 508.58 274.691 508.23 272.291 507.52C271.251 508.64 268.891 508.41 267.991 510.33ZM179.611 588.04C178.061 592.89 177.501 597.68 177.061 602.63C179.371 602.14 181.401 601.7 183.721 601.21C180.681 597.1 182.061 592.91 182.611 588.7C181.611 588.48 180.711 588.28 179.611 588.04ZM341.421 527.72C341.061 523.21 341.391 517.83 338.431 513.24C338.011 513.16 337.871 513.11 337.731 513.11C334.931 513.1 334.551 513.6 335.301 516.31C336.041 519 336.771 521.69 337.571 524.36C337.721 524.88 338.061 525.44 338.481 525.76C339.511 526.55 340.641 527.21 341.421 527.72ZM242.941 513.17C244.831 513.44 246.321 513.36 247.501 511.98C248.541 510.75 249.351 509.46 249.401 507.84C246.841 506.6 244.351 505.38 241.991 504.23C241.221 504.93 240.611 505.48 239.801 506.22C240.821 508.48 241.871 510.81 242.941 513.17ZM177.731 605.23C178.091 607.06 178.921 608.83 180.111 610.47C181.261 612.05 182.981 612.32 183.921 610.67C184.731 609.24 185.881 608.24 186.941 607.1C187.311 606.71 187.501 606.15 187.671 605.84C186.151 603.24 184.151 603.25 181.821 604.19C180.531 604.7 179.111 604.89 177.731 605.23ZM211.311 502.56C211.191 502.72 211.061 502.88 210.941 503.03C211.421 504.52 212.041 505.99 212.351 507.52C212.681 509.13 212.801 510.8 212.851 512.45C212.901 513.95 212.731 515.46 212.641 517.26C213.341 516.77 213.851 516.56 214.131 516.19C215.261 514.7 216.421 513.22 217.401 511.63C218.311 510.15 217.531 508.04 215.971 507.09C215.501 506.8 214.991 506.36 214.801 505.87C214.621 505.42 214.851 504.82 214.921 504.11C213.721 503.61 212.521 503.09 211.311 502.56ZM191.641 575.27C194.441 574.7 197.001 574.17 199.691 573.62C199.961 571.81 199.571 569.91 198.821 567.77C196.201 569.06 193.741 570.22 191.351 571.51C190.941 571.73 190.621 572.62 190.711 573.12C190.841 573.93 191.361 574.66 191.641 575.27ZM220.831 594.18C217.691 594.7 216.321 596.03 215.701 598.55C215.361 599.93 214.741 601.28 214.041 602.53C213.341 603.78 212.381 604.9 211.501 606.13C211.731 606.66 211.951 607.19 212.191 607.7C212.241 607.81 212.421 607.86 212.691 608.04C216.961 604.38 219.301 599.61 220.831 594.18ZM210.511 609.97C209.921 609.08 209.431 608.35 209.081 607.82C206.611 608.65 204.431 609.39 202.251 610.11C201.491 610.36 200.411 611.56 200.701 612.16C201.201 613.19 200.871 614.06 200.471 615.13C204.881 615.4 207.511 612.7 210.511 609.97ZM202.121 566.82C202.001 567.24 201.841 567.53 201.861 567.79C202.091 569.93 202.291 572.08 202.651 574.2C202.731 574.67 203.391 575.04 204.051 575.74C205.811 572.49 207.381 569.6 209.071 566.48C206.611 566.11 204.461 566.67 202.121 566.82ZM184.001 586C184.631 583.55 187.121 578.84 189.551 576.99C189.101 576.21 188.641 575.43 188.101 574.5C184.771 577.66 181.871 580.88 180.691 585.39C181.821 585.6 182.921 585.8 184.001 586ZM289.411 584.65C287.261 584.09 285.701 585.28 283.961 585.66C282.151 586.06 280.341 586.49 278.641 586.88C278.841 588.74 279.021 590.43 279.241 592.53C280.821 591.23 282.181 590.1 283.561 588.99C283.981 588.65 284.421 588.18 284.901 588.11C287.031 587.83 288.331 586.55 289.411 584.65ZM307.781 575.7C307.221 576.95 307.001 578.25 306.231 578.99C305.041 580.16 305.131 581.03 306.111 582.13C306.381 582.44 306.541 582.86 306.721 583.19C309.841 582.94 311.361 581.22 312.061 577.04C310.691 576.62 309.281 576.17 307.781 575.7ZM354.191 593.29C353.061 592.93 352.111 592.32 351.231 592.41C350.101 592.51 349.271 592.09 348.371 591.66C347.021 591.03 345.671 590.4 344.141 589.69C344.631 592.24 344.611 592.38 343.681 594.59C347.271 595.93 350.661 595.59 354.191 593.29ZM228.691 555.16C230.021 552.58 231.211 550.28 232.491 547.79C231.801 546.84 231.071 545.82 230.021 544.35C228.721 548.1 226.991 551.14 226.301 554.81C227.241 554.95 227.921 555.05 228.691 555.16ZM185.581 589.52C184.121 594.16 184.451 599.14 186.971 600.37C187.421 596.89 187.871 593.44 188.331 589.94C187.441 589.8 186.581 589.67 185.581 589.52ZM193.171 581.98C192.501 581.15 191.881 580.38 191.091 579.41C189.111 581.66 187.521 583.97 186.501 586.96C187.691 587.11 188.661 587.24 189.541 587.35C190.821 585.46 191.991 583.73 193.171 581.98ZM251.261 596.03C250.201 595.16 249.531 594.3 248.661 593.95C246.031 592.91 244.361 590.66 242.151 589.09C241.061 588.32 240.981 588.23 239.581 589.3C242.441 593.11 246.261 595.22 251.261 596.03ZM223.521 553.4C224.311 551.67 225.011 550.14 225.971 548.03C222.911 548.83 220.131 548.37 217.351 549.74C219.541 551.04 221.441 552.17 223.521 553.4ZM216.041 542.69C215.981 543.87 215.941 544.92 215.871 546.25C218.211 545.61 220.391 545.02 222.541 544.44C222.121 542.13 221.611 541.56 219.971 541.77C218.651 541.94 217.361 542.37 216.041 542.69ZM241.821 500.18C241.771 500.43 241.721 500.68 241.671 500.94C243.091 502.1 244.851 502.75 246.451 503.61C247.551 504.2 248.791 504.57 250.011 504.86C250.411 504.95 251.201 504.58 251.371 504.22C251.661 503.6 251.361 503.04 250.581 502.73C248.381 501.85 246.241 500.8 244.021 499.98C243.401 499.74 242.561 500.09 241.821 500.18ZM337.451 558.98C337.321 561.46 337.201 563.77 337.081 566.08C339.441 564.73 340.891 562.89 341.971 560.5C340.421 559.98 339.081 559.53 337.451 558.98ZM216.291 585.49C216.731 587.77 216.031 590.15 216.841 592.53C217.921 592.14 218.791 591.82 219.881 591.43C219.451 589.28 219.041 587.19 218.621 585.08C217.761 585.23 217.121 585.34 216.291 585.49ZM241.721 496.98C241.981 496.26 242.501 495.53 242.471 494.82C242.351 491.96 243.601 489.53 244.551 486.98C244.881 486.09 245.291 485.05 244.001 484.28C241.601 486.61 242.091 489.82 241.391 492.6C241.071 493.9 240.711 495.49 241.721 496.98ZM357.121 584.89C355.881 581.46 353.061 581 349.441 582.63C349.731 583.93 350.021 585.23 350.961 586.48C352.541 584.42 354.331 583.35 357.121 584.89ZM209.741 603.31C211.101 601.8 212.511 600.39 212.941 598.03C210.831 598.43 208.821 598.45 206.911 599.47C207.721 600.95 208.211 602.41 209.741 603.31ZM334.061 560.01C333.011 561.26 331.951 562.51 330.821 563.86C331.351 564.48 331.781 565.17 332.381 565.63C333.041 566.13 332.671 567.51 334.051 567.4C335.081 565.03 334.251 562.56 334.061 560.01ZM229.651 563.25C231.241 566 232.691 568.5 234.131 570.99C234.361 570.27 234.471 569.54 234.241 568.93C233.321 566.49 232.311 564.09 231.241 561.46C230.601 562.19 230.141 562.7 229.651 563.25ZM195.541 580.47C196.701 578.71 199.301 579.45 200.381 577.44C197.671 575.99 195.851 576.29 193.661 578.41C194.181 578.99 194.711 579.57 195.541 580.47ZM303.311 574.39C302.251 574.8 301.251 575.06 300.391 575.57C299.991 575.8 299.631 576.53 299.691 576.98C299.751 577.46 300.261 577.98 300.701 578.27C301.271 578.64 303.651 577.84 304.061 577.24C304.821 576.14 304.141 575.37 303.311 574.39ZM237.981 494.82C237.701 495.33 237.211 495.82 237.191 496.34C237.101 498.5 237.151 500.67 238.671 502.32C239.471 499.85 239.151 497.43 237.981 494.82ZM205.031 601.64C204.201 603.76 203.581 605.33 202.871 607.13C204.721 606.75 206.161 606.17 207.201 604.8C206.511 603.79 205.891 602.88 205.031 601.64ZM357.501 588.77C357.481 588 356.581 587.1 355.841 587.12C354.581 587.16 353.521 587.95 353.481 588.89C353.451 589.67 354.441 590.57 355.371 590.6C356.231 590.64 357.521 589.53 357.501 588.77ZM222.661 557.54C224.241 558.2 225.791 558.66 227.151 559.45C228.341 560.14 228.811 559.67 229.491 558.63C227.531 557.84 225.751 557.11 223.951 556.4C223.061 556.05 222.771 556.56 222.661 557.54ZM204.081 597C206.701 597.47 207.241 597.05 207.951 593.93C205.431 593.37 203.941 594.55 204.081 597ZM213.681 590.45C212.001 591.41 212.071 593.35 210.961 594.48C210.841 594.6 211.111 595.1 211.221 595.49C212.221 595.2 213.081 594.95 213.931 594.71C213.841 593.27 213.761 591.95 213.681 590.45ZM348.071 543.43C346.841 544.86 345.841 546.02 344.761 547.27C346.131 547.66 347.301 547.76 348.471 547.01C348.341 545.87 348.221 544.76 348.071 543.43ZM223.701 508.3C222.541 508.15 221.581 508.02 220.391 507.86C220.461 509.09 220.531 510.18 220.601 511.31C222.321 510.98 222.961 509.73 223.701 508.3ZM310.411 547.57C309.501 547.38 309.021 547.2 308.541 547.2C307.721 547.21 307.371 547.93 307.901 548.54C308.141 548.82 308.751 549.16 308.941 549.05C309.431 548.77 309.771 548.25 310.411 547.57ZM219.361 579.62C218.921 580.53 218.661 581.06 218.431 581.53C219.221 581.68 219.891 581.81 220.541 581.94C220.281 581.43 219.941 580.75 219.361 579.62ZM341.891 592.37C341.461 591.56 341.331 590.92 340.981 590.75C340.331 590.43 339.941 590.89 339.811 591.72C340.321 591.88 340.841 592.04 341.891 592.37ZM233.781 535.92C233.421 535.62 233.091 535.21 232.961 535.27C232.661 535.4 232.451 535.75 232.211 536.02C232.461 536.22 232.701 536.57 232.961 536.58C233.181 536.58 233.421 536.22 233.781 535.92Z" fill="black"/>
<path d="M652.491 471.39C654.101 470.11 655.001 468.32 655.951 466.58C656.181 466.15 656.301 465.64 656.401 465.16C657.041 461.9 657.581 458.61 658.311 455.37C659.151 451.64 661.221 448.82 664.931 447.41C666.151 446.95 667.311 446.28 668.571 445.99C671.581 445.29 674.501 445.4 676.901 447.73C678.141 448.93 679.621 449.92 680.171 451.7C680.261 452 680.641 452.37 680.941 452.43C682.471 452.73 683.001 454.2 684.071 455.02C684.391 455.26 684.681 455.71 684.741 456.1C684.971 457.53 685.181 458.97 685.231 460.42C685.281 461.77 684.811 462.23 683.701 462.4C682.551 462.57 682.151 461.97 681.991 460.95C681.921 460.5 681.571 460.09 681.351 459.67C681.091 459.77 680.871 459.81 680.861 459.87C680.691 461.75 679.401 463.14 678.591 464.71C677.631 466.54 676.271 468.16 675.161 469.92C673.601 472.39 671.141 473.8 668.841 475.41C668.551 475.62 668.061 475.65 667.891 475.91C667.551 476.42 667.151 477.06 667.211 477.6C667.251 477.99 668.031 478.65 668.411 478.6C670.221 478.38 671.211 479.5 672.241 480.63C673.751 482.29 675.921 482.84 677.771 483.92C680.081 485.26 682.441 486.5 684.751 487.84C685.361 488.19 685.851 488.75 686.671 489.45C687.831 489.12 689.331 488.69 690.901 488.24C690.761 486.2 690.661 484.28 690.481 482.37C690.311 480.54 688.501 478.52 686.721 478.09C686.021 477.92 685.301 477.79 684.581 477.7C683.021 477.51 682.211 476.81 682.141 475.27C682.081 474.11 682.121 472.93 682.311 471.79C682.681 469.56 684.301 468.55 686.581 468.97C687.931 469.22 689.311 469.37 690.641 469.72C691.531 469.95 692.431 470.31 693.181 470.83C694.381 471.65 695.541 472.06 697.021 471.7C697.901 471.49 698.871 471.62 699.801 471.61C702.171 471.6 704.541 471.61 707.011 471.61C707.111 468.93 708.431 467.73 711.041 467.87C710.281 467.23 709.591 467.01 708.721 467.17C706.491 467.6 704.271 467.43 702.061 466.95C701.441 466.81 700.881 466.65 700.851 465.93C700.821 465.14 701.351 464.74 702.081 464.68C703.511 464.57 704.951 464.5 706.391 464.44C707.901 464.38 709.411 464.36 710.921 464.32C711.281 464.31 711.641 464.3 712.001 464.32C715.151 464.44 718.301 464.56 721.321 464.67C723.071 461.67 725.741 461.23 728.531 461.19C730.631 461.16 732.731 461.33 734.831 461.37C738.151 461.42 741.461 461.4 744.781 461.48C746.411 461.52 748.151 461.91 748.941 463.38C749.771 464.94 749.691 466.81 748.711 468.39C748.421 468.86 747.691 469.2 747.111 469.31C746.421 469.45 745.681 469.24 744.961 469.25C743.311 469.27 741.651 469.44 740.011 469.37C736.781 469.23 733.561 468.92 730.341 468.79C728.471 468.71 726.581 468.79 724.711 468.87C723.601 468.92 722.551 468.96 721.731 468.02C721.501 467.76 721.161 467.45 720.861 467.43C719.571 467.37 718.281 467.39 716.991 467.45C716.811 467.46 716.641 467.83 716.451 468.05C717.351 468.89 718.181 469.65 718.911 470.33C720.501 470.52 722.071 470.97 723.591 470.83C725.311 470.68 726.881 471.28 728.531 471.31C730.821 471.35 731.931 472.9 732.901 474.61C734.191 476.89 735.801 478.99 737.901 480.46C738.881 481.15 740.631 480.93 742.001 480.81C743.121 480.71 744.181 480.07 745.301 479.8C747.501 479.28 748.811 477.51 750.321 476.12C751.461 475.06 752.701 474.79 754.041 474.69C755.181 474.61 756.351 474.81 757.501 474.98C758.451 475.12 758.811 475.85 758.831 476.72C758.851 477.59 758.831 478.47 758.721 479.33C758.101 484.21 758.961 489.09 758.821 493.97C758.751 496.31 758.311 496.8 756.001 496.77C754.631 496.75 753.241 496.75 751.881 496.57C751.191 496.48 750.461 496.16 749.901 495.74C747.801 494.18 745.551 493.21 742.851 493.48C742.141 493.55 741.401 493.35 740.691 493.25C739.111 493.02 737.721 493.5 736.821 494.76C735.901 496.06 734.691 496.38 733.271 496.45C732.401 496.49 731.531 496.56 730.531 496.63C729.381 498.19 728.151 499.78 727.031 501.44C726.791 501.8 726.801 502.46 726.931 502.91C727.441 504.72 726.601 505.98 725.341 507.05C724.381 507.87 724.161 508.81 724.621 510.01C725.101 510.09 725.591 510.19 726.091 510.24C726.831 510.32 727.851 509.74 728.191 510.79C728.581 511.98 729.551 513.26 728.631 514.5C727.651 515.81 728.151 517.03 728.561 518.21C729.171 519.97 730.111 521.62 730.721 523.38C731.851 526.65 732.811 529.97 733.931 533.24C734.421 534.67 735.171 536.01 735.691 537.43C736.971 540.94 738.161 544.49 739.431 548C740.231 550.23 741.361 552.37 741.881 554.65C742.461 557.16 743.901 559.27 744.581 561.7C744.721 562.18 744.681 562.71 744.791 563.21C744.941 563.91 744.971 564.76 745.381 565.28C747.331 567.7 747.391 570.83 748.631 573.51C749.111 574.55 749.491 575.64 749.831 576.73C750.671 579.49 751.351 582.31 752.861 584.82C752.921 588.13 755.061 590.74 755.891 593.82C757.031 598.07 758.851 602.13 760.401 606.26C760.901 607.61 761.771 608.89 761.951 610.27C762.471 614.28 764.891 617.57 765.921 621.37C766.291 622.74 766.891 624.06 767.291 625.42C767.391 625.77 767.311 626.44 767.081 626.57C766.621 626.84 765.931 627.07 765.481 626.91C764.931 626.71 764.351 626.17 764.121 625.64C763.401 624 762.821 622.29 762.231 620.59C761.451 618.34 760.751 616.07 759.941 613.84C758.631 610.24 757.271 606.66 755.921 603.08C754.931 600.44 753.921 597.8 752.931 595.16C751.921 592.47 750.991 589.74 749.901 587.08C748.361 583.32 746.711 579.62 745.101 575.89C744.611 574.76 744.111 573.63 743.661 572.48C742.651 569.94 741.681 567.39 740.661 564.85C739.351 561.57 738.001 558.31 736.681 555.04C735.551 552.23 734.461 549.4 733.301 546.61C732.311 544.21 730.961 541.94 730.651 539.3C730.631 539.16 730.601 539.01 730.521 538.89C728.271 535.34 727.331 531.21 725.521 527.46C724.591 525.54 723.871 523.52 722.701 521.56C722.601 521.99 722.471 522.41 722.391 522.84C721.711 526.55 721.761 530.31 721.491 534.06C721.301 536.8 720.831 539.51 720.531 542.24C720.401 543.37 720.371 544.52 720.271 545.65C720.121 547.52 719.961 549.38 719.781 551.25C719.481 554.46 719.141 557.66 718.861 560.87C718.541 564.51 718.291 568.16 717.981 571.81C717.881 572.96 717.751 574.11 717.551 575.25C717.171 577.39 717.321 579.59 717.021 581.7C716.691 584.04 716.591 586.36 716.431 588.7C716.051 594.01 715.571 599.31 715.051 604.61C714.821 606.98 714.271 609.32 714.111 611.69C713.771 616.63 713.111 621.54 712.891 626.49C712.851 627.27 712.811 628.02 711.831 628.06C710.971 628.09 710.481 627.48 710.331 626.73C710.161 625.88 710.071 624.99 710.121 624.13C710.331 620.76 710.571 617.39 710.861 614.02C711.051 611.78 711.371 609.56 711.591 607.32C711.771 605.45 711.911 603.57 712.031 601.69C712.271 598.01 712.351 594.31 712.731 590.65C713.111 586.97 713.121 583.3 713.181 579.62C713.201 578.34 713.331 577.06 713.391 575.78C713.651 570.3 713.901 564.81 714.151 559.33C714.321 555.58 714.551 551.82 714.581 548.06C714.591 546.91 714.321 545.79 714.901 544.7C714.991 544.53 714.961 544.26 714.911 544.05C714.201 541.18 714.981 538.33 714.961 535.46C714.941 533.45 715.261 531.44 715.301 529.43C715.321 528.22 715.101 527 714.611 525.71C714.081 527.06 713.531 528.4 713.011 529.75C711.291 534.22 709.551 538.69 707.871 543.18C707.541 544.05 707.491 545.02 707.181 545.89C706.251 548.47 705.241 551.02 704.301 553.6C703.661 555.35 703.101 557.13 702.451 558.88C702.041 559.96 701.481 560.97 701.071 562.05C700.711 562.97 700.511 563.95 700.171 564.89C699.711 566.17 699.171 567.42 698.701 568.7C697.151 572.9 695.631 577.12 694.071 581.31C692.681 585.04 691.221 588.74 689.861 592.48C688.501 596.19 687.231 599.94 685.911 603.67C684.991 606.26 684.091 608.85 683.121 611.42C681.861 614.78 680.531 618.12 679.261 621.48C678.751 622.83 678.461 624.27 677.821 625.55C677.141 626.91 676.231 626.88 674.771 626.34C673.541 625.88 672.091 625.53 670.831 625.73C668.391 626.11 666.071 625.6 663.691 625.41C661.181 625.21 658.661 625.06 656.151 625.03C655.071 625.02 654.321 624.6 653.771 623.8C653.511 623.43 653.311 622.85 653.401 622.43C653.991 619.59 654.621 616.76 655.331 613.96C655.541 613.14 656.091 612.41 656.311 611.97C656.041 610.27 655.821 608.87 655.591 607.48C655.111 604.64 655.431 601.76 655.021 598.88C654.561 595.65 654.991 592.3 655.011 589.01C655.031 586.2 655.001 583.38 655.051 580.57C655.071 579.59 655.261 578.61 655.231 577.6C654.541 578.41 654.501 579.43 654.411 580.4C654.231 582.34 654.111 584.29 654.001 586.24C653.871 588.54 653.761 590.83 653.651 593.13C653.551 595.22 653.471 597.3 653.381 599.39C653.311 601.12 653.271 602.86 653.181 604.59C653.111 605.95 653.011 607.32 652.861 608.67C652.731 609.84 651.841 610.44 650.521 610.45C649.181 610.46 647.831 610.55 646.351 610.6C646.411 611.28 646.401 611.77 646.501 612.24C647.161 615.57 647.881 618.89 648.491 622.23C648.891 624.4 648.061 625.45 645.911 625.9C645.151 626.06 644.411 626.38 643.651 626.54C642.741 626.73 641.821 626.84 640.901 626.97C640.051 627.1 639.191 627.21 638.351 627.35C638.001 627.41 637.671 627.6 637.321 627.62C633.811 627.82 630.301 628 626.801 628.18C625.891 628.23 624.071 627.01 623.671 626.09C623.331 625.3 624.061 623.5 625.051 622.87C625.661 622.48 626.321 622.16 626.991 621.87C629.061 620.99 631.151 620.16 633.221 619.29C634.951 618.57 636.711 617.91 638.381 617.07C638.861 616.83 639.361 616.04 639.341 615.53C639.261 613.6 639.081 611.66 638.691 609.78C638.521 608.98 638.401 608.34 638.651 607.51C638.951 606.51 638.911 605.39 638.931 604.32C638.941 603.53 638.761 602.74 638.771 601.96C638.831 597.48 638.891 593 639.001 588.52C639.061 585.78 639.221 583.04 639.291 580.29C639.371 577.34 639.351 574.38 639.471 571.43C639.611 568.11 639.821 564.79 640.061 561.48C640.231 559.13 640.511 556.78 640.691 554.43C640.751 553.58 640.581 552.71 640.651 551.86C640.901 548.91 641.291 545.96 641.471 543C641.591 541.01 641.491 539.01 641.431 537.01C641.351 534.42 641.241 531.83 641.091 529.24C641.031 528.24 640.801 527.25 640.691 526.26C640.591 525.42 640.561 524.56 640.471 523.72C639.991 519.43 639.521 515.14 639.001 510.86C638.571 507.27 638.071 503.7 637.621 500.11C637.431 498.62 637.251 497.12 637.161 495.62C636.971 492.48 636.821 489.34 636.711 486.2C636.541 481.5 638.461 477.84 642.161 474.95C643.531 473.88 644.911 472.95 646.441 472.12C649.191 470.63 649.771 470.45 652.491 471.39ZM711.621 522.47C712.101 522.78 712.471 522.63 712.641 522.14C713.501 519.72 714.331 517.28 715.171 514.85C715.181 514.81 715.091 514.74 714.981 514.6C713.901 515 713.671 516.05 713.361 516.94C712.721 518.76 712.211 520.63 711.661 522.5C711.701 524 710.311 525.21 710.651 527.05C711.481 525.45 712.481 524.14 711.621 522.47ZM676.441 620.06C677.031 618.82 677.681 617.83 678.001 616.74C679.691 611.14 681.631 605.64 684.171 600.36C684.421 599.84 684.571 599.27 684.731 598.71C685.221 597.05 685.511 595.31 686.191 593.74C688.331 588.85 689.831 583.73 691.651 578.73C692.071 577.58 692.371 576.38 692.751 575.21C693.441 573.08 694.191 570.97 694.811 568.82C695.411 566.74 695.791 564.6 696.411 562.53C697.361 559.41 698.491 556.34 699.441 553.22C700.261 550.54 700.941 547.82 701.691 545.12C702.061 543.8 702.431 542.47 702.871 541.17C703.311 539.87 703.911 538.63 704.301 537.32C705.351 533.79 706.301 530.23 707.321 526.7C708.171 523.78 709.071 520.88 709.971 517.98C710.201 517.23 710.571 516.52 710.781 515.77C711.091 514.62 711.511 513.44 711.531 512.27C711.551 510.94 711.791 510.26 713.091 509.96C713.791 509.8 714.521 509.76 715.181 509.68C716.091 508.21 714.951 507.28 714.331 506.35C713.731 505.45 712.691 505.68 711.721 505.89C708.271 506.65 704.811 507.38 701.351 508.09C700.371 508.29 699.381 508.4 698.391 508.55C698.471 508.68 698.561 508.8 698.641 508.93C697.781 509.87 696.981 510.87 696.031 511.72C695.021 512.62 693.771 513.28 692.791 514.22C691.441 515.52 689.811 515.73 688.141 515.64C686.781 515.57 685.421 515.2 684.081 514.88C680.791 514.07 677.511 513.21 674.151 512.35C674.151 516.47 674.151 520.33 674.151 524.18C674.151 526.13 674.231 528.07 674.161 530.02C674.041 533.19 673.801 536.36 673.671 539.53C673.561 542.28 673.561 545.03 673.451 547.78C673.381 549.5 673.091 551.22 673.061 552.94C673.041 554.3 673.331 555.66 673.361 557.03C673.421 560.35 673.461 563.66 673.411 566.98C673.371 570.12 673.291 573.27 673.061 576.41C672.901 578.7 672.991 581.06 671.871 583.2C671.771 583.38 671.811 583.63 671.781 583.84C671.141 587.84 670.521 591.84 669.831 595.83C669.461 597.97 668.971 600.09 668.551 602.22C668.131 604.33 667.751 606.45 667.301 608.55C667.231 608.87 666.881 609.13 666.701 609.44C666.391 609.98 666.011 610.51 665.841 611.1C665.501 612.28 665.331 613.51 664.991 614.68C664.421 616.64 665.271 617.67 667.171 617.91C670.351 618.28 673.401 619.04 676.441 620.06ZM659.741 499C658.171 496.38 656.681 494 655.321 491.56C654.481 490.05 653.741 488.47 653.111 486.86C652.691 485.78 653.261 485.12 654.371 485.28C654.861 485.35 655.471 485.72 655.731 486.13C657.041 488.27 657.541 490.84 659.301 492.74C659.431 492.88 659.371 493.2 659.501 493.35C661.021 495.07 661.221 498.09 664.331 498.25C664.521 498.26 664.691 498.5 664.881 498.59C666.541 499.37 668.211 500.15 670.001 500.98C670.081 500.5 670.171 500.22 670.151 499.95C669.731 494.31 670.191 488.61 668.811 483.01C668.501 481.74 668.191 481.09 667.051 480.72C666.511 480.55 665.991 480.29 665.251 479.98C664.311 481.8 662.531 482.15 660.791 482.11C658.211 482.05 655.831 481.23 654.091 479.11C652.581 477.27 651.021 475.47 649.471 473.63C648.981 473.9 648.491 474.2 647.971 474.46C643.101 476.85 639.811 480.29 639.641 486.11C639.601 487.48 639.791 488.81 639.781 490.16C639.761 493.78 640.231 497.35 640.731 500.92C641.161 503.98 641.631 507.04 641.981 510.11C642.301 512.91 642.451 515.72 642.741 518.52C643.201 523.11 643.741 527.7 644.191 532.29C644.341 533.86 644.331 535.44 644.391 537.08C647.461 537.29 650.361 537.57 653.281 537.65C656.891 537.76 660.501 537.73 664.111 537.72C666.001 537.72 667.881 537.62 669.771 537.58C670.801 537.56 671.111 537.01 671.091 536.04C671.051 534.4 671.091 532.76 671.151 531.12C671.251 528.09 671.461 525.07 671.491 522.04C671.531 519 671.411 515.96 671.351 512.92C671.341 512.49 671.261 512.07 671.171 511.38C668.871 511.07 666.551 510.95 664.321 510.42C661.621 509.79 658.921 509.4 656.161 509.23C655.321 509.18 654.461 508.85 653.691 508.48C653.001 508.15 652.401 507.84 651.651 508.22C650.451 508.82 649.751 508.12 649.111 507.24C647.471 504.96 645.811 502.7 644.191 500.41C642.991 498.7 641.451 497.2 640.881 495.09C640.591 494.04 640.921 493.59 642.001 493.55C642.931 493.51 643.371 493.98 643.811 494.79C644.441 495.98 645.331 497.03 646.131 498.13C646.301 498.36 646.551 498.53 646.711 498.76C648.181 500.87 649.631 503 651.261 505.36C654.191 503.19 656.981 501.08 659.741 499ZM644.711 540.18C644.581 541.11 644.441 541.82 644.381 542.54C644.031 546.79 643.551 551.04 643.451 555.29C643.421 556.54 642.881 557.68 642.971 558.84C643.221 562.01 642.521 565.12 642.671 568.3C642.841 571.98 642.441 575.68 642.291 579.37C642.261 580.24 642.331 581.11 642.271 581.97C642.111 584.16 641.761 586.34 641.731 588.53C641.691 591.55 641.931 594.57 641.941 597.59C641.951 600.8 641.841 604.01 641.781 607.36C644.441 607.67 647.121 607.96 649.771 607.07C649.941 606.14 650.171 605.36 650.201 604.58C650.311 601.92 650.331 599.25 650.431 596.58C650.561 593.31 650.741 590.05 650.901 586.78C650.961 585.49 650.981 584.19 651.101 582.9C651.551 578.08 652.841 573.44 654.091 568.78C654.551 567.05 655.121 565.3 655.201 563.54C655.261 562.14 655.631 560.88 655.981 559.57C656.131 559.02 656.261 558.46 656.341 557.89C656.691 555.47 656.941 553.03 657.381 550.63C657.961 547.38 658.681 544.16 659.361 540.83C654.461 540.62 649.701 540.4 644.711 540.18ZM664.531 607.5C664.751 606.49 664.931 605.72 665.091 604.94C665.451 603.14 665.861 601.35 666.151 599.54C666.641 596.48 666.911 593.38 667.541 590.35C668.081 587.75 669.141 585.28 669.291 582.56C669.501 578.95 669.991 575.36 670.321 571.76C670.491 569.85 670.011 567.96 670.441 566.01C670.791 564.43 670.501 562.71 670.511 561.05C670.521 559.38 670.541 557.72 670.561 556.05C670.611 552.65 670.661 549.25 670.701 545.85C670.721 544.2 670.701 542.55 670.701 540.62C668.281 540.68 665.931 540.78 663.591 540.8C662.301 540.81 661.801 541.49 661.641 542.67C661.381 544.59 661.041 546.51 660.741 548.43C660.111 552.43 659.511 556.43 658.821 560.42C658.431 562.68 657.861 564.92 657.411 567.17C657.321 567.63 657.221 568.34 657.471 568.58C658.271 569.34 657.901 570.2 657.941 571.04C657.981 571.89 658.071 572.74 658.101 573.58C658.151 575.44 658.201 577.29 658.201 579.15C658.201 579.95 658.021 580.74 658.011 581.54C657.961 584.56 657.891 587.58 657.921 590.6C657.961 595.12 658.041 599.64 658.191 604.16C658.231 605.51 658.561 606.84 658.791 608.38C660.831 608.06 662.731 607.77 664.531 607.5ZM709.621 496.51C707.771 496.42 706.141 496.06 704.621 496.33C702.941 496.63 701.481 496.31 699.941 495.87C699.121 495.64 698.141 495.32 697.391 495.56C694.661 496.45 691.791 496.73 689.191 498.25C687.111 499.47 684.721 500.17 682.861 501.84C682.521 502.15 681.931 502.37 681.491 502.33C680.061 502.21 678.611 502.03 677.221 501.7C675.851 501.38 674.521 500.84 673.191 500.4C672.431 502.27 672.491 502.5 673.911 503.07C675.051 503.53 676.251 503.86 677.361 504.37C679.271 505.25 681.291 505.63 683.361 505.84C683.851 505.89 684.381 505.76 684.851 505.6C686.561 505.03 688.211 504.23 689.951 503.85C692.631 503.27 695.221 503.52 697.251 505.89C702.291 504.19 707.841 504.53 713.061 502.23C711.821 500.19 710.661 498.25 709.621 496.51ZM678.761 456.56C677.691 456.52 675.441 457.26 674.471 457.92C672.031 459.58 669.081 459.7 666.881 457.83C664.991 456.23 663.051 456.7 660.971 456.77C660.131 460.52 658.941 463.95 659.511 467.75C659.811 469.73 660.691 471.13 662.031 472.36C663.311 473.53 664.841 473.84 666.461 473.12C667.371 472.71 668.321 472.29 669.091 471.67C671.401 469.81 673.371 467.75 674.941 465.09C676.541 462.39 678.101 459.8 678.761 456.56ZM724.091 476.9C723.941 478.06 723.691 479.32 723.631 480.59C723.451 484.1 723.931 487.62 723.351 491.14C723.021 493.17 723.671 493.75 725.721 493.77C727.381 493.79 729.041 493.89 730.691 493.78C731.971 493.7 733.351 493.61 734.471 493.07C735.771 492.44 736.841 491.32 738.171 490.29C738.341 488.3 738.531 486.09 738.721 483.88C735.761 482.83 733.811 480.84 732.181 478.65C730.991 477.05 729.511 476.9 727.831 476.9C726.671 476.91 725.521 476.9 724.091 476.9ZM686.461 475.25C687.811 475.88 689.061 476.42 690.271 477.04C690.871 477.35 691.391 477.4 692.091 477.34C695.081 477.09 698.091 476.47 701.101 477.27C701.931 477.49 702.781 477.68 703.581 478.01C705.761 478.91 708.051 479.64 709.341 481.91C710.311 483.63 710.921 485.41 711.041 487.39C711.151 489.3 711.361 491.2 711.521 493.08C713.741 493.05 714.111 492.67 714.041 490.94C713.931 488.06 713.841 485.19 713.821 482.31C713.811 480.24 714.091 478.15 713.921 476.09C713.821 474.88 714.271 474.23 715.461 473.49C713.551 473.04 714.871 471.79 714.571 470.94C713.021 471.07 711.611 471.18 710.211 471.3C710.101 471.58 710.011 471.78 709.951 471.98C709.771 472.67 709.801 473.59 709.361 473.97C708.981 474.3 708.061 474 707.381 474C707.171 474 706.951 474.08 706.741 474.08C705.461 474.11 704.171 474.1 702.891 474.14C701.331 474.2 699.771 474.27 698.221 474.39C697.911 474.42 697.561 474.66 697.321 474.89C696.191 475.95 695.081 476.1 694.121 474.93C692.951 473.5 691.251 473.09 689.761 472.33C689.021 471.95 687.821 472.05 687.041 472.39C686.641 472.56 686.701 473.77 686.561 474.52C686.501 474.79 686.481 475.07 686.461 475.25ZM693.541 482.46C693.461 484.02 693.371 485.28 693.341 486.55C693.291 488.67 694.851 491.29 696.471 491.81C699.841 492.9 703.261 493.72 706.851 493.61C708.141 493.57 708.481 493.46 708.491 492.19C708.511 490.55 708.281 488.9 708.221 487.25C708.101 483.92 706.151 482.02 703.281 480.8C700.391 479.57 697.321 479.9 694.311 479.83C693.491 479.81 692.961 480.36 693.181 481.29C693.311 481.78 693.481 482.24 693.541 482.46ZM690.461 506.6C689.421 506.82 688.401 506.73 688.071 507.17C686.501 509.22 684.191 508.63 682.291 508.64C680.311 508.65 678.251 507.85 676.371 507.07C672.171 505.32 668.051 503.39 663.931 501.45C662.551 500.8 661.451 500.95 660.341 501.91C658.751 503.3 657.121 504.65 655.361 506.15C660.021 506.77 664.451 507.36 668.871 507.96C669.221 508.01 669.561 508.14 669.911 508.25C671.011 508.6 672.111 508.94 673.201 509.31C676.491 510.43 680.081 510.27 683.291 511.7C683.881 511.96 684.491 512.31 685.111 512.36C686.831 512.52 688.791 513.1 690.211 512.49C691.891 511.77 693.811 510.79 694.861 508.61C694.281 508.71 693.921 508.77 693.551 508.84C692.701 509 691.871 509.21 691.011 509.29C690.171 509.37 689.811 508.87 689.961 508.06C690.051 507.67 690.231 507.29 690.461 506.6ZM673.001 496.89C675.661 497.91 678.141 499.2 681.181 499.17C681.691 496.08 682.171 493.19 682.671 490.19C679.491 487.72 675.851 486.2 672.351 484.24C672.561 488.54 672.771 492.59 673.001 496.89ZM755.671 478C754.651 477.86 753.831 477.36 752.751 478.04C751.311 478.95 750.431 479.91 750.751 481.71C750.901 482.55 750.841 483.44 750.861 484.3C750.901 486.66 750.981 489.03 750.941 491.39C750.921 492.89 751.211 493.38 752.691 493.49C753.551 493.56 754.421 493.5 755.351 493.5C756.511 492.61 755.691 491.42 755.681 490.33C755.661 486.31 755.671 482.27 755.671 478ZM674.331 622.85C674.341 622.69 674.361 622.54 674.371 622.38C671.491 621.64 668.631 620.86 665.741 620.17C663.191 619.56 662.211 617.95 662.341 615.31C662.411 613.89 663.241 612.35 662.251 610.88C660.841 610.88 659.901 611.32 659.271 612.65C657.871 615.58 657.371 618.73 656.601 621.95C657.211 621.98 657.641 622.01 658.061 622.02C659.581 622.07 661.161 621.85 662.591 622.21C665.101 622.85 667.621 622.81 670.151 622.83C671.541 622.86 672.931 622.85 674.331 622.85ZM628.091 624.5C628.131 624.72 628.181 624.95 628.221 625.17C633.931 624.65 639.711 624.77 645.331 623C645.361 622.69 645.411 622.41 645.401 622.13C645.341 620.69 645.071 619.32 644.671 617.91C644.081 615.86 643.861 613.7 643.521 611.57C643.381 610.67 642.871 610.39 642.231 610.41C642.231 612.2 642.241 613.9 642.231 615.6C642.221 617.24 641.881 618.78 640.241 619.56C638.361 620.45 636.441 621.27 634.501 622.05C632.381 622.91 630.231 623.69 628.091 624.5ZM716.551 476.6C716.711 482.2 716.861 487.62 717.011 493.02C718.231 493.7 719.411 494.08 720.671 493.27C720.601 492.48 720.421 491.75 720.501 491.06C720.891 487.62 721.101 484.18 720.991 480.71C720.951 479.47 721.241 478.21 721.391 476.88C720.811 476.78 720.321 476.64 719.831 476.62C718.891 476.57 717.951 476.6 716.551 476.6ZM747.961 490.96C747.961 487.92 747.961 485.12 747.961 481.88C745.471 482.73 743.411 483.43 741.331 484.14C741.511 486.36 740.511 488.34 741.501 490.37C743.591 490.56 745.721 490.75 747.961 490.96ZM653.821 474.48C654.861 475.65 655.881 476.78 656.881 477.93C658.091 479.32 659.711 479.6 661.421 479.62C662.711 479.63 663.051 478.29 663.951 477.73C664.201 477.57 664.111 476.86 664.151 476.54C661.111 475.18 658.351 473.85 657.021 470.67C655.711 471.89 653.971 472.52 653.821 474.48ZM746.541 466.22C745.581 464.29 745.471 464.23 744.081 464.51C743.591 464.61 743.081 464.75 742.591 464.71C740.291 464.52 738.001 464.27 735.701 464.05C735.341 464.02 734.981 464.03 734.621 464.03C732.621 464.05 730.611 464.02 728.621 464.12C727.061 464.2 725.371 464.03 724.001 465.79C731.681 466.05 739.031 466.75 746.541 466.22ZM661.761 453.62C664.271 454.25 664.851 454.19 666.761 453.11C669.061 451.81 671.431 450.79 674.181 451.28C674.681 451.37 675.231 451.18 676.181 451.08C675.451 450.5 675.031 450.25 674.721 449.9C673.151 448.13 671.251 448.02 669.191 448.78C667.771 449.31 666.271 449.73 664.991 450.52C663.751 451.29 662.381 452.09 661.761 453.62ZM717.241 505.17C717.501 506.42 718.361 506.84 719.491 506.71C720.191 506.63 720.871 506.35 721.561 506.16C723.041 505.74 724.071 504.68 724.171 503.26C724.271 501.78 723.811 500.27 722.461 499.28C720.741 498.01 717.181 498.88 716.271 500.83C716.151 501.08 716.351 501.47 716.421 501.96C717.781 501.69 718.971 501.43 720.181 501.2C721.541 500.95 722.121 501.6 721.701 502.89C721.401 503.8 720.891 504.44 719.801 504.29C718.801 504.17 717.911 504.33 717.241 505.17ZM693.621 493.53C692.541 492.42 691.851 491.71 691.031 490.87C688.951 491.68 686.961 492.46 684.811 493.3C684.901 494.47 684.981 495.5 685.081 496.88C687.991 495.74 690.571 494.73 693.621 493.53ZM719.831 514.42C718.711 514.48 718.901 515.18 718.771 515.71C717.991 519.03 718.701 522.44 718.201 525.77C718.051 526.77 717.981 527.78 717.811 528.77C717.701 529.45 717.701 530.03 718.681 530.52C719.011 525.07 719.951 519.8 719.831 514.42ZM674.611 454.33C672.531 453.68 669.931 454.29 668.891 455.55C671.281 456.88 672.091 456.72 674.611 454.33ZM716.821 496.51C715.251 496.51 714.151 496.51 712.691 496.51C713.331 497.39 713.771 498 714.221 498.62C715.061 497.93 715.761 497.36 716.821 496.51ZM727.291 496.5C725.811 496.5 724.881 496.5 723.561 496.5C724.481 497.34 725.091 497.9 725.831 498.58C726.321 497.88 726.711 497.33 727.291 496.5ZM725.791 519.56C725.661 517.86 725.261 516.25 724.271 514.84C724.471 516.51 724.611 518.21 725.791 519.56ZM727.061 474.15C727.061 473.95 727.061 473.75 727.061 473.55C725.871 473.55 724.691 473.55 723.501 473.55C723.501 473.64 723.491 473.73 723.491 473.81C724.681 473.93 725.871 474.04 727.061 474.15ZM727.531 525.12C727.711 525.04 727.891 524.96 728.071 524.88C727.501 523.88 727.821 522.49 726.111 521.47C726.691 522.97 727.111 524.04 727.531 525.12ZM720.721 510.17C720.711 510.03 720.691 509.9 720.681 509.76C720.251 509.79 719.831 509.83 719.401 509.86C719.411 509.96 719.411 510.07 719.421 510.17C719.851 510.17 720.291 510.17 720.721 510.17ZM718.111 533.77C718.251 533.77 718.391 533.76 718.531 533.76C718.501 533.12 718.471 532.48 718.441 531.84C718.331 531.84 718.221 531.85 718.121 531.85C718.111 532.48 718.111 533.12 718.111 533.77Z" fill="black"/>
<path d="M523.45 507.21C520.4 508.8 517.43 510.35 514.32 511.97C514.28 514.98 513.89 518.07 514.84 521.11C514.99 521.58 514.95 522.11 514.99 522.61C515.12 524.26 515.02 526 515.94 527.46C516.98 529.09 516.5 531 517.08 532.73C517.67 534.49 517.75 536.42 518.08 538.27C518.22 539.05 518.5 539.8 518.64 540.57C519.18 543.56 519.7 546.56 520.22 549.55C520.27 549.84 520.3 550.13 520.36 550.41C521.01 553.51 521.98 556.58 522.21 559.71C522.43 562.68 523.71 565.35 523.9 568.32C524.09 571.25 524.95 574.14 525.46 577.05C526.67 583.88 527.87 590.71 529.04 597.54C529.52 600.31 529.91 603.09 530.37 605.87C530.49 606.58 530.77 607.27 530.87 607.98C531.01 608.95 531.04 609.93 531.14 611.2C532.49 613.07 534.11 615.14 535.15 617.67C535.8 619.25 536.57 620.8 537.1 622.43C537.58 623.89 537.9 625.32 537.12 626.83C536.57 627.88 535.85 628.36 534.68 628.2C531.8 627.82 528.99 627.18 526.64 625.36C525.09 624.16 523.67 622.86 522.61 621.07C521.3 618.85 519.96 616.64 518.79 614.34C518.26 613.3 517.59 612.19 518.16 610.88C518.26 610.66 518.2 610.31 518.09 610.07C516.63 606.78 515.54 603.38 514.87 599.83C514.28 596.72 513.31 593.68 512.68 590.57C512.13 587.88 511.82 585.15 511.4 582.44C511.1 580.52 510.88 578.58 510.46 576.69C510.23 575.67 509.69 574.71 509.21 573.77C507.46 570.33 505.6 566.94 503.92 563.46C502.67 560.88 501.65 558.19 500.51 555.56C500.29 555.04 499.95 554.57 499.46 553.72C498.41 558.24 497.44 562.39 496.47 566.55C496.42 566.76 496.42 566.98 496.35 567.18C495.34 569.99 494.32 572.8 493.31 575.61C492.67 577.38 492 579.14 491.45 580.94C491.25 581.6 491.38 582.36 491.3 583.07C490.86 586.86 490.14 590.63 490.47 594.48C490.49 594.69 490.38 594.9 490.36 595.12C489.84 600.01 489.62 604.95 488.69 609.76C488.22 612.22 488.57 614.46 488.76 616.79C488.9 618.61 488.25 620.05 486.78 620.84C483.48 622.62 480.09 624.22 476.69 625.8C474.73 626.71 472.67 627.42 470.67 628.27C468.65 629.12 465.81 628.59 464.95 627.04C464.68 626.54 464.58 625.79 464.74 625.25C465 624.36 465.43 623.47 465.98 622.72C467.99 619.99 470.08 617.31 472.14 614.61C472.32 614.38 472.46 614.06 472.7 613.95C474.96 612.87 474.79 610.92 474.65 608.9C474.54 607.27 474.63 605.63 474.64 603.99C474.65 602.42 474.65 600.84 474.72 599.27C474.84 596.7 474.91 594.13 475.2 591.58C475.62 587.88 476.18 584.2 476.76 580.52C477.22 577.62 477.85 574.74 478.34 571.84C478.59 570.34 478.86 568.82 478.87 567.31C478.89 561.45 479.45 555.63 479.65 549.79C479.76 546.54 480.23 543.34 480.53 540.12C480.62 539.19 480.9 538.27 481.08 537.35C481.45 535.52 482.39 533.79 482.05 531.84C482.03 531.71 482.08 531.54 482.14 531.42C483.06 529.73 482.96 527.91 482.72 525.77C481.07 526.5 479.42 527.17 477.83 527.95C476.41 528.65 476.15 528.61 474.4 526.79C474.6 525.38 474.8 523.96 475 522.55C476.61 521.76 478.22 520.96 479.84 520.17C480.84 519.68 482.21 519.97 482.9 518.79C482.81 518.65 482.73 518.43 482.68 518.43C479.91 518.81 477.17 518.1 474.36 518.39C471.93 518.64 469.33 518.14 467.29 516.39C466.91 516.07 466.58 515.68 466.27 515.28C463.72 512.03 463.51 508.46 464.8 504.66C465.43 502.81 465.92 500.91 466.56 499.06C466.89 498.12 467.53 497.29 467.87 496.36C469.37 492.25 471.82 488.67 473.98 484.92C474.98 483.18 475.87 481.36 477.05 479.75C479.08 476.96 480.7 473.77 483.53 471.7C485.12 470.54 487.15 469.93 489.05 469.24C490.17 468.83 491.42 468.76 492.76 468.52C492.2 465.88 493.28 463.16 491.75 460.72C491.49 460.3 491.26 459.74 490.87 459.53C487.34 457.63 486.56 454.6 486.76 450.86C486.84 449.36 487.24 447.81 488.08 447.15C489.63 445.95 489.98 444.23 490.97 442.83C493.73 438.97 499.69 437.83 503.73 440.44C505.44 441.55 507.02 442.96 507.62 445.16C508.03 446.67 508.69 448.12 509.29 449.58C509.91 451.09 509.81 451.36 508.26 451.88C507.99 451.97 507.71 452.02 507.19 452.16C507.37 453.65 507.48 455.13 507.75 456.59C508.34 459.8 508.32 462.97 506.62 465.81C505.97 466.89 506.26 467.47 506.66 468.06C509.06 468.57 511.23 469.12 513.44 469.46C516.35 469.91 517.85 472.02 519.22 474.22C520.56 476.36 521.76 478.58 522.96 480.81C524.24 483.17 525.5 485.54 526.64 487.97C526.99 488.71 526.72 489.76 527.11 490.47C527.83 491.78 528.83 492.95 529.71 494.16C530.21 494.84 530.73 495.52 531.37 496.38C531.76 496.25 532.39 496.1 532.97 495.84C536.18 494.38 539.39 492.92 542.57 491.4C543.26 491.07 544.12 490.63 544.41 490.01C545.85 486.87 548.59 486.97 551.27 487.27C552.16 487.37 552.73 487.22 553.47 486.88C556.02 485.68 558.15 484.02 559.87 481.76C561.18 480.04 562.83 478.57 564.14 476.85C565.09 475.6 565.73 474.11 566.54 472.75C568.35 469.7 570.44 466.79 571.95 463.6C573.53 460.25 575.99 457.73 578.56 455.27C580.05 453.85 581.86 452.88 584.03 452.9C584.18 452.9 584.32 452.88 584.47 452.87C585.16 452.78 586.01 452.4 586.49 452.67C587.11 453.02 587.5 453.86 587.86 454.55C588.72 456.21 589.62 457.87 590.28 459.62C590.67 460.64 591.27 460.73 592.11 460.64C592.61 460.59 593.1 460.5 593.59 460.45C594.77 460.33 595.48 460.9 595.97 461.94C596.48 463.03 597.11 464.07 597.71 465.16C598.82 464.89 599.71 464.66 600.62 464.47C602.92 464 604.41 465.48 603.68 467.72C603.11 469.48 602.09 471.05 600.16 472.01C601.01 474.31 600.95 476.45 598.54 477.73C598.95 480.45 599.21 480.85 601.52 480.96C604.05 481.09 605.77 482.04 606.54 484.57C606.76 485.29 607.39 485.89 607.82 486.55C609.59 489.26 610.21 492.35 610.9 495.45C611.27 497.11 611.53 498.7 611.28 500.38C610.99 502.33 609.63 503.96 607.73 504.18C605.62 504.43 603.52 504.28 601.83 502.71C601.46 502.37 601.09 501.99 600.85 501.56C599.95 499.91 599.07 498.25 598.26 496.56C597.52 495 596.93 493.37 596.19 491.81C594.54 488.34 594.54 485.03 597.02 481.77C596.5 480.85 595.94 479.86 595.34 478.8C593.16 479.65 591.38 479.43 590.06 477.44C589.89 477.19 589.26 477.08 588.9 477.15C588.12 477.31 587.29 477.5 586.64 477.92C582.67 480.48 578.12 481.84 573.98 484.08C570.5 485.96 566.74 487.31 563.12 488.92C562.4 489.24 561.74 489.71 561.02 490.04C559.02 490.97 556.97 491.79 555.02 492.8C554.46 493.09 554 493.84 553.8 494.48C553.5 495.44 553.02 496.07 552.17 496.65C548.81 498.97 545.8 501.7 543.08 504.73C542.41 505.48 541.97 506.42 541.36 507.23C539.63 509.53 537.12 510.92 534.94 512.71C534.5 513.07 533.92 513.25 533.42 513.54C531.48 514.66 529.75 514.05 528.2 512.77C526.98 511.76 525.83 510.64 524.75 509.47C524.28 508.91 523.98 508.12 523.45 507.21ZM518.56 506.23C518 506.31 517.38 506.27 516.88 506.49C514.63 507.47 512.41 508.51 510.19 509.54C509.96 509.65 509.78 509.88 509.58 510.05C509.7 510.28 509.81 510.51 509.93 510.74C513.01 509.72 515.9 508.26 518.52 506.19C520.53 505.76 521.59 505.21 522.44 504.11C520.92 504.57 519.52 504.98 518.56 506.23ZM561.76 485.97C563.52 486.22 564.87 485.33 566.36 484.55C569.75 482.79 573.29 481.29 576.77 479.69C581.03 477.73 585.3 475.79 589.55 473.82C590.4 473.42 591.23 472.95 592.03 472.45C592.61 472.08 592.68 471.57 592.14 470.96C591.36 471.35 590.59 471.75 589.82 472.12C586.44 473.75 583.04 475.34 579.68 477.01C577.11 478.29 574.66 479.82 572.04 480.96C568.53 482.47 565.05 484 561.83 486.05C558.1 487.51 558.1 487.51 557.13 488.83C558.34 488.29 559.52 487.83 560.63 487.25C561.11 486.99 561.95 486.89 561.76 485.97ZM485.14 532.19C484.74 534.16 484.37 535.99 484 537.82C483.58 539.93 483.06 542.03 482.78 544.16C482.55 545.94 482.63 547.76 482.53 549.55C482.31 553.6 482.09 557.64 481.82 561.69C481.63 564.63 481.98 567.57 481.39 570.52C480.46 575.17 479.85 579.88 479.13 584.57C478.52 588.55 477.72 592.52 477.45 596.53C477.16 600.91 477.38 605.32 477.38 609.7C479.94 611.86 482.72 610.79 485.63 610.46C485.81 609.61 486.05 608.79 486.15 607.95C486.59 604.09 487.02 600.22 487.38 596.35C487.62 593.71 487.72 591.05 487.92 588.4C488.17 585.17 488.19 581.9 489.16 578.78C489.67 577.14 490.43 575.58 491.02 573.97C493.19 568.02 495.13 562.02 496.13 555.73C496.51 553.32 497.37 550.98 498.04 548.62C498.32 547.64 499.13 547.45 499.8 548.28C500.39 549 500.91 549.81 501.3 550.66C502.52 553.35 503.57 556.12 504.85 558.77C507.43 564.14 510.13 569.46 512.76 574.81C513.01 575.32 513.19 575.9 513.28 576.46C513.6 578.45 513.84 580.45 514.17 582.44C514.59 584.98 514.99 587.52 515.53 590.04C516.22 593.27 517.05 596.47 517.78 599.69C518.52 602.98 519.3 606.26 520.89 609.22C523.25 608.84 525.72 609.53 527.89 608.18C526.81 602.03 525.76 596 524.7 589.96C524.18 586.98 523.61 584 523.12 581.01C522.82 579.17 522.67 577.31 522.36 575.48C521.94 573.07 521.41 570.68 520.96 568.28C520.29 564.72 519.65 561.16 519.01 557.6C518.72 555.97 518.46 554.33 518.18 552.7C517.88 550.92 517.6 549.14 517.25 547.38C516.96 545.89 516.54 544.42 516.26 542.93C515.76 540.31 515.34 537.68 514.83 535.06C514.55 533.61 514.79 531.99 513.52 530.68C504.21 532.78 494.74 532.81 485.14 532.19ZM477.99 508.58C479.73 508.85 481.28 509.18 482.84 509.31C487.17 509.66 491.52 509.95 495.86 510.19C496.47 510.22 497.16 510.01 497.71 509.72C500.11 508.44 502.79 508.07 505.35 507.31C505.76 507.19 506.31 507.03 506.63 507.19C507.93 507.86 509.02 507.11 510.15 506.78C511.61 506.36 512.28 505.39 511.77 504.02C511.1 502.23 511.44 500.48 511.51 498.71C511.56 497.41 511.77 496.12 511.83 494.82C511.92 492.66 511.87 490.5 512.03 488.35C512.06 487.94 512.71 487.33 513.14 487.26C513.52 487.2 514.13 487.68 514.39 488.09C514.64 488.47 514.76 489.12 514.61 489.53C514.06 491.02 514.93 491.74 515.9 492.57C516.74 493.29 517.45 493.39 518.12 492.52C519.22 491.08 520.76 490.3 522.34 489.54C522.84 489.29 523.29 488.93 523.99 488.48C522.65 486.1 521.4 483.83 520.11 481.58C518.71 479.13 517.36 476.64 515.83 474.27C515.28 473.41 514.38 472.45 513.46 472.22C511.4 471.71 509.36 470.96 507.19 470.89C506.45 470.87 505.97 471.03 505.33 471.59C503.43 473.26 501.15 474.16 498.54 473.39C496.9 472.91 495.07 472.87 493.82 471.41C493.66 471.23 493.29 471.18 493.01 471.17C491.08 471.05 489.04 471.29 487.58 472.38C486.01 473.55 484.14 474.38 483.02 476.26C481.52 478.77 479.5 480.96 477.98 483.45C477.08 484.91 476.33 486.46 475.4 487.93C474.02 490.11 472.89 492.44 471.53 494.92C473.74 496.62 475.98 498.48 478.73 499.65C479.98 497.96 481.11 496.37 482.31 494.83C482.93 494.03 483.58 493.2 484.4 492.64C484.9 492.3 485.79 492.28 486.4 492.45C486.71 492.54 486.94 493.38 486.98 493.89C487.31 498.16 486.42 502.38 486.37 506.63C486.36 507.65 485.52 508.72 484.77 508.68C483.5 508.6 483.58 507.59 483.64 506.73C483.84 503.57 484.09 500.41 484.32 497.28C481.91 499.29 479.21 504.01 477.99 508.58ZM485.88 529.5C487.6 529.62 489.09 529.81 490.59 529.8C492.9 529.78 495.22 529.52 497.53 529.56C500.42 529.61 503.29 529.93 506.17 529.33C508.53 528.84 510.92 528.54 513.56 528.12C511.59 523.73 512.1 519.26 511.49 514.75C510.8 515.16 510.21 515.42 509.71 515.82C507.34 517.69 504.57 518.64 501.66 518.39C499.61 518.21 498.08 519.23 496.34 519.72C494.64 520.19 493.09 521.21 491.47 521.98C489.52 522.91 487.56 523.82 485.52 524.78C485.63 526.23 485.74 527.67 485.88 529.5ZM588.39 461.34C587.54 459.84 586.74 458.56 586.07 457.21C585.12 455.29 584.08 454.74 582.39 455.79C581 456.66 579.66 457.72 578.59 458.96C575.55 462.48 573.51 466.69 571 470.58C569.08 473.56 567.75 476.9 565.43 479.64C564.96 480.2 564.58 480.84 563.95 481.73C572.03 477.76 579.74 473.97 587.72 470.04C587.3 468.92 587.02 467.82 586.5 466.84C585.5 464.95 585.59 463.83 587.1 462.34C587.42 462.06 587.78 461.82 588.39 461.34ZM469.93 497.85C469.38 499.3 468.78 500.54 468.43 501.85C467.94 503.65 467.75 505.53 467.22 507.31C466.37 510.19 467.34 512.4 469.42 514.32C470.02 514.87 470.63 515.16 471.52 515.22C475.62 515.51 479.72 515.58 483.82 515.42C486.42 515.32 489.05 515.34 491.6 514.93C493.73 514.59 495.71 514.47 497.76 515.28C498.74 515.67 499.86 515.77 500.93 515.85C502.51 515.98 505.6 515.1 507.52 513.99C504.95 513.96 503.67 512.88 504.07 510.34C503.15 510.62 502.48 510.95 501.79 511C500.81 511.08 500.56 511.91 499.98 512.41C499.72 512.64 499.19 512.6 498.78 512.6C498.22 512.6 497.67 512.49 497.11 512.49C493.55 512.47 489.99 512.54 486.43 512.44C484.49 512.39 482.55 512.13 480.62 511.89C479.2 511.72 477.79 511.47 476.38 511.18C474.73 510.84 474.41 510.31 474.94 508.77C475.67 506.64 476.48 504.54 477.36 502.16C475.06 500.89 473.2 498.41 469.93 497.85ZM503.37 449.8C502.22 449.87 501.2 450.04 500.2 449.97C498.69 449.86 497.17 449.7 495.7 449.35C494.88 449.15 494.43 448.29 494.64 447.43C494.89 446.4 495.76 446.77 496.45 446.86C497.95 447.06 499.44 447.32 500.94 447.49C501.33 447.53 502.06 447.41 502.11 447.22C502.53 445.75 503.78 445.66 505.25 445.49C504.53 444.67 504.07 444.04 503.51 443.52C502.41 442.51 501.11 441.8 499.6 441.86C498.1 441.92 496.43 441.87 495.18 442.53C493.68 443.32 492.72 444.85 492.64 446.78C492.57 448.52 492.22 448.72 490.4 448.73C488.81 450.77 489.48 452.75 490.49 455.13C490.98 454.4 491.38 453.98 491.56 453.48C491.89 452.6 492.11 451.68 492.32 450.76C492.49 450 492.68 449.3 493.66 449.38C494.67 449.47 494.65 450.23 494.69 450.99C494.78 452.64 494.15 454.1 493.63 455.6C493.43 456.19 493.16 456.9 493.31 457.44C494.23 460.66 495.78 463.42 499.08 464.84C500.9 465.62 502.96 465.66 503.87 464.43C504.6 463.43 505.12 462.12 505.29 460.89C505.49 459.42 505.34 457.87 505.12 456.39C504.81 454.2 504.81 451.91 503.37 449.8ZM525.96 505.96C527.24 507.74 528.5 509.38 530.17 510.62C531.2 511.39 532.36 511.21 533.42 510.53C536.35 508.65 538.64 506.12 540.73 503.39C542.59 500.97 544.74 498.88 547.21 497.09C548.32 496.29 549.46 495.52 550.51 494.65C551.01 494.24 551.33 493.61 552.01 492.7C549.2 492.79 550.27 490.8 549.64 489.39C548.41 490.12 547.27 490.8 546.16 491.45C546.16 492.64 546.21 493.65 546.14 494.66C546.08 495.57 545.67 496.13 544.58 496.01C544.13 495.96 543.61 496.18 543.19 496.41C541.22 497.48 539.28 498.6 537.33 499.7C535.83 500.55 534.36 501.44 532.83 502.23C530.85 503.25 528.83 504.17 526.84 505.16C526.59 505.28 526.41 505.54 525.96 505.96ZM598.49 484.66C597.42 486.47 597.58 488.21 598.5 490.03C599.98 492.98 601.3 496 602.77 498.95C603.11 499.64 603.7 500.23 604.25 500.79C604.88 501.43 607.08 501.77 607.72 501.34C608.77 500.65 608.97 499.56 608.76 498.45C607.87 493.61 606.35 488.99 603.74 484.78C603.17 483.86 601.99 483.45 600.88 483.79C600.05 484.04 599.26 484.37 598.49 484.66ZM468.3 625.64C474.55 623.56 480.81 621.72 486.23 617.73C486.1 616.27 485.97 614.87 485.84 613.36C483.8 613.55 481.87 613.99 479.99 613.83C477.23 613.59 475.51 614.83 474.04 616.89C473.09 618.22 472.13 619.56 471.03 620.76C469.74 622.15 469.01 623.82 468.3 625.64ZM521.27 612.52C521.71 613.8 521.85 615.23 522.6 616.15C524.44 618.43 525.77 621.1 528.31 622.88C530.25 624.24 532.19 625.12 534.85 625.36C533.85 619.67 531.04 615.2 527.62 610.93C526.46 611.29 525.45 611.76 524.4 611.89C523.38 612.02 522.25 611.34 521.27 612.52ZM524.19 491.7C522.31 493.08 519.93 493.66 519.09 495.92C520.17 497.75 521.14 499.41 522.09 501.03C524.65 499.74 527.2 498.45 529.92 497.08C527.12 496.18 526.39 493.4 524.19 491.7ZM519.5 502.07C518.16 498.45 516.07 495.67 514.18 495.25C514.18 498.29 514.18 501.27 514.18 504.35C516.43 504.21 517.8 502.77 519.5 502.07ZM503.65 468.39C502.22 468.24 500.91 468.23 499.67 467.94C498.4 467.64 497.2 467.05 495.61 466.45C495.89 467.91 496.09 468.93 496.27 469.87C498.12 471.12 500.01 471.22 502 470.77C503.45 470.44 503.58 470.28 503.65 468.39ZM601.02 466.94C598.82 467.8 597.01 468.44 595.26 469.24C594.41 469.63 594.61 470.23 595.43 470.69C597.17 469.46 599.8 469.64 601.02 466.94ZM593.4 462.96C592.46 463.33 591.82 463.68 592.38 464.7C592.78 465.43 593.24 466.12 593.68 466.84C594.63 465.97 594.63 465.97 593.4 462.96ZM588.95 464.3C589.29 467.74 589.29 467.74 590.67 468.41C590.66 466.59 590.37 465.86 588.95 464.3ZM482.72 522.49C480.21 522.63 479.54 522.94 477.97 524.83C479.74 523.96 481.11 523.28 482.72 522.49ZM597.02 475.11C598.38 474.63 598.23 473.91 597.53 473C596.01 473.46 596.28 474.2 597.02 475.11ZM594.36 474.69C593.29 475.17 592.72 475.43 592.07 475.72C592.63 476.6 593.26 476.7 593.82 476.33C594.09 476.15 594.09 475.58 594.36 474.69ZM489.35 520.13C489.31 520.02 489.28 519.91 489.24 519.81C488.26 520.1 487.27 520.39 486.29 520.68C486.33 520.81 486.37 520.94 486.41 521.07C487.39 520.76 488.37 520.45 489.35 520.13ZM525.66 502.29C525.71 502.45 525.76 502.62 525.81 502.78C526.23 502.6 526.66 502.42 527.5 502.06C526.79 502 526.57 501.93 526.37 501.97C526.13 502.03 525.9 502.18 525.66 502.29Z" fill="black"/>
<path d="M252.721 537.6C252.271 536.17 253.391 535.14 254.071 533.98C254.611 533.06 255.331 532.32 256.541 533.15C256.751 533.29 257.081 533.31 257.361 533.3C260.381 533.16 262.631 535.51 262.381 538.54C262.151 541.31 259.481 543.22 256.591 542.67C253.621 542.1 252.641 540.87 252.721 537.6ZM257.351 539.87C258.841 539.92 259.521 539.4 259.551 538.2C259.581 537.03 258.731 535.69 257.871 535.78C256.281 535.95 255.481 536.1 255.381 537.77C255.311 539.23 255.861 539.82 257.351 539.87Z" fill="black"/>
<path d="M702.19 484.69C701.14 486.77 700.35 487.38 699.08 487.08C697.84 486.79 696.92 485.79 696.89 484.72C696.86 483.69 697.72 482.4 698.59 482.18C699.86 481.85 701.06 482.69 702.19 484.69Z" fill="black"/>
</svg>
