<?xml version="1.0" encoding="utf-8"?>
<!-- Generator: Adobe Illustrator 28.2.0, SVG Export Plug-In . SVG Version: 6.00 Build 0)  -->
<svg version="1.1" xmlns="http://www.w3.org/2000/svg" xmlns:xlink="http://www.w3.org/1999/xlink" x="0px" y="0px"
	 viewBox="0 0 1366 768" style="enable-background:new 0 0 1366 768;" xml:space="preserve">
<style type="text/css">
	.st0{fill:none;stroke:#000000;stroke-width:2;stroke-linecap:round;stroke-linejoin:round;stroke-miterlimit:10;}
</style>
<g id="Layer_3">
	<path class="st0" d="M1205.34,564.02c-1.48-15.65,13.88-23.47,23.33-13.88c4.43-12.11,15.36-12.7,17.13-2.07
		c4.73-11.22,15.95-9,15.65,4.21c4.14-10.71,16.24-10.42,16.84,2.29"/>
	<path class="st0" d="M1270.91,570.22c0.95-10.35,14.54-22.45,23.04-10.93c5.91-9.16,15.95-7.58,15.95,3.3
		c5.02-10.98,24.11-5.37,23.92,7.63"/>
	<path class="st0" d="M1277.28,551.36v-35.49c-10.21,6.79-22.91-0.89-18.77-13c-13,2.95-16.54-10.93-9.75-16.54
		c-12.11-5.32-8.57-17.13-0.3-20.08c-8.57-10.34-7.68-19.2,3.25-20.38c-5.61-9.16-2.36-20.97,7.39-20.08
		c-7.98-8.27-1.48-24.62,7.38-20.73c-0.89-9.69,16.54-10.88,16.54,2.42c8.57-8.57,19.79,3.54,15.36,15.36
		c11.22-2.36,15.95,12.11,9.45,22.45c14.77-1.18,13,11.81,5.32,18.9c14.77,2.95,12.7,19.79,3.25,26.29
		c6.2,10.63-5.98,21.86-14.51,15.95c0.63,11.22-11.19,15.36-16.43,10.04v36.85"/>
	<path class="st0" d="M992.38,554.05c-6.79-8.64-1.77-23.41,6.5-16.62c-1.18-18.31,11.52-20.68,16.84-13.59
		c4.14-10.93,24.81-12.41,24.52,11.22c10.04-12.11,23.04,0.3,21.56,9.75c10.04-11.52,22.15-8.27,23.04,0.3
		c9.45-10.04,28.35-2.95,28.65,12.11"/>
	<path class="st0" d="M1051.35,530.24v-19.68c-11.41-5.91-26.47-22.74-27.95-41.06"/>
	<path class="st0" d="M1059.98,536.73v-28.24c13.63-2.66,27.51-9.75,32.83-23.33"/>
	<path class="st0" d="M1058.98,505.06c7.13-9.45,10.2-16.06,13.45-26.11"/>
	<path class="st0" d="M1055.3,504.06c-7.97-8.27-9.75-15.51-10.34-28.58"/>
	<path class="st0" d="M1051.35,510.56c0-9.16,6.51-5.96,8.63-2.07c5.95,10.93,27.08,1.07,28.69-8.62
		c11.52,1.53,21.27-17.53,10.04-24.39c10.04-9.82,5.02-29.9-5.91-37.58c9.45-11.52,1.48-33.97-15.06-35.44
		c1.18-12.41,1.91-33.97-12.04-35.44c-13.95-1.48-21.63,10.93-23.7,28.35c-20.68,4.14-18.61,23.04-16.84,31.31
		c-12.7,4.43-14.18,16.24-7.97,27.47c-12.11,8.86-13.32,30.75,4.73,39.28c-2.66,9.16,3.21,18.19,24.79,14.27"/>
	<path class="st0" d="M944.83,562.54c0,0,0-24.43,0-32.3c0-7.87-6.2-15.55-13-20.87c-6.79-5.32-12.7-14.18-12.7-14.18"/>
	<path class="st0" d="M944.83,480.13c0,0,2.36,12.41,2.07,21.86s0.64,18.08-5.44,17.76"/>
	<path class="st0" d="M967.87,482.5c-10.34,8.57-13.29,11.52-15.95,18.9s0.59,14.36,7.97,9.54s15.65-11.07,15.65-11.07"/>
	<path class="st0" d="M959.9,510.94c-6.5,6.11-3.84,12.1,1.77,8.81s16.84-8.81,16.84-8.81"/>
	<path class="st0" d="M944.19,525.77c-7.7,5.83-27.86,0.48-24.1-13.24c-12.85-1.09-22.82-21.77-5.54-30.04
		c-6.42-12.92-1.55-20.68,7.97-22c-6.87-12.85-1.77-27.91,13.29-29.02c1.55-15.28,7.09-25.03,20.27-23.04
		c13.18,1.99,10.74,18.83,9.41,23.7c13.51,0.66,16.17,17.06,11.52,25.92c16.39,1.33,16.17,22,9.53,31.71
		c14.62,9.05,6.72,30.09-8.05,28.54c-4.36,5.09-8.94,10.16-23.26,7.74"/>
	<path class="st0" d="M564.11,564.02h-91.93V528.1c0-8.02,0.66-12.67,5.76-18.43c5.1-5.76,36.33-33.23,36.33-33.23"/>
	<path class="st0" d="M941.46,561.73c0.76-9.08-3.64-20.82-15.6-16.39c2.22-15.51-12.85-19.27-23.26-10.85
		c-1.11-29.02-24.15-24.15-25.25-10.63c-9.53-15.73-27.69-1.11-23.92,15.28c-19.05-7.97-16.39,19.12-11.52,24.88h-57.15"/>
	<path class="st0" d="M953.36,544.67c6.61-5.98,17.25-2.21,16.58,8.86c9.08-9.53,18.16-2.58,18.39,3.69c5.98-7.01,13.29,0,13.29,0
		c6.65-6.35,15.73-1.11,19.49,6.79h-67.94c0,0,0.22-20.68,0.22-27.29c0-6.61,0.05-10.44,6.46-16.04"/>
	<path class="st0" d="M495.44,456.73c0,0-18.61,33.17-22.37,39.4c-3.77,6.23-4.65,9.93-1.99,12.18c2.66,2.25,5.63,2.36,9.38-1.22"/>
	<path class="st0" d="M414.59,470.9c0,0,27.69,31.04,35,39c7.31,7.96,9.97,9.96,9.97,16.16s0,37.95,0,37.95h-10.19
		c1.99-8.49,3.1-18.46-3.77-19.35c-6.87-0.89-8.53,8.42-8.53,8.42c0.11-10.19-9.86-20.16-16.5-10.85
		c-1.11-10.19-21.27-24.59-22.6-5.76c-12.63-7.75-21.04,4.21-13.73,15.06c-12.18-8.64-24.59,0.37-18.16,12.48h-91.71"/>
	<path class="st0" d="M429.31,539.12c-1.43-8.62,10.97-12.83,15.18-5.52c1.99-8.86,10.63-10.15,15.06-3.75"/>
	<path class="st0" d="M472.18,533.37c3.54-8.2,16.84-10.63,17.5,3.77c7.97-9.53,24.59-4.65,21.71,10.63
		c9.08-3.99,17.94,1.99,15.95,15.95"/>
	<path class="st0" d="M429.2,456.73l22.83,40.1c6.42,7.97,7.09,16.86-2.44,13.08"/>
	<path class="st0" d="M451.14,450.97c0,0,9.15,38.01,10.63,46.3c1.11,6.2,1.14,11.08-4.97,6.87"/>
	<path class="st0" d="M474.4,450.97l-8.64,37.22c-1.33,6.65-3.9,12.77,0,14.18c3.9,1.41,2.94,1.38,5.83-3.62"/>
	<path class="st0" d="M482.49,400.24c2.32-9.97,41.53-14.18,35.54,15.28c15.28-10.63,44.08,11.96,20.82,31.46
		c21.93,5.76,14.3,40.99-11.24,36.34c0.82,15.06-19.33,25.91-29.3,13.29c-7.09,8.42-24.38,9.17-23.15-4.05
		c0,0-13.62,2.96-15.83-6.68c-1.77,7.19-7.1,11.84-14.96,8.52c-1.32,8.31-39.76,15.95-35.33-7.09c-14.4,8.2-35.44-28.13-11.52-32.79
		c-8.86-13.07-14.84-45.19,20.6-40.32c-5.09-18.39,18.83-32.12,29.24-15.95C450.92,382.3,478.18,375.65,482.49,400.24z"/>
	<polyline class="st0" points="858.96,564.02 860.73,538.02 870.17,564.02 874.46,547.11 883.1,564.02 888.2,551.02 896.84,564.02 
		901.93,548.21 910.35,564.02 911.46,553.53 923.42,564.02 	"/>
	<path class="st0" d="M1285.97,540.74c10.04-12.11,23.04,0.3,21.56,9.75c10.04-11.52,22.15-8.27,23.04,0.3
		c9.45-10.04,28.35-2.95,28.65,12.11"/>
	<line class="st0" x1="1017.1" y1="558.43" x2="1174.62" y2="558.43"/>
	<path class="st0" d="M1171.96,575.02c3.1-3.77,3.99-7.45,3.99-13.25s2.22-22.92,1.77-31.53c0,0-21.04-18.35-26.36-32.31"/>
	<path class="st0" d="M1156.46,477.33c2.44,11.96,22.37,47.18,22.37,47.18c3.77-11.52-0.22-42.24-3.32-55.01"/>
	<path class="st0" d="M1195.45,477.11c-4.87,7.75-10.85,48.29-10.85,48.29c9.97-4.43,25.92-31.46,25.92-31.46"/>
	<path class="st0" d="M1205.24,516.24c-4.92,8.5-19.32,14-19.32,14v29.49c-0.27,4.28,0.89,11.96,4.65,15.28"/>
	<path class="st0" d="M1177.72,530.24c-3.32,4.02-6.87,1.36-6.87,1.36c-1.11,4.65-5.09,3.54-4.65-2.66
		c-1.33,9.3-6.87,3.77-7.09-1.11c-6.2,8.64-7.75,3.31-7.75,3.31c-5.76,3.11-5.54-2.87-3.54-6.64c-7.97,5.76-15.28,2.44-15.28,2.44
		l7.53-5.76c-3.88,2.1-12.07,5.21-14.4,3.32c-2.33-1.88,2.88-6.09,2.88-6.09l-8.2,2.1c0,0,1.33-6.65,5.54-7.75
		c0,0-5.54,2.55-8.31-0.78c-2.77-3.32,7.09-8.53,7.09-8.53s-11.63-1.96-11.19-6.46c0.44-4.5,10.08-5.5,10.08-5.5
		s-12.18-2.4-10.63-6.35c1.55-3.95,13.29-0.85,13.29-0.85l-8.2-8.64l7.53,0.89c0,0-7.64-7.42-5.21-10.97
		c2.44-3.54,11.63-1.66,11.63-1.66s-7.42-9.53-4.21-12.96c3.21-3.43,11.52,3.88,11.52,3.88c-0.33-7.09-5.09-12.74-5.09-12.74
		s12.85-1.55,14.84,5.54c-1.33-6.98-1-8.97,2.33-10.19c3.32-1.22,10.74,6.09,10.74,6.09c-0.55-6.87,1-8.86,3.54-9.19
		c2.55-0.33,7.64,6.98,7.64,6.98c0.66-7.42,0.89-10.19,5.43-10.41s7.09,9.17,7.09,9.17s2.33-8.51,5.65-9.17
		c2.77,3.55,5.32,11.3,5.32,11.3s2.22-5.98,5.21-6.09c4.1,3.99,4.43,14.62,4.43,14.62s3.1-5.54,7.42-2.88
		c4.32,2.66,1.11,12.85,1.11,12.85s6.98-7.86,10.3-3.21c3.32,4.65-1.88,12.74-1.88,12.74s5.76-3.36,7.64-0.74
		c-1.66,5.28-5.76,12.15-5.76,12.15s5.65-4.98,7.09-2.1c1.44,2.88-6.2,15.28-6.2,15.28s6.2-4.76,8.09-0.33s-5.76,8.53-5.76,8.53
		s9.86-1.99,9.97,1.66c0.11,3.66-11.3,7.97-11.3,7.97s8.2-0.66,7.75,2.55c-5.76,3.99-13.84,5.65-13.84,5.65s7.09,3.77,2.66,6.65
		s-13.85-3.88-13.85-3.88s8.86,9.41,6.2,10.3c-7.64,0.54-15.62-8.53-15.62-8.53s3.32,4.87-1.44,6.87s-5.21-3.21-5.21-3.21
		s0.33,4.73-3.77,5.41c-4.1,0.68-4.1-4.22-4.1-4.22"/>
	<path class="st0" d="M1207.85,507.9c-0.44,3.54,1.99,7.53,1.99,7.53l1.66-3.77c0,0,1.22,5.71,4.65,4.57s1.22-7.56,1.22-7.56
		l4.76,0.11c0,0-0.4-5.85-8.2-6.87"/>
	<path class="st0" d="M1202.76,492.61c-2.44-6.09-0.9-9.59,2.48-9.89c3.39-0.3,1.72,7.56,1.72,7.56s5.87-6.98,8.75-5.76
		c0,3.1-2.99,6.31-2.99,6.31"/>
	<path class="st0" d="M1192.23,477.11c-4.32,2.77-11.52,2.66-11.19,0s7.53-2.55,7.53-2.55s-9.3-4.87-4.98-8.42
		c4.32-3.54,7.42,6.5,7.42,6.5s-1.77-12.92,1.22-13.37c5.32,4.54,4.54,12.63,4.54,12.63s3.54-12.41,7.75-8.75
		c4.21,3.66-4.76,12.33-4.76,12.33"/>
	<path class="st0" d="M1177.78,460.49c-0.83-5.32,2.49-11.3,6.37-12.18c1.66,3.99-3.11,13.18-3.11,13.18"/>
	<path class="st0" d="M1167.09,470.9c-8.53,0-13.4-2.66-11.19-6.42c2.22-3.77,9.64,2.44,9.64,2.44c-5.54-6.2-4.31-11.52-4.31-11.52
		c6.19,1.11,7.18,7.75,7.18,7.75c-0.54-7.75-0.65-13.4,2.67-13.18c3.32,0.22,4.1,9.97,0.66,15.95"/>
	<path class="st0" d="M1164.67,492.28c-2.01-4.65-3.01-12.41,1.42-15.95C1169.75,481.54,1164.67,492.28,1164.67,492.28z"/>
	<path class="st0" d="M1158.78,514.1c-5.76-0.22-9.97,7.64-9.97,7.64C1157.01,525.18,1158.78,514.1,1158.78,514.1z"/>
	<path class="st0" d="M1150.7,504.46c-2.33-5.21-6.65-10.63-9.19-7.97s5.76,9.75,5.76,9.75s-10.63-7.42-12.96-3.99
		c1.88,5.43,11.74,6.42,11.74,6.42s-11.96,0.99-9.3,5.42c10.41,0,13.51-3.65,13.51-3.65"/>
	<path class="st0" d="M1150.7,485.16c-5.21,1.48-14.51-0.18-13.4-3.62c1.11-3.43,11.52,0,11.52,0s-9.64-6.2-5.32-10.63
		c4.32-4.43,7.2,8.05,7.2,8.05s0-8.6,3.1-7.16s0,9.97,0,9.97"/>
</g>
</svg>
